<?xml version="1.0" encoding="utf-8"?>
<!-- Generator: Adobe Illustrator 16.0.0, SVG Export Plug-In . SVG Version: 6.00 Build 0)  -->
<!DOCTYPE svg PUBLIC "-//W3C//DTD SVG 1.1//EN" "http://www.w3.org/Graphics/SVG/1.1/DTD/svg11.dtd">
<svg version="1.1" id="Layer_1" xmlns="http://www.w3.org/2000/svg" xmlns:xlink="http://www.w3.org/1999/xlink" x="0px" y="0px"
	 width="139px" height="188px" viewBox="0 0 139 188" enable-background="new 0 0 139 188" xml:space="preserve">
<g>
	
		<radialGradient id="SVGID_1_" cx="-1683.1685" cy="1127.4932" r="80.9732" gradientTransform="matrix(-0.0097 1.1697 -1.3792 -0.0114 1623.2578 2029.1572)" gradientUnits="userSpaceOnUse">
		<stop  offset="0" style="stop-color:#E01E26"/>
		<stop  offset="0.2298" style="stop-color:#D81E25"/>
		<stop  offset="0.5295" style="stop-color:#C41E24"/>
		<stop  offset="0.8665" style="stop-color:#A61C20"/>
		<stop  offset="0.9818" style="stop-color:#9A1B1F"/>
	</radialGradient>
	<path fill="url(#SVGID_1_)" d="M35.662,129.666c0.879,0.499,1.355,1.58,2.608,3.251c1.259,1.672,1.257,1.834,3.099,3.594
		c1.851,1.757,3.603,2.689,5.247,4.105c1.661,1.426,2.146,1.429,2.433,2.759c0.273,1.33-0.111,1.248,1.053,1.915
		c1.173,0.674,1.172,0.345,2.252,0.021c1.077-0.324,2.85-1.72,4.315-1.956c1.469-0.237,2.742-0.229,2.742-0.229s0,0-0.094-0.247
		c-0.101-0.252,1.475-0.402,1.475-0.402c1.166,0.096,1.655,0.018,1.655,0.018s0,0-0.092-0.336c-0.098-0.334,0.495-0.328,0.495-0.328
		c1.368,0.182,2.048,0.016,2.048,0.016c-0.291-0.247,0.689-0.406,0.689-0.406c0.877,0.172,1.368,0.012,1.368,0.012s0,0-0.194-0.252
		c-0.189-0.248,0.199-0.329,0.199-0.329c0.976,0.258,1.663-0.234,1.663-0.234c-0.385-0.501,0.786-0.325,0.786-0.325
		c1.268,0.342,1.76-0.073,1.76-0.073c-0.288-0.08-0.19-0.741-0.19-0.741c1.176,0.341,2.64,0.186,2.64,0.186s0,0-0.384-0.169
		c-0.39-0.172,0.19-0.581,0.19-0.581c0.788,0.089,1.861-0.147,1.861-0.147s0,0-0.286-0.17c-0.294-0.169-0.1-0.415-0.1-0.415
		c1.179,0.091,1.671-0.234,1.671-0.234c-0.3-0.337,0.107-0.75,0.107-0.75c0.972,0.26,1.949-0.063,1.949-0.063
		c-0.39-0.252,0.009-0.579,0.009-0.579c1.462,0.254,1.464-0.405,1.464-0.405c-0.386-0.173,0.11-0.911,0.11-0.911
		c1.655,0.346,2.837-0.473,2.837-0.473c-0.774-0.26-0.476-0.916-0.476-0.916c2.049,0.013,2.739-0.809,2.739-0.809
		c-0.587-0.174-0.091-0.83-0.091-0.83c1.758,0.014,1.861-0.484,1.861-0.484c-0.587-0.169-0.287-0.91-0.287-0.91
		c1.949,0.262,1.964-0.566,1.964-0.566c-0.877-0.341,0.3-0.746,0.3-0.746c1.95,0.104,2.254-0.558,2.254-0.558
		c-0.783-0.172-0.288-0.919-0.288-0.919c1.563,0.259,2.252-0.646,2.252-0.646c-0.482-0.255-0.087-0.743-0.087-0.743
		c1.566-0.15,1.469-0.567,1.469-0.567c-0.582-0.176-0.087-0.665-0.087-0.665c2.05,0.011,2.543-0.897,2.543-0.897
		c-0.684-0.332-0.576-0.67-0.576-0.67c1.471,0.104,2.051-0.638,2.051-0.638c-0.582-0.089-0.377-0.755-0.377-0.755
		c1.76,0.014,1.963-0.645,1.963-0.645c-0.784-0.008-0.092-1-0.092-1c1.566-0.151,1.475-0.736,1.475-0.736
		c-0.487-0.084-0.48-0.669-0.48-0.669c1.469-0.065,2.253-1.133,2.253-1.133c-0.884-0.093-0.879-0.666-0.879-0.666
		c1.673-0.245,2.164-0.736,2.164-0.736c-0.884-0.175-0.099-0.912-0.099-0.912c2.064-0.237,2.066-0.896,2.066-0.896
		c-0.681-0.091-0.383-0.919-0.383-0.919c1.762-0.07,2.064-1.312,2.064-1.312c-0.781-0.086-0.29-0.826-0.29-0.826
		c1.079-0.073,1.772-0.735,1.772-0.735c-0.584-0.248-0.683-0.67-0.683-0.67c1.376-0.149,2.164-1.641,2.164-1.641
		c-0.977-0.088-0.382-0.998-0.382-0.998c1.468-0.073,1.67-0.896,1.67-0.896c-1.176,0.157-0.187-1.164-0.187-1.164
		c1.763-0.232,1.772-1.227,1.772-1.227c-0.784-0.006-0.58-1.086-0.58-1.086c1.867-0.813,1.476-1.642,1.476-1.642
		c-0.68,0.154-0.673-0.753-0.673-0.753c1.669-0.734,2.375-2.554,2.375-2.554c-0.597,0.244-1.469-0.422-1.469-0.422
		c2.345-0.567,2.077-2.141,2.077-2.141c-0.888,0.405-1.469-0.429-1.469-0.429c2.152-0.899,2.364-2.388,2.364-2.388
		c-1.074,0.075-1.55-0.76-1.55-0.76c1.95-0.399,2.454-2.216,2.454-2.216c-0.784,0.155-1.363-0.764-1.363-0.764
		c1.767-0.645,1.781-2.307,1.781-2.307c-0.783,0.408-1.465-0.593-1.465-0.593c1.576-0.813,1.103-2.392,1.103-2.392
		c-0.892,0.405-1.272-0.592-1.272-0.592c1.28-0.985,1.294-2.229,1.294-2.229c-0.988,0.652-1.268-0.678-1.268-0.678
		c1.173-1.15,0.506-2.4,0.506-2.4c-0.785,0.33-1.458-0.506-1.458-0.506c0.984-0.992,0.696-2.318,0.696-2.318
		c-1.176,0.652-1.652-0.76-1.652-0.76c0.987-1.072,0.506-2.65,0.506-2.65c-0.78,0.74-1.364-0.258-1.364-0.258
		c0.598-0.664,1.002-2.983,1.002-2.983c-0.49,0.665-1.661-0.011-1.661-0.011c1.091-1.484,0.122-2.652,0.122-2.652
		c-0.498,0.494-1.661,0.068-1.661,0.068c0.788-1.074,0.313-2.816,0.313-2.816c-0.392,0.243-1.662-0.01-1.662-0.01
		c1.196-1.651,0.318-2.659,0.318-2.659c-0.294,0.333-1.273,0.073-1.273,0.073c0.792-1.15,0.307-2.402,0.307-2.402
		c-0.88,0.661-1.557,0.154-1.557,0.154c0.689-0.902,0.017-2.488,0.017-2.488c-0.297,0.58-0.981-0.092-0.981-0.092
		c0.502-1.152-0.265-2.574-0.265-2.574c-0.4,0.582-1.082,0.08-1.082,0.08c0.795-0.907-0.17-2.493-0.17-2.493
		c-0.399,0.496-1.277,0.073-1.277,0.073c0.695-1.07,0.124-2.486,0.124-2.486c-0.306,0.574-1.373,0.153-1.373,0.153
		c0.79-0.989-0.077-2.568-0.077-2.568c-0.197,0.493-1.563,0.313-1.563,0.313c0.588-0.823-0.075-3.066-0.075-3.066
		c-0.305,0.741-1.767,0.483-1.767,0.483c0.69-0.824-0.177-2.241-0.177-2.241c-0.393,0.414-1.565-0.1-1.565-0.1
		c0.596-0.738,0.223-2.4,0.223-2.4c-0.503,0.576-1.568-0.096-1.568-0.096c0.493-0.823,0.316-2.902,0.316-2.902
		c-0.494,0.496-1.595,0.401-1.595,0.401c0.622-0.627,0.885-2.523,0.885-2.523c-0.499,0.526-1.609,0.097-1.609,0.097
		c1-1.258,0.645-3.156,0.645-3.156c-0.749,0.521-1.368-0.115-1.368-0.115c1.003-1.043,1.643-3.15,1.643-3.15
		c-0.873,0.734-1.86-0.539-1.86-0.539c0.88-0.832,1.26-2.623,1.26-2.623c-0.745,0.734-1.589,0.289-1.589,0.289
		c0.132-0.846-0.254-2.41-0.254-2.41c-1.612,0.854-2.045,1.555-2.045,1.555s-0.761,0.182-1.241-1.068c0,0-0.793,1.076-1.094,2.564
		c0,0-1.475,0.238-1.565-0.265c0,0-0.396,0.74-0.309,2.151c0,0-1.28,0.904-1.663,0.07c0,0-0.201,0.824-0.309,1.989
		c0,0-1.271-0.177-1.56-0.759c0,0-1.477,1.314-1.294,2.643c0,0-0.69,0.656-1.077-0.34c0,0-1.374,0.821-1.675,2.225
		c0,0-0.982,0.492-1.272-0.34c0,0-1.666,0.567-1.876,1.973c0,0-0.387-0.414-0.178-1.409c0,0-2.745,0.974-3.051,2.462
		c0,0,0.003-0.994,0.306-1.488c0,0-2.951,1.301-3.351,2.539c0,0-0.973-0.75,0.018-1.655c0,0-4.524,2.616-4.534,4.026
		c0,0-0.091-1.248,0.502-1.906c0,0-3.331,1.469-3.644,3.289c0,0-0.968-0.918-0.38-1.827c0,0-2.456,1.971-3.051,3.289
		c0,0-1.078,0.081-0.487-1c0,0-2.455,1.893-2.861,3.545c0,0-1.07-0.337-1.165-1.169c0,0-1.478,1.48-1.779,2.891
		c0,0-1.086,0.238-1.365-0.761c0,0-1.674,1.394-1.392,3.056c0,0-1.472-0.008-1.656-0.926c0,0-1.478,1.483-1.005,2.73
		c0,0-1.561,0.07-1.66-0.929c0,0-1.469,1.401-1.285,2.647c0,0-0.986,0.739-1.662-0.344c0,0-1.662,0.484-1.676,2.223
		c0,0-0.695,0.575-1.471-0.26c0,0-0.599,1.073-0.799,2.316c0,0-0.887,0.571-1.365-0.345c0,0-1.868,1.231-1.583,2.642
		c0,0-0.794,1.32-1.473,0.402c0,0-0.892,0.904-0.606,2.401c0,0-0.596,0.737-1.174-0.261c0,0-0.695,1.156-0.414,2.654
		c0,0-0.492,0.33-1.166-0.51c0,0-1.184,0.9-0.709,2.479c0,0-0.587,0.577-0.979,0.077c0,0-1.088,1.4-0.807,2.732
		c0,0-0.102,0.824-0.777-0.174c0,0-0.979,0.656-0.61,2.564c0,0-0.003,0.658-0.782,0.158c0,0-1.376,0.984-0.708,2.733
		c0,0,0.097,0.582-0.876-0.255c0,0-1.77,0.896-1,2.891c0,0-0.203,0.746-0.785-0.006c0,0-0.994,1.818-0.518,3.4
		c0,0-0.59,0.575-1.074-0.257c0,0-0.31,2.235,0.367,3.236c0,0-1.081,0.57-1.367-0.01c0,0-0.408,1.654,0.66,3.155
		c0,0-0.4,0.658-0.984-0.09c0,0-0.303,1.492,0.664,2.737c0,0-0.205,0.747-0.98,0.246c0,0,0.09,1.327,1.352,2.249
		c0,0,0.088,1.076-0.885,0.657c0,0-0.209,0.908,1.059,1.832c0,0-0.102,1.245-0.979,0.738c0,0,0.085,1.498,1.443,2.252
		c0,0-0.3,0.825-1.177,0.57c0,0,0.579,1.165,1.553,1.753c0,0-0.008,1.161-0.982,0.741c0,0,0.573,0.833,1.65,1.587
		c0,0,0.186,0.995-0.984,0.57c0,0,0.576,0.922,1.548,1.504c0,0,0.963,1.671-0.497,1.413c0,0-0.002,0.576,1.256,1.582
		c0,0-0.203,0.745-0.789,0.663c0,0,0.574,1.162,1.355,1.584c0,0-0.006,0.995-0.592,0.74c0,0,0.677,1.248,1.844,1.84
		c0,0-0.1,0.499-0.885,0.324c0,0,0.582,1.165,1.458,1.672c0,0-0.106,0.662-0.79,0.494c0,0,0.191,0.579,1.553,1.584
		c0,0-0.395,0.74-0.881,0.577c0,0,0.379,0.911,1.74,1.92c0,0-0.881,0.157-1.273-0.015c0,0,0.389,0.917,2.039,2.1
		c0,0-0.2,0.734-0.785,0.405c0,0,0.871,1.332,2.233,2.091c0,0,0.192,0.334-0.493,0.159c0,0,0.381,1.165,1.156,1.663
		c0,0,0.191,0.666-0.198,0.668c0,0,0.483,0.253,1.75,1.256l-0.585,0.242c0,0,0.573,1.086,1.742,1.758c0,0-0.1,0.332-0.485,0.33
		C34.112,128.324,34.49,128.993,35.662,129.666z"/>
	
		<radialGradient id="SVGID_2_" cx="-1598.8306" cy="1150.6465" r="28.5722" gradientTransform="matrix(-0.0097 1.1697 -1.3792 -0.0114 1623.2578 2029.1572)" gradientUnits="userSpaceOnUse">
		<stop  offset="0" style="stop-color:#D69729"/>
		<stop  offset="0.6656" style="stop-color:#AE5837"/>
		<stop  offset="0.9697" style="stop-color:#9D3938"/>
	</radialGradient>
	<path fill="url(#SVGID_2_)" d="M28.354,176.001c0,0-0.378,0.741,0.362,1.063c0.752,0.318,1.366,1.285,1.985,1.715
		c0.621,0.422,0.76-0.528,1.259-1.27c0.507-0.731,3.044-5.16,6.687-7.884c3.642-2.72,7.688-8.62,9.602-13.372
		c1.91-4.744,3.325-9.716,3.59-11.406c0,0-0.743-0.533-1.746-0.436l-0.618-0.432c0,0-0.257,0.316,0.112,1.062
		c0.373,0.746,0.117,1.588-0.406,3.49c-0.512,1.898-2.803,6.857-3.691,8.863c-0.891,2.008-4.184,7.483-6.315,9.167
		c-2.141,1.671-5.167,5.035-6.55,6.4C31.233,174.328,29.23,175.483,28.354,176.001z"/>
	<path fill="#E29025" d="M51.527,144.474c0,0,2.367-1.849,4.573-2.698c2.205-0.851,6.319-1.815,10.14-2.527
		c3.82-0.719,8.396-3.915,8.396-3.915c-2.504,1.102-6.184,2.565-8.975,3.039c-2.788,0.472-8.088,2.172-9.404,2.407
		c-0.977,0.182-2.836,1.02-3.748,1.456c0.323-0.764,0.671-1.646,1.04-2.567c1.42-0.901,4.137-2.217,6.847-2.961
		c3.087-0.843,11.463-2.89,15.734-4.347c4.263-1.459,12.368-5.374,12.368-5.374c-0.745,0.373-10.162,4.028-12.657,4.622
		c-2.499,0.605-13.089,3.628-15.737,4.106c-2.049,0.367-4.814,1.785-5.952,2.393c0.61-1.587,1.227-3.227,1.732-4.652
		c0.6-0.334,1.407-0.694,2.636-1.116c2.51-0.848,2.508-1.219,9.563-3.031c7.052-1.806,12.356-4.001,18.097-6.068
		c5.739-2.066,17.389-9.937,17.389-9.937c-2.948,1.969-11.938,6.621-17.24,8.938c-5.3,2.321-17.058,5.708-21.176,6.667
		c-3.228,0.755-7.17,2.343-8.728,2.993c0.134-0.394,0.251-0.753,0.352-1.068c0.154-0.501,0.402-1.235,0.71-2.134
		c2.488-1.366,7.203-3.748,12.553-5.595c6.327-2.188,19.283-8.05,26.056-11.108c6.771-3.05,14.762-11.448,14.762-11.448
		c-2.371,2.346-10.626,8.378-14.895,10.333c-4.279,1.95-21.205,9.15-24.15,10.369c-2.938,1.226-7.202,2.68-10.003,4.026
		c-1.771,0.854-3.068,1.506-3.782,1.871c0.569-1.627,1.262-3.565,1.979-5.574c0.757-0.63,1.773-1.322,3.905-2.255
		c3.091-1.341,8.984-4.403,14.578-6.594c5.594-2.193,13.545-6.233,21.511-11.021c5.514-3.313,10.473-8.483,13.005-11.353
		c-2.931,2.986-7.999,6.826-10.936,8.885c-3.688,2.574-16.911,9.615-20.628,11.025c-5.444,2.072-13.399,5.736-15.752,6.961
		c-1.955,1.015-3.928,1.9-4.973,2.357c0.981-2.728,1.957-5.413,2.693-7.454c3.706-0.682,8.464-3.571,25.896-12.5
		c18.409-9.427,24.691-23.559,24.691-23.559s-5.678,11.769-25.124,22.436c-18.612,10.199-23.554,11.834-24.855,11.962
		c0.095-0.256,0.187-0.497,0.264-0.72c0.375-1.011,1.033-2.871,1.835-5.164c4.021-0.626,12.438-5.272,26.942-15.746
		c15.491-11.195,16.33-23.631,16.33-23.631s-1.111,10.691-17.203,22.628c-18.398,13.645-23.933,15.146-25.502,15.111
		c0.734-2.079,1.537-4.402,2.34-6.729c4.71-2.709,15.565-10.189,24.576-19.942c8.697-9.409,10.126-21.596,10.3-23.531
		c-0.166,1.715-1.523,11.331-11.319,22.408c-9.502,10.757-20.335,17.453-22.805,18.909c1.616-4.679,3.125-9.058,3.818-11.108
		c0.347-1.014,1.01-2.964,1.854-5.461c22.688-16.385,24.125-31.271,24.125-31.271c-4.045,15.432-20.607,26.847-23.207,28.56
		c2.304-6.788,5.44-15.993,7.705-22.31c5.246-1.873,11.603-13.744,11.603-13.744C88.123,49.992,85.4,50.418,84.836,50.352
		c0.633-1.725,1.159-3.105,1.533-3.995c2.395-5.702,6.474-20.226,6.474-20.226c-1.185,1.73-7.353,19.845-7.353,19.845
		c-0.361,0.698-2.527,6.739-5.027,13.822c-3.664-1.142-1.944-22.342-1.944-22.342c-4.007,17.112,0.04,22.763,1.345,24.071
		c-2.691,7.621-5.613,16.019-7.031,20.146c-1.117-0.607-3.067-3.803-4.507-17.178c-1.913-17.681,3.854-23.11,3.854-23.11
		s-6.646,5.169-5.176,23.349c1.092,13.552,3.887,17.502,5.246,18.635c-0.137,0.404-0.23,0.686-0.277,0.809
		c-0.184,0.564-1.483,4.197-3.221,9.037c-2.125-2.82-5.576-14.5-7.774-26.916c-2.382-13.45,2.371-21.504,2.371-21.504
		s-6.21,6.17-3.845,21.869c2.691,17.861,7.156,25.93,8.646,28.217c-0.744,2.064-1.551,4.291-2.366,6.566
		c-1.518-0.686-5.31-5.073-10.477-23.619c-5.843-20.955-1.401-26.268-1.401-26.268s-6.771,2.809,0.075,26.5
		c5.514,19.056,9.704,24.016,11.138,25.231c-0.826,2.3-1.658,4.602-2.444,6.781c-1.108-0.829-3.003-3.102-4.796-5.853
		c-2.463-3.752-7.229-13.371-8.376-16.617c-1.148-3.24-2.268-8.73-4.56-15.965c-2.288-7.234,0.411-14.675,0.411-14.675
		c-1.48,1.856-2.691,5.948-2.575,10.308c0.114,4.356,2.976,12.961,4.692,18.328c1.713,5.359,5.176,12.106,8.358,17.979
		c2.351,4.353,5.039,6.995,6.272,8.078c-1.257,3.491-2.362,6.566-3.105,8.66c-1.163-1.046-3.427-4.768-5.154-7.551
		c-2.168-3.498-6.516-10.252-8.828-14.247c-2.32-4.009-5.787-9.508-7.937-16.365C34.937,75.291,35.908,64.6,35.908,64.6
		s-1.4,9.199,0.004,16.297c1.415,7.105,5.188,12.237,7.059,16.104c1.874,3.88,7.521,13.258,9.838,16.628
		c1.875,2.741,4.513,7.192,5.451,8.791c-0.137,0.371-0.218,0.613-0.245,0.717c-0.056,0.173-0.181,0.505-0.354,0.962
		c-0.675-0.724-1.819-2.633-3.293-4.109c-1.74-1.759-6.978-7.396-9.015-10.272c-2.024-2.883-10.006-13.027-12.76-17.399
		c-2.748-4.376-5.761-12.486-5.761-12.486s1.845,7.229,3.144,9.353c1.307,2.127,5.508,8.754,8.983,14.009
		c3.481,5.253,10.026,11.78,12.784,15.282c2.088,2.659,4.344,5.818,5.309,7.187c-0.556,1.416-1.271,3.224-1.994,5.039
		c-0.48-0.741-1.202-1.705-2.219-2.758c-2.183-2.26-5.966-6.148-7.998-8.901c-2.027-2.753-8.132-10.022-11.766-14.032
		c-3.636-4.01-7.818-12.257-7.818-12.257s1.154,2.622,3.75,7.496c2.602,4.873,5.664,7.392,9.58,12.646
		c3.916,5.258,9.866,12.521,12.924,15.657c1.575,1.612,2.406,2.979,2.845,3.935c-1.058,2.699-1.979,5.115-2.165,5.877
		c-0.331-0.521-0.852-1.134-1.472-1.985c-1.021-1.371-3.774-5.376-5.376-7.134c-1.6-1.752-6.537-7.64-8.854-10.767
		c-2.328-3.135-6.682-8.149-6.682-8.149s2.029,2.882,3.331,5.006c1.303,2.125,4.93,6.637,6.385,8.398
		c1.45,1.746,6.974,8.26,8.565,10.764c1.148,1.804,2.825,4.709,3.663,6.193c-0.353,1.697-0.815,3.656-0.815,3.656L51.527,144.474z"
		/>
</g>
</svg>
