<?xml version="1.0" encoding="utf-8"?>
<!-- Generator: Adobe Illustrator 16.0.0, SVG Export Plug-In . SVG Version: 6.00 Build 0)  -->
<!DOCTYPE svg PUBLIC "-//W3C//DTD SVG 1.1//EN" "http://www.w3.org/Graphics/SVG/1.1/DTD/svg11.dtd">
<svg version="1.1" id="Layer_1" xmlns="http://www.w3.org/2000/svg" xmlns:xlink="http://www.w3.org/1999/xlink" x="0px" y="0px"
	 width="250px" height="188.85px" viewBox="0 0 250 188.85" enable-background="new 0 0 250 188.85" xml:space="preserve">
<g>
	
		<linearGradient id="SVGID_1_" gradientUnits="userSpaceOnUse" x1="217.7471" y1="685.8716" x2="240.7764" y2="685.8716" gradientTransform="matrix(-0.9277 0.3734 -0.3734 -0.9277 529.9176 693.3727)">
		<stop  offset="0" style="stop-color:#FDF05B"/>
		<stop  offset="0.191" style="stop-color:#FDE856"/>
		<stop  offset="0.5025" style="stop-color:#FBD648"/>
		<stop  offset="0.8935" style="stop-color:#F9BA34"/>
		<stop  offset="1" style="stop-color:#F8B22F"/>
	</linearGradient>
	<path fill="url(#SVGID_1_)" d="M49.111,110.338c1.361-1.304,3.676-1.125,5.419-0.783c1.92,0.378,3.775,1.226,5.219,2.538
		c3.24,2.94,4.425,7.251,5.596,11.366c2.807,9.863,6.875,19.513,9.369,29.438c0.946,3.761,1.247,7.384,1.547,11.227
		c0.126,1.633,0.197,3.281,0.421,4.883c0.207,1.5,0.733,3.094,0.626,4.618c-0.805-1.938-2.211-3.78-3.434-5.509
		c-1.256-1.772-2.388-3.735-3.888-5.319c-1.312-1.389-2.966-2.486-4.359-3.711c-1.456-1.279-2.733-2.784-3.946-4.219
		c-1.245-1.474-2.495-3.222-3.923-4.731c-1.417-1.5-2.934-2.616-3.963-4.412c-1.043-1.817-2.017-3.451-3.366-5.062
		c-1.405-1.68-3.066-3.304-4.248-5.116c-2.55-3.917-2.975-7.979-2.949-12.605c0.012-2.104,0.332-4.035,0.886-6.087
		c0.461-1.719,1.529-4.181,2.862-5.357c0.436-0.385,1.408-0.73,1.71-0.852L49.111,110.338z"/>
	
		<linearGradient id="SVGID_2_" gradientUnits="userSpaceOnUse" x1="172.1992" y1="669.3022" x2="205.2012" y2="669.3022" gradientTransform="matrix(-0.9277 0.3734 -0.3734 -0.9277 529.9176 693.3727)">
		<stop  offset="0" style="stop-color:#FDF05B"/>
		<stop  offset="0.191" style="stop-color:#FDE856"/>
		<stop  offset="0.5025" style="stop-color:#FBD648"/>
		<stop  offset="0.8935" style="stop-color:#F9BA34"/>
		<stop  offset="1" style="stop-color:#F8B22F"/>
	</linearGradient>
	<path fill="url(#SVGID_2_)" d="M133.925,178.594c-4.534-2.25-5.382-7.811-6.244-12.104c-0.406-2.019-0.559-4.062-1.091-6.104
		c-0.524-2.013-1.71-3.896-2.248-5.922c-1.227-4.603-1.678-9.368-3.158-13.984c-1.658-5.18-3.41-10.41-5.773-15.353
		c-2.079-4.35-4.513-7.764-8.043-11.067c-3.096-2.894-6.637-5.829-10.118-8.184c-3.463-2.345-7.301-2.557-11.213-2.241
		c-2.16,0.175-3.348,0.688-4.476,2.62c-0.974,1.669-1.359,3.234-1.255,5.182c0.235,4.423,0.146,8.738,0.753,13.075
		c0.31,2.212,0.725,4.265,1.328,6.429c0.56,2.003,1.894,3.683,2.88,5.531c2,3.752,3.625,8.018,6.116,11.462
		c2.355,3.259,5.186,5.975,8.152,8.733c3.063,2.85,6.821,4.89,10.167,7.269c3.377,2.405,6.662,4.692,10.243,6.807
		c4.575,2.701,8.219,6.411,13.414,7.807L133.925,178.594z"/>
	
		<linearGradient id="SVGID_3_" gradientUnits="userSpaceOnUse" x1="172.3496" y1="749.8081" x2="227.4395" y2="749.8081" gradientTransform="matrix(-0.9277 0.3734 -0.3734 -0.9277 529.9176 693.3727)">
		<stop  offset="0" style="stop-color:#FDF05B"/>
		<stop  offset="0.191" style="stop-color:#FDE856"/>
		<stop  offset="0.5025" style="stop-color:#FBD648"/>
		<stop  offset="0.8935" style="stop-color:#F9BA34"/>
		<stop  offset="1" style="stop-color:#F8B22F"/>
	</linearGradient>
	<path fill="url(#SVGID_3_)" d="M80.045,37.272c-0.006,0.94-0.688,2.007-0.889,2.951c-0.303,1.407-0.76,2.747-1.166,4.156
		c-0.595,2.061-1.031,4.244-1.284,6.387c-0.265,2.229-0.485,4.454-0.719,6.705c-0.204,1.981-0.07,4.004-0.607,5.941
		c-1.081,3.876-2.585,7.64-3.634,11.496c-1.109,4.086-2.075,8.192-3.589,12.203c-1.516,4.01-2.476,8.183-4.948,11.716
		c-1.06,1.512-2.065,3.27-3.621,4.299c-1.582,1.046-3.593,1.369-5.476,1.657c-1.44,0.221-3.718,0.353-5.088-0.41
		c-1.574-0.875-2.823-3.636-3.536-5.411c-1.509-3.763-2.05-7.498-0.913-11.683c0.626-2.302,1.758-4.474,2.397-6.769
		c0.575-2.06,1.031-4.098,2.075-6.016c2.031-3.737,5.296-6.518,8.091-9.677c2.715-3.067,4.915-6.446,7.67-9.438
		c1.276-1.389,2.811-2.676,4.136-4.051c1.318-1.364,2.378-2.798,3.562-4.301c1.244-1.585,2.781-2.866,3.944-4.456
		c0.463-0.632,3.202-4.25,3.127-4.433L80.045,37.272z"/>
	
		<linearGradient id="SVGID_4_" gradientUnits="userSpaceOnUse" x1="130.6816" y1="751.1987" x2="195.2871" y2="751.1987" gradientTransform="matrix(-0.9277 0.3734 -0.3734 -0.9277 529.9176 693.3727)">
		<stop  offset="0" style="stop-color:#FDF05B"/>
		<stop  offset="0.191" style="stop-color:#FDE856"/>
		<stop  offset="0.5025" style="stop-color:#FBD648"/>
		<stop  offset="0.8935" style="stop-color:#F9BA34"/>
		<stop  offset="1" style="stop-color:#F8B22F"/>
	</linearGradient>
	<path fill="url(#SVGID_4_)" d="M115.39,13.489c-0.378,4.42-1.88,8.763-1.768,13.163c0.052,2.025,0.642,3.869,0.563,5.895
		c-0.075,1.941-0.031,3.768-0.013,5.733c0.049,4.941-0.396,9.906-0.95,14.853c-0.523,4.657-0.843,9.474-1.946,13.998
		c-1.065,4.361-2.697,8.66-4.359,12.812c-1.38,3.442-3.201,7.471-5.863,10.207c-2.758,2.832-5.518,4.962-9.074,6.621
		c-1.669,0.779-3.56,1.322-5.334,2.01c-1.73,0.673-3.797,0.813-5.415,1.646c-1.363-1.035-1.911-4.058-2.332-5.626
		c-0.557-2.082-0.791-4.233-1.214-6.337c-0.777-3.85-0.806-8.624-0.26-12.592c0.632-4.604,1.97-9.075,3.275-13.474
		c1.248-4.208,3.909-8.058,5.761-11.975c1.845-3.901,4.195-7.458,6.98-10.657c2.603-2.988,5.893-5.437,8.9-7.889
		c2.74-2.237,5.28-5.166,7.581-7.969c1.135-1.377,1.765-2.849,2.498-4.481C113.159,17.787,115.39,13.489,115.39,13.489z"/>
	
		<linearGradient id="SVGID_5_" gradientUnits="userSpaceOnUse" x1="76.9834" y1="736.4048" x2="152.1934" y2="736.4048" gradientTransform="matrix(-0.9277 0.3734 -0.3734 -0.9277 529.9176 693.3727)">
		<stop  offset="0" style="stop-color:#FDF05B"/>
		<stop  offset="0.191" style="stop-color:#FDE856"/>
		<stop  offset="0.5025" style="stop-color:#FBD648"/>
		<stop  offset="0.8935" style="stop-color:#F9BA34"/>
		<stop  offset="1" style="stop-color:#F8B22F"/>
	</linearGradient>
	<path fill="url(#SVGID_5_)" d="M172.062,10.472c-1.536,1.046-2.65,3.739-3.245,5.433c-0.731,2.091-1.49,4.361-1.85,6.585
		c-0.726,4.479-1.103,8.914-1.698,13.411c-0.575,4.336-1.121,8.811-1.932,13.173c-0.899,4.836-2.913,9.654-4.668,14.271
		c-1.524,4.019-3.543,7.859-5.706,11.603c-2.233,3.867-4.106,7.434-7.353,10.579c-3.126,3.025-6.553,4.607-10.701,5.986
		c-1.854,0.615-4.021,0.937-6.021,0.884c-1.82-0.05-4.09,0.031-5.237-1.408c-1.362-1.707-1.335-3.633-1.587-5.644
		c-0.247-1.977-0.379-3.962-0.088-5.972c0.57-3.976,1.618-8.158,2.918-11.987c0.621-1.828,1.111-3.754,1.911-5.529
		c0.849-1.883,2.038-3.632,3.124-5.383c0.988-1.593,2.385-2.877,3.504-4.338c1.182-1.548,2.254-3.151,3.446-4.665
		c2.535-3.215,4.983-6.255,7.787-9.144c2.805-2.889,5.747-5.438,8.704-8.146c2.812-2.572,5.597-5.268,8.474-7.707
		c2.646-2.241,4.996-5.333,6.79-8.399C170.228,11.347,172.062,10.472,172.062,10.472z"/>
	
		<linearGradient id="SVGID_6_" gradientUnits="userSpaceOnUse" x1="111.4307" y1="661.9038" x2="156.1348" y2="661.9038" gradientTransform="matrix(-0.9277 0.3734 -0.3734 -0.9277 529.9176 693.3727)">
		<stop  offset="0" style="stop-color:#FDF05B"/>
		<stop  offset="0.191" style="stop-color:#FDE856"/>
		<stop  offset="0.5025" style="stop-color:#FBD648"/>
		<stop  offset="0.8935" style="stop-color:#F9BA34"/>
		<stop  offset="1" style="stop-color:#F8B22F"/>
	</linearGradient>
	<path fill="url(#SVGID_6_)" d="M195.576,161.152c-0.582-0.929-1.639-1.65-2.304-2.589c-0.747-1.054-1.434-2.192-2.114-3.279
		c-1.143-1.824-2.053-3.802-2.986-5.763c-1.872-3.926-3.747-7.934-5.394-12.026c-3.697-9.183-8.784-17.243-15.734-24.247
		c-5.991-6.039-11.589-12.947-19.885-15.992c-3.694-1.355-7.749-2.766-11.672-3.224c-1.953-0.229-3.898,0.297-5.717,0.629
		c-1.021,0.187-1.943,0.468-2.961,0.79c-1.139,0.362-1.658,0.307-1.709,1.605c-0.325,8.361,2.346,16.616,6.978,23.718
		c2.024,3.105,5.178,5.981,7.975,8.522c3.273,2.974,6.369,5.947,10.22,8.174c3.729,2.156,8.062,4.171,12.086,5.686
		c2.035,0.764,4.044,1.385,6.09,2.154c1.948,0.733,3.748,1.76,5.635,2.541c3.712,1.536,7.672,2.948,11.063,5.112
		c3.021,1.926,5.274,4.745,8.306,6.559c0.388,0.233,1.021,0.622,1.016,0.574L195.576,161.152z"/>
	
		<linearGradient id="SVGID_7_" gradientUnits="userSpaceOnUse" x1="32.4043" y1="695.3862" x2="135.5391" y2="695.3862" gradientTransform="matrix(-0.9277 0.3734 -0.3734 -0.9277 529.9176 693.3727)">
		<stop  offset="0" style="stop-color:#FDF05B"/>
		<stop  offset="0.191" style="stop-color:#FDE856"/>
		<stop  offset="0.5025" style="stop-color:#FBD648"/>
		<stop  offset="0.8935" style="stop-color:#F9BA34"/>
		<stop  offset="1" style="stop-color:#F8B22F"/>
	</linearGradient>
	<path fill="url(#SVGID_7_)" d="M232.824,73.902c-3.99-0.154-7.886-1.071-11.827-1.921c-4.899-1.059-9.826-2.027-14.793-2.795
		c-4.784-0.736-9.735-0.646-14.559-1.233c-9.292-1.131-17.492,0.148-25.937,4.056c-7.735,3.578-14.571,8.815-20.327,14.979
		c-1.122,1.201-2.713,2.612-3.429,4.106c-0.502,1.046-0.075,1.375,1.012,1.845c0.875,0.379,1.721,0.634,2.56,1.091
		c3.961,2.167,7.863,4.21,12.22,5.354c8.929,2.345,18.215,2.459,27.093,0.829c4.215-0.775,8.121-2.391,12.124-4.059
		c4.226-1.76,8.109-3.419,12.131-5.561c8.104-4.321,15.134-10.457,24.169-12.872c3.886-1.039,8.845-3.698,11.32-6.47
		C244.581,71.251,236.602,74.051,232.824,73.902z"/>
	
		<linearGradient id="SVGID_8_" gradientUnits="userSpaceOnUse" x1="225.1602" y1="685.7358" x2="240.7764" y2="685.7358" gradientTransform="matrix(-0.9277 0.3734 -0.3734 -0.9277 529.9176 693.3727)">
		<stop  offset="0" style="stop-color:#F8B22F"/>
		<stop  offset="0.1065" style="stop-color:#F9BA34"/>
		<stop  offset="0.4975" style="stop-color:#FBD648"/>
		<stop  offset="0.809" style="stop-color:#FDE856"/>
		<stop  offset="1" style="stop-color:#FDF05B"/>
	</linearGradient>
	<path fill="url(#SVGID_8_)" d="M46.181,135.546c1.182,1.813,2.843,3.437,4.248,5.116c1.35,1.61,2.323,3.244,3.366,5.062
		c1.029,1.796,2.546,2.912,3.963,4.412c1.428,1.51,2.678,3.258,3.923,4.731c1.213,1.435,2.49,2.939,3.946,4.219
		c1.394,1.225,3.048,2.322,4.359,3.711c1.5,1.584,2.632,3.547,3.888,5.319c1.205,1.705,2.585,3.523,3.397,5.433
		c-0.457-1.479-0.839-2.747-0.937-3.146c-0.287-1.161-1.516-4.671-1.956-5.768c-0.442-1.096-2.713-6.736-4.172-9.248
		c-1.457-2.513-4.651-9.956-5.786-12.774c-1.134-2.819-5.292-11.342-7.057-15.727c-1.766-4.386-2.427-5.576-4.189-8.144
		c-1.483-2.165-3.793-6.059-4.879-7.942c-0.419,0.168-1.005,0.422-1.316,0.696c-1.333,1.177-2.401,3.639-2.862,5.357
		c-0.554,2.052-0.874,3.982-0.886,6.087C43.206,127.568,43.631,131.629,46.181,135.546z"/>
	
		<linearGradient id="SVGID_9_" gradientUnits="userSpaceOnUse" x1="175.6406" y1="669.3608" x2="205.2012" y2="669.3608" gradientTransform="matrix(-0.9277 0.3734 -0.3734 -0.9277 529.9176 693.3727)">
		<stop  offset="0" style="stop-color:#F8B22F"/>
		<stop  offset="0.1065" style="stop-color:#F9BA34"/>
		<stop  offset="0.4975" style="stop-color:#FBD648"/>
		<stop  offset="0.809" style="stop-color:#FDE856"/>
		<stop  offset="1" style="stop-color:#FDF05B"/>
	</linearGradient>
	<path fill="url(#SVGID_9_)" d="M91.383,147.933c2.355,3.259,5.186,5.975,8.152,8.733c3.063,2.85,6.821,4.89,10.167,7.269
		c3.377,2.405,6.662,4.692,10.243,6.807c4.575,2.701,8.219,6.411,13.414,7.807c-1.224-0.444-2.92-1.711-4.334-2.962
		c-1.413-1.25-1.729-2.033-3.111-3.663c-1.383-1.626-5.188-7.011-7.563-9.895c-2.373-2.883-6.84-9.608-8.886-12.428
		c-2.042-2.817-7.554-13.342-9.664-17.226c-2.108-3.884-6.519-13.029-9.16-16.88c-2.638-3.847-6.437-9.22-7.668-10.921
		c-0.516,0.387-0.969,0.921-1.412,1.68c-0.974,1.669-1.359,3.234-1.255,5.182c0.235,4.423,0.146,8.738,0.753,13.075
		c0.31,2.212,0.725,4.265,1.328,6.429c0.56,2.003,1.894,3.683,2.88,5.531C87.267,140.223,88.892,144.489,91.383,147.933z"/>
	
		<linearGradient id="SVGID_10_" gradientUnits="userSpaceOnUse" x1="111.4307" y1="661.9038" x2="156.1348" y2="661.9038" gradientTransform="matrix(-0.9277 0.3734 -0.3734 -0.9277 529.9176 693.3727)">
		<stop  offset="0" style="stop-color:#F8B22F"/>
		<stop  offset="0.1065" style="stop-color:#F9BA34"/>
		<stop  offset="0.4975" style="stop-color:#FBD648"/>
		<stop  offset="0.809" style="stop-color:#FDE856"/>
		<stop  offset="1" style="stop-color:#FDF05B"/>
	</linearGradient>
	<path fill="url(#SVGID_10_)" d="M184.944,149.439c-0.911-0.908-3.868-4.633-5.783-6.228c-1.916-1.595-7.949-6.63-11.876-10.51
		c-3.928-3.882-9.49-9.105-11.69-10.95c-2.197-1.846-11.026-9.76-14.922-13.107c-3.896-3.347-9.742-9.73-11.657-11.327
		c-1.162-0.967-2.077-1.489-2.759-1.702c-0.753,0.222-1.114,0.379-1.156,1.441c-0.325,8.361,2.346,16.616,6.978,23.718
		c2.024,3.105,5.178,5.981,7.975,8.522c3.273,2.974,6.369,5.947,10.22,8.174c3.729,2.156,8.062,4.171,12.086,5.686
		c2.035,0.764,4.044,1.385,6.09,2.154c1.948,0.733,3.748,1.76,5.635,2.541c3.712,1.536,7.672,2.948,11.063,5.112
		c3.021,1.926,5.274,4.745,8.306,6.559c0.388,0.233,1.021,0.622,1.016,0.574l1.108,1.056c-0.098-0.155-0.222-0.296-0.34-0.441
		c-0.777-0.774-1.559-1.597-1.964-2.147c-0.975-1.33-3.833-3.833-4.124-4.71C188.86,152.979,185.855,150.347,184.944,149.439z"/>
	
		<linearGradient id="SVGID_11_" gradientUnits="userSpaceOnUse" x1="32.4043" y1="690.6714" x2="135.5371" y2="690.6714" gradientTransform="matrix(-0.9277 0.3734 -0.3734 -0.9277 529.9176 693.3727)">
		<stop  offset="0" style="stop-color:#F8B22F"/>
		<stop  offset="0.1065" style="stop-color:#F9BA34"/>
		<stop  offset="0.4975" style="stop-color:#FBD648"/>
		<stop  offset="0.809" style="stop-color:#FDE856"/>
		<stop  offset="1" style="stop-color:#FDF05B"/>
	</linearGradient>
	<path fill="url(#SVGID_11_)" d="M235.334,75.64c-1.851,0.38-5.048,0.575-7.867,1.71c-2.82,1.135-5.833,0.891-8.527,1.429
		c-2.694,0.541-7.491,1.741-9.687,1.713c-2.194-0.024-9.339,2.122-11.346,2.566c-2.005,0.443-8.056,1.239-11.001,2.063
		c-2.946,0.821-10.063,0.623-12.303,1.236c-2.243,0.612-8.388,1.63-10.771,2.043c-2.381,0.413-10.722,1.403-12.478,1.564
		c-1.755,0.159-6.268,1.613-8.086,1.616c-0.508,0.001-1.027,0.068-1.52,0.161c-0.05,0.565,0.393,0.841,1.215,1.196
		c0.875,0.379,1.721,0.634,2.56,1.091c3.961,2.167,7.863,4.21,12.22,5.354c8.929,2.345,18.215,2.459,27.093,0.829
		c4.215-0.775,8.121-2.391,12.124-4.059c4.226-1.76,8.109-3.419,12.131-5.561c8.104-4.321,15.134-10.457,24.169-12.872
		c3.886-1.039,8.845-3.698,11.32-6.47c-1.571,1.3-3.358,1.837-5.175,2.75C237.589,74.914,237.181,75.259,235.334,75.64z"/>
	
		<linearGradient id="SVGID_12_" gradientUnits="userSpaceOnUse" x1="79.8589" y1="735.5757" x2="150.5078" y2="735.5757" gradientTransform="matrix(-0.9277 0.3734 -0.3734 -0.9277 529.9176 693.3727)">
		<stop  offset="0" style="stop-color:#F8B22F"/>
		<stop  offset="0.1065" style="stop-color:#F9BA34"/>
		<stop  offset="0.4975" style="stop-color:#FBD648"/>
		<stop  offset="0.809" style="stop-color:#FDE856"/>
		<stop  offset="1" style="stop-color:#FDF05B"/>
	</linearGradient>
	<path fill="url(#SVGID_12_)" d="M128.889,92.396c2,0.053,4.167-0.269,6.021-0.884c4.148-1.379,7.575-2.961,10.701-5.986
		c3.246-3.146,5.119-6.712,7.353-10.579c2.163-3.743,4.182-7.584,5.706-11.603c1.755-4.616,3.769-9.435,4.668-14.271
		c0.811-4.362,1.356-8.837,1.932-13.173c0.596-4.497,0.973-8.933,1.698-13.411c0.359-2.224,1.118-4.494,1.85-6.585
		c0.283-0.81,0.688-1.843,1.197-2.819c-0.681,1.114-1.176,1.929-1.851,3.307c-1,2.041-2.78,5.306-3.219,6.029
		c-0.436,0.721-4.777,9.384-5.774,11.426c-1,2.04-4.871,9.606-6.744,13.092c-1.875,3.483-4.777,9.385-7.216,13.278
		s-5.939,9.672-7.688,12.561c-1.749,2.889-4.499,7.817-6.563,10.832c-2.064,3.017-3.688,5.308-4.407,6.69
		c-0.296,0.57-0.612,1.239-0.883,1.831C126.7,92.372,127.864,92.368,128.889,92.396z"/>
	
		<linearGradient id="SVGID_13_" gradientUnits="userSpaceOnUse" x1="130.7861" y1="751.105" x2="193.3945" y2="751.105" gradientTransform="matrix(-0.9277 0.3734 -0.3734 -0.9277 529.9176 693.3727)">
		<stop  offset="0" style="stop-color:#F8B22F"/>
		<stop  offset="0.1065" style="stop-color:#F9BA34"/>
		<stop  offset="0.4975" style="stop-color:#FBD648"/>
		<stop  offset="0.809" style="stop-color:#FDE856"/>
		<stop  offset="1" style="stop-color:#FDF05B"/>
	</linearGradient>
	<path fill="url(#SVGID_13_)" d="M85.196,92.019c-1.247,3.232-2.087,6.119-2.462,6.998c-0.093,0.218-0.146,0.534-0.17,0.881
		c1.332-0.413,2.799-0.619,4.081-1.118c1.774-0.688,3.665-1.23,5.334-2.01c3.557-1.659,6.316-3.789,9.074-6.621
		c2.662-2.736,4.483-6.765,5.863-10.207c1.662-4.151,3.294-8.45,4.359-12.812c1.104-4.524,1.423-9.341,1.946-13.998
		c0.555-4.946,0.999-9.911,0.95-14.853c-0.019-1.966-0.063-3.792,0.013-5.733c0.078-2.025-0.512-3.869-0.563-5.895
		c-0.109-4.327,1.336-8.604,1.741-12.948c-0.048,0.178-0.096,0.35-0.138,0.514c-0.559,2.228-2.78,8.413-2.78,8.413
		s-1.358,6.179-2.668,9.253c-1.312,3.077-5.306,11.238-6.021,14.438c-0.716,3.201-3.835,10.827-4.958,13.463
		c-1.121,2.637-2.806,7.499-3.961,9.604s-3.123,6.719-4.994,11.112C87.972,84.895,86.443,88.786,85.196,92.019z"/>
	
		<linearGradient id="SVGID_14_" gradientUnits="userSpaceOnUse" x1="172.3496" y1="749.8081" x2="226.1797" y2="749.8081" gradientTransform="matrix(-0.9277 0.3734 -0.3734 -0.9277 529.9176 693.3727)">
		<stop  offset="0" style="stop-color:#F8B22F"/>
		<stop  offset="0.1065" style="stop-color:#F9BA34"/>
		<stop  offset="0.4975" style="stop-color:#FBD648"/>
		<stop  offset="0.809" style="stop-color:#FDE856"/>
		<stop  offset="1" style="stop-color:#FDF05B"/>
	</linearGradient>
	<path fill="url(#SVGID_14_)" d="M77.432,43.848c-1.303,2.127-3.581,6.866-4.174,8.56c-0.593,1.695-2.493,6.467-3.398,9.196
		c-0.903,2.73-2.525,6.841-4.025,9.446c-1.499,2.606-3.248,5.495-4.622,8.413c-1.373,2.922-3.589,7.817-4.839,10.141
		c-1.249,2.323-2.745,6.748-4.558,9.48s-2.179,4.111-2.791,5.289c1.37,0.763,3.647,0.631,5.088,0.41
		c1.883-0.288,3.894-0.611,5.476-1.657c1.556-1.029,2.562-2.787,3.621-4.299c2.473-3.533,3.433-7.706,4.948-11.716
		c1.514-4.011,2.479-8.117,3.589-12.203c1.049-3.856,2.553-7.62,3.634-11.496c0.537-1.938,0.403-3.96,0.607-5.941
		c0.233-2.251,0.454-4.476,0.719-6.705c0.253-2.143,0.689-4.326,1.284-6.387c0.406-1.409,0.863-2.749,1.166-4.156
		c0.201-0.944,0.883-2.011,0.889-2.951C79.093,39.319,78.732,41.719,77.432,43.848z"/>
	
		<linearGradient id="SVGID_15_" gradientUnits="userSpaceOnUse" x1="39.2505" y1="702.8403" x2="269.7539" y2="702.8403" gradientTransform="matrix(-0.9277 0.3734 -0.3734 -0.9277 529.9176 693.3727)">
		<stop  offset="0.0424" style="stop-color:#DE9527"/>
		<stop  offset="1" style="stop-color:#F8B22F"/>
	</linearGradient>
	<path fill="url(#SVGID_15_)" d="M8.422,116.768c4.348-1.306,8.153-3.021,12.755-3.56c4.874-0.574,9.803-1.336,14.634-2.211
		c3.668-0.666,7.331-1.351,10.995-2.034c0.843,2.179,2.005,4.205,3.259,6.188c-2.446,3.442-4.667,8.032-5.17,12.189
		c-0.005,0.044,0.058,0.062,0.075,0.021c1.784-3.871,3.319-7.674,5.729-11.212c0.653,1.018,1.309,2.033,1.94,3.063
		c-1.26,1.982-2.067,4.62-2.893,6.744c-0.979,2.519-2.839,5.154-2.773,7.935c0.001,0.067,0.09,0.08,0.126,0.037
		c0.591-0.704,0.791-1.59,1.137-2.438c0.605-1.495,1.373-2.926,2.013-4.408c0.93-2.155,1.683-4.853,2.945-6.943
		c0.457,0.772,0.898,1.552,1.299,2.354c0.21,0.422,0.403,0.863,0.609,1.292c-1.078,2.45-1.849,5.034-2.971,7.468
		c-0.687,1.485-1.315,2.979-1.89,4.513c-0.307,0.812-0.715,1.552-0.609,2.435c0.007,0.046,0.069,0.043,0.08,0.001
		c0.22-0.964,1.033-2.079,1.446-2.956c0.692-1.468,1.322-2.955,2.03-4.417c0.917-1.898,1.672-3.876,2.488-5.819
		c0.523,1.126,1.031,2.265,1.526,3.415c-0.626,1.937-1.773,3.809-2.488,5.696c-0.854,2.261-1.549,4.443-2.074,6.795
		c-0.017,0.065,0.089,0.114,0.127,0.054c1.207-1.946,1.806-4.412,2.739-6.512c0.672-1.514,1.623-3.043,2.31-4.615
		c0.646,1.543,1.277,3.087,1.901,4.631c-0.083,0.18-0.143,0.52-0.19,0.635c-0.145,0.328-0.208,0.743-0.305,1.092
		c-0.321,1.173-0.949,2.473-1.445,3.587c-0.8,1.799-1.462,3.743-1.806,5.685c-0.014,0.07,0.098,0.102,0.121,0.034
		c0.847-2.363,2.174-4.543,3.008-6.912c0.323-0.918,0.822-1.772,1.196-2.685c0.235,0.576,0.471,1.159,0.703,1.73
		c0.666,1.638,1.42,3.237,2.219,4.816c-0.7,1.498-1.314,3.036-1.992,4.545c-0.527,1.183-1.421,2.354-1.557,3.673
		c-0.014,0.121,0.138,0.151,0.197,0.055c1.353-2.347,2.767-4.65,3.954-7.085c0.432,0.823,0.874,1.644,1.324,2.459
		c-0.277,0.491-0.413,1.177-0.563,1.584c-0.317,0.868-0.814,1.732-1.197,2.579c-0.453,1-0.788,2.035-1.236,3.029
		c-0.007,0.02,0.017,0.03,0.028,0.017c0.955-1.153,1.728-2.553,2.389-3.893c0.279-0.568,0.656-1.08,0.891-1.668
		c0.048-0.123,0.14-0.388,0.239-0.65c0.548,0.985,1.099,1.968,1.649,2.947c-0.723,1.117-1.055,2.514-1.617,3.715
		c-0.399,0.853-0.813,1.71-1.128,2.601c-0.118,0.34-0.271,0.582-0.111,0.928c0.034,0.075,0.139,0.079,0.175,0.002
		c0.512-1.099,1.199-2.149,1.744-3.242c0.278-0.56,0.614-1.079,0.863-1.656c0.206-0.478,0.378-0.94,0.617-1.381
		c0.467,0.832,0.931,1.663,1.383,2.498c0.164,0.301,0.305,0.609,0.456,0.915c-0.12,0.518-0.452,1.047-0.671,1.519
		c-0.528,1.143-1.001,2.279-1.432,3.459c-0.027,0.073,0.071,0.137,0.121,0.071c0.624-0.834,1.079-1.786,1.616-2.675
		c0.273-0.455,0.536-0.917,0.818-1.366c0.008-0.017,0.019-0.03,0.026-0.045c0.655,1.423,1.215,2.886,1.75,4.359
		c-0.033,0.038-0.067,0.077-0.091,0.133c-0.242,0.537-0.488,1.076-0.726,1.618c-0.097,0.222-0.175,0.447-0.268,0.671
		c-0.084,0.203-0.02,0.414-0.074,0.607c-0.034,0.12,0.088,0.249,0.206,0.158c0.36-0.276,0.54-0.597,0.736-1.007
		c0.175-0.364,0.416-0.703,0.621-1.057c1.004,2.808,1.979,5.619,3.397,8.232c0.128,0.236,0.577,0.184,0.503-0.128
		c-0.795-3.246-1.868-6.347-3.104-9.371c0.154,0.105,0.31,0.207,0.467,0.29c0.283,0.147,0.619,0.206,0.919,0.31
		c0.271,0.094,0.552,0.158,0.836,0.113c0.133-0.021,0.196-0.168,0.119-0.278c-0.379-0.54-1.062-0.583-1.586-0.909
		c-0.45-0.282-0.806-0.616-1.286-0.8c-0.51-1.198-1.042-2.386-1.592-3.566c0.353,0.1,0.708,0.193,1.063,0.284
		c0.69,0.176,1.55,0.539,2.26,0.46c0.074-0.009,0.126-0.104,0.072-0.164c-0.415-0.449-1.14-0.613-1.709-0.789
		c-0.707-0.214-1.414-0.428-2.105-0.686c-0.493-1.044-0.999-2.083-1.51-3.119c0.434,0.077,0.871,0.131,1.281,0.177
		c0.555,0.063,1.093,0.187,1.646,0.271c0.411,0.06,0.843,0.029,1.247,0.132c0.038,0.012,0.073-0.046,0.044-0.074
		c-0.509-0.527-1.209-0.587-1.897-0.771c-0.889-0.235-1.879-0.342-2.769-0.646c-0.488-0.979-0.979-1.959-1.469-2.939
		c0.53,0.117,1.063,0.291,1.498,0.396c0.847,0.206,1.83,0.198,2.698,0.243c0.036,0.003,0.068-0.048,0.031-0.07
		c-0.741-0.452-1.75-0.495-2.568-0.735c-0.7-0.205-1.42-0.598-2.151-0.818c-0.53-1.062-1.057-2.126-1.576-3.196
		c0.781,0.083,1.576,0.265,2.322,0.387c1.027,0.169,2.227-0.09,3.224,0.229c0.025,0.009,0.047-0.025,0.025-0.04
		c-0.721-0.531-1.924-0.54-2.774-0.702c-1.106-0.21-2.171-0.682-3.28-0.874c-0.419-0.869-0.831-1.744-1.234-2.626
		c0.352,0.001,0.689-0.019,0.928-0.01c1.684,0.071,3.432,0.234,5.093,0.474c0.093,0.014,0.107-0.119,0.021-0.141
		c-1.362-0.352-2.823-0.631-4.218-0.839c-0.61-0.093-1.613-0.162-2.249-0.427c-0.593-1.317-1.17-2.639-1.736-3.963
		c1.274,0.228,2.556,0.426,3.82,0.706c0.648,0.144,2.553,1.017,3.108,0.453c0.027-0.023,0.01-0.073-0.021-0.085
		c-1.131-0.428-2.255-0.742-3.432-1.045c-0.783-0.202-1.572-0.368-2.363-0.541c-0.526-0.117-1.034-0.379-1.556-0.535
		c-0.501-1.188-1.001-2.379-1.495-3.571c0.689,0.122,1.385,0.313,2.052,0.448c0.872,0.176,1.737,0.37,2.61,0.549
		c0.743,0.156,1.629,0.443,2.382,0.341c0.022-0.004,0.028-0.036,0.006-0.046c-1.283-0.494-2.609-0.973-3.95-1.292
		c-1.03-0.246-2.031-0.629-3.027-0.993c-0.075-0.027-0.338-0.138-0.577-0.228c-0.431-1.042-0.862-2.083-1.294-3.124
		c0.753,0.179,1.549,0.289,2.234,0.446c1.873,0.427,3.7,1.208,5.603,1.476c0.046,0.008,0.062-0.054,0.021-0.074
		c-2.636-1.385-5.707-1.955-8.418-3.203c-0.084-0.205-0.168-0.407-0.252-0.611c-0.372-0.891-0.804-1.757-1.266-2.61
		c2.797,0.841,5.681,1.411,8.503,2.097c0.05,0.011,0.098-0.063,0.061-0.103c-0.893-0.915-2.774-1.031-3.942-1.442
		c-1.771-0.623-3.515-1.278-5.318-1.795c-0.492-0.848-1.01-1.684-1.534-2.518c1.249,0.108,2.55,0.422,3.719,0.571
		c1.68,0.214,3.877,0.749,5.452,1.423c0.058,0.022,0.107-0.059,0.055-0.096c-1.291-0.903-3.265-1.559-4.773-1.968
		c-1.58-0.428-3.517-1.13-5.243-1.189c-0.525-0.841-1.043-1.684-1.534-2.536c1.298-0.035,2.584-0.026,3.893,0.129
		c1.83,0.216,3.517,1.058,5.335,1.28c0.053,0.007,0.075-0.069,0.023-0.091c-3.148-1.379-6.437-2.36-9.867-2.424
		c-0.588-1.095-1.119-2.214-1.546-3.377c5.14-0.958,10.277-1.918,15.421-2.854c5.428-0.987,10.869-1.907,16.314-2.8
		c0.039,0.047,0.078,0.093,0.121,0.132c1.37,2.079,2.809,4.125,4.25,6.171c-0.611,2.688-0.734,5.494-1.235,8.209
		c-0.5,2.716-1.687,6.082-1.071,8.814c0.026,0.113,0.179,0.12,0.205,0.004c0.646-2.888,1.258-5.776,1.835-8.678
		c0.468-2.352,0.662-4.771,1.124-7.121c1.089,1.554,2.164,3.118,3.21,4.703c-0.53,3.113-1.45,6.202-2.049,9.303
		c-0.508,2.631-1.882,5.971-1.358,8.663c0.013,0.063,0.095,0.064,0.107,0.002c0.664-2.856,1.514-5.665,2.111-8.539
		c0.553-2.66,1.544-5.322,2.127-7.994c0.97,1.523,1.891,3.071,2.775,4.635c-0.978,6.521-3.247,12.871-3.773,19.48
		c-0.006,0.081,0.107,0.098,0.125,0.018c1.315-5.925,3.365-11.828,4.597-17.794c1.249,2.275,2.442,4.577,3.626,6.884
		c-0.179,3.707-1.179,7.486-1.831,11.136c-0.464,2.591-2.219,6.052-1.572,8.659c0.025,0.102,0.165,0.142,0.212,0.032
		c1.132-2.648,1.842-5.71,2.43-8.534c0.614-2.942,1.544-5.992,1.926-9.023c1.166,2.273,2.345,4.541,3.58,6.788
		c-1.012,5.361-3.027,10.894-2.715,16.388c0.004,0.095,0.127,0.094,0.166,0.024c1.106-1.997,1.021-4.957,1.553-7.177
		c0.59-2.461,1.546-5.087,1.896-7.666c0.934,1.598,1.942,3.161,3.006,4.696c-0.38,2.29-0.616,4.602-1.242,6.849
		c-0.551,1.965-1.17,4.141-0.646,6.169c0.021,0.086,0.141,0.066,0.175,0.001c0.934-1.952,1.067-4.523,1.691-6.619
		c0.484-1.619,0.741-3.363,0.943-5.073c1.092,1.523,2.228,3.023,3.375,4.51c-0.392,3.346-2.093,6.49-2.394,9.862
		c-0.005,0.061,0.05,0.105,0.108,0.084c1.05-0.375,1.415-2.822,1.702-3.751c0.501-1.626,1.161-3.279,1.544-4.959
		c0.868,1.115,1.742,2.227,2.604,3.335c-0.162,0.995-0.551,2.029-0.821,2.986c-0.249,0.889-0.416,1.794-0.681,2.681
		c-0.233,0.778-0.179,1.612-0.438,2.378c-0.035,0.1,0.092,0.185,0.161,0.097c0.85-1.064,1.208-2.757,1.533-4.062
		c0.232-0.943,0.778-1.981,1.08-2.997c0.311,0.398,0.622,0.8,0.925,1.198c0.753,0.986,1.468,2.009,2.167,3.051
		c-0.5,1.205-0.968,2.424-1.463,3.634c-0.296,0.723-0.525,1.306-0.114,1.999c0.038,0.066,0.151,0.032,0.156-0.038
		c0.021-0.273,0.372-0.71,0.497-0.963c0.191-0.387,0.405-0.767,0.601-1.152c0.39-0.776,0.727-1.567,1.063-2.36
		c0.708,1.082,1.402,2.177,2.104,3.27c-0.287,0.684-0.502,1.375-0.582,2.12c-0.074,0.685-0.283,1.4-0.237,2.085
		c0.008,0.078,0.08,0.118,0.151,0.119c0.802-0.006,0.985-1.244,1.083-1.838c0.075-0.464,0.192-0.887,0.346-1.314
		c0.792,1.211,1.604,2.404,2.456,3.558c-0.089,0.566-0.524,2.223,0.107,2.247c0.51,0.018,0.588-0.611,0.632-0.989
		c0.009-0.077,0.033-0.148,0.052-0.223c0.993,1.269,2.05,2.478,3.213,3.584c0.143,0.134,0.339-0.084,0.234-0.233
		c-1.256-1.764-2.421-3.586-3.563-5.422c0.278,0.04,0.561,0.076,0.832,0.125c0.39,0.07,0.783,0.099,1.18,0.133
		c0.257,0.023,0.435,0.076,0.655,0c0.113,0.038,0.241-0.04,0.235-0.184c0-0.023,0-0.045-0.002-0.068
		c-0.004-0.098-0.089-0.156-0.173-0.18c-0.138-0.036-0.242-0.142-0.384-0.174c-0.427-0.097-0.877-0.167-1.29-0.313
		c-0.333-0.117-0.677-0.21-1.012-0.32c-0.243-0.079-0.497-0.087-0.745-0.149c-0.599-0.971-1.193-1.942-1.789-2.912
		c0.498,0.063,1,0.103,1.438,0.146c0.839,0.084,2.272,0.541,2.99-0.068c0.046-0.039,0.05-0.111,0-0.151
		c-0.64-0.501-1.716-0.47-2.488-0.62c-0.611-0.12-1.224-0.206-1.831-0.345c-0.271-0.063-0.545-0.066-0.814-0.098
		c-0.841-1.348-1.705-2.682-2.603-3.993c1.012,0.124,2.026,0.238,3.041,0.324c0.608,0.051,1.218,0.146,1.825,0.204
		c0.601,0.058,1.227-0.059,1.813,0.014c0.095,0.013,0.125-0.098,0.066-0.153c-0.615-0.618-1.873-0.578-2.679-0.742
		c-1.581-0.323-3.197-0.563-4.805-0.707c-0.417-0.586-0.833-1.165-1.271-1.733c-0.595-0.778-1.193-1.56-1.789-2.342
		c1.127,0.093,2.304,0.311,3.364,0.441c0.936,0.113,1.854,0.349,2.79,0.469c0.871,0.11,1.747-0.04,2.615,0.091
		c0.162,0.023,0.285-0.214,0.132-0.311c-1.341-0.835-3.289-0.731-4.817-1.103c-1.481-0.36-3.294-0.629-4.885-0.641
		c-1.179-1.548-2.348-3.104-3.494-4.678c1.664,0.157,3.326,0.314,4.989,0.481c2.001,0.203,4.424,0.94,6.392,0.6
		c0.11-0.02,0.106-0.163,0.002-0.188c-4.025-1-8.122-1.441-12.219-2.065c-1.326-1.856-2.604-3.741-3.814-5.671
		c2.124,0.165,4.238,0.265,6.368,0.626c2.667,0.452,5.329,1.317,8.041,1.403c0.029,0,0.063-0.035,0.038-0.064
		c-1.197-1.309-4.262-1.447-5.999-1.855c-3.078-0.726-6.117-1.126-9.238-1.374c-1.073-1.775-2.087-3.586-3.006-5.448
		c-0.013-0.027-0.027-0.054-0.041-0.082c2.877,0.102,5.714,0.413,8.588,0.582c2.724,0.162,5.35,1.192,8.065,1.417
		c0.103,0.008,0.183-0.131,0.085-0.198c-2.117-1.451-5.518-1.812-8.021-2.106c-3.076-0.36-6.142-0.689-9.239-0.756
		c-0.96-1.943-1.921-3.884-2.896-5.813c1.728,0.247,3.579,0.234,5.224,0.525c4.035,0.712,8.244,1.774,12.366,1.605
		c0.181-0.009,0.219-0.288,0.051-0.348c-3.153-1.137-6.678-1.21-9.954-1.87c-2.604-0.524-5.742-0.467-8.344-1.196
		c-0.988-1.927-1.999-3.84-3.054-5.731c5.937-0.243,12.129,1.635,17.932,2.376c0.054,0.005,0.075-0.068,0.025-0.092
		c-3.18-1.462-6.615-2.088-10.069-2.521c-2.81-0.354-5.769-1.131-8.621-1.052c-0.022-0.038-0.043-0.075-0.063-0.109
		c-0.023-0.155-0.098-0.273-0.207-0.36c-0.523-0.906-1.056-1.811-1.604-2.707c5.688-0.95,11.56,0.7,17.213,1.075
		c0.123,0.011,0.181-0.157,0.06-0.21c-2.874-1.249-6.162-1.108-9.201-1.771c-2.531-0.553-6.104-0.687-8.761-0.179
		c-0.606-0.963-1.22-1.924-1.852-2.87c2.712-0.476,5.702-0.381,8.364-0.262c1.797,0.08,3.982,0.588,5.694,0.069
		c0.088-0.027,0.093-0.177,0.001-0.205c-2.217-0.661-4.898-0.687-7.215-0.756c-2.424-0.074-5.104-0.306-7.565,0.091
		c-0.637-0.94-1.277-1.882-1.922-2.816c1.69-0.097,3.388-0.13,5.077-0.305c1.766-0.185,4.043,0.412,5.682-0.207
		c0.069-0.024,0.073-0.134,0.003-0.16c-1.535-0.573-3.396-0.428-5.014-0.4c-2.128,0.036-4.272,0.04-6.402,0.115
		c-1.269-1.843-2.521-3.692-3.728-5.575c13.363-2.168,26.76-4.179,40.097-6.485c0.583-0.103,1.165-0.212,1.749-0.315
		c0.044,0.046,0.092,0.09,0.149,0.133c0.946,0.684,1.871,1.389,2.785,2.105c0.716,2.95,1.134,6.095,1.524,9.082
		c0.319,2.43,0.529,5.672,1.906,7.778c0.042,0.066,0.151,0.02,0.141-0.058c-0.446-3.032-0.791-6.148-1.056-9.206
		c-0.165-1.918-0.348-4.188-0.824-6.241c0.944,0.775,1.873,1.572,2.789,2.377c0.235,3.591,1.15,7.238,1.656,10.783
		c0.519,3.63,1.106,7.227,2.074,10.76c0.031,0.114,0.182,0.051,0.185-0.044c0.063-4.081-0.978-8.361-1.397-12.442
		c-0.246-2.407-0.348-5.13-0.902-7.618c1.622,1.467,3.212,2.968,4.788,4.484c1.331,7.116,0.673,15.093,3.216,21.849
		c0.053,0.14,0.25,0.078,0.243-0.061c-0.168-4.144-0.724-8.342-1.138-12.47c-0.252-2.513-0.305-5.214-0.725-7.774
		c1.688,1.64,3.37,3.287,5.063,4.922c0.941,6.727,0.691,14.674,3.503,20.833c0.04,0.086,0.182,0.058,0.168-0.044
		c-0.568-4.099-1.259-8.153-1.597-12.284c-0.188-2.306-0.313-4.813-0.698-7.185c1.231,1.176,2.477,2.341,3.737,3.481
		c0.8,3.343,1.309,6.756,1.855,10.144c0.455,2.818,0.515,5.889,1.684,8.526c0.055,0.123,0.239,0.077,0.228-0.06
		c-0.476-5.638-0.88-11.506-2.063-17.098c0.289,0.254,0.574,0.509,0.866,0.759c0.076,0.1,0.172,0.182,0.284,0.24
		c1.045,0.894,2.109,1.769,3.193,2.622c0.515,3.132,0.938,6.284,1.525,9.402c0.382,2.015,0.384,4.651,1.566,6.394
		c0.066,0.098,0.249,0.057,0.255-0.064c0.13-2.499-0.534-5.215-0.983-7.665c-0.426-2.327-0.62-4.684-1.035-7.005
		c1.109,0.879,2.205,1.78,3.288,2.704c-0.012,2.188,1.302,5.05,1.778,6.998c0.596,2.429,0.714,5.01,1.868,7.269
		c0.044,0.087,0.208,0.097,0.212-0.024c0.104-2.676-0.826-5.786-1.409-8.397c-0.336-1.506-0.633-3.017-0.934-4.528
		c1.472,1.292,2.928,2.609,4.372,3.936c0.656,2.2,1.073,4.476,1.609,6.706c0.398,1.66,0.458,3.742,1.494,5.147
		c0.09,0.12,0.285,0.037,0.271-0.109c-0.362-3.374-0.957-6.881-1.745-10.246c1.273,1.176,2.546,2.348,3.821,3.504
		c0.372,1.561,0.791,3.125,1.199,4.672c0.297,1.13,0.415,3.337,1.57,3.961c0.122,0.066,0.237-0.082,0.197-0.194
		c-0.836-2.324-1.27-4.854-1.731-7.323c0.201,0.182,0.403,0.364,0.604,0.543c1.181,1.051,2.349,2.116,3.522,3.172
		c0.28,0.881,0.486,1.785,0.717,2.684c0.292,1.137,0.532,2.54,1.312,3.438c0.13,0.153,0.338,0.049,0.339-0.136
		c0.011-1.048-0.333-2.212-0.611-3.224c-0.142-0.507-0.263-1.019-0.386-1.531c0.808,0.732,1.623,1.455,2.429,2.188
		c2.67,2.433,4.724,5.58,7.617,7.762c0.171,0.129,0.4-0.095,0.266-0.266c-2.276-2.922-4.711-5.69-7.247-8.365
		c0.5-0.053,0.989-0.144,1.474-0.303c0.582-0.188,1.322-0.174,1.732-0.685c0.059-0.076,0.006-0.171-0.076-0.19
		c-0.522-0.132-1.1-0.085-1.622,0.017c-0.697,0.135-1.374,0.192-2.081,0.265c-0.086,0.01-0.155,0.037-0.213,0.072
		c-1.132-1.176-2.282-2.335-3.448-3.48c0.731-0.166,1.449-0.355,2.188-0.615c0.93-0.323,2.001-0.454,2.699-1.193
		c0.045-0.049,0.008-0.135-0.055-0.141c-0.948-0.088-1.936,0.289-2.863,0.473c-0.547,0.109-1.087,0.274-1.629,0.404
		c-0.427,0.101-0.831,0.114-1.234,0.194c-1.206-1.17-2.423-2.326-3.651-3.473c1.06-0.297,2.133-0.765,3.148-1.004
		c1.084-0.255,3.099-0.39,3.86-1.272c0.025-0.029,0.015-0.086-0.023-0.098c-1.128-0.335-2.8,0.397-3.917,0.67
		c-0.858,0.208-1.742,0.169-2.597,0.363c-0.524,0.12-1.076,0.23-1.619,0.272c-1.476-1.368-2.964-2.729-4.45-4.088
		c1.58-0.257,3.141-0.678,4.69-1.071c1.59-0.403,3.487-0.528,4.962-1.26c0.129-0.065,0.083-0.248-0.062-0.243
		c-3.515,0.118-7.287,0.785-10.764,1.507c-1.357-1.236-2.712-2.475-4.063-3.719c1.673-0.541,3.418-0.821,5.116-1.28
		c2.064-0.559,4.292-1.258,6.398-1.626c0.166-0.031,0.132-0.252-0.029-0.251c-2.135,0.003-4.477,0.669-6.575,1.069
		c-1.996,0.377-4.027,0.533-5.982,1.098c-0.657-0.607-1.311-1.221-1.965-1.836c-1.132-1.065-2.281-2.111-3.435-3.152
		c4.433-1.135,8.977-1.977,13.343-3.288c0.107-0.033,0.113-0.218,0.001-0.249c-2.329-0.683-5.499,0.668-7.759,1.207
		c-2.249,0.537-4.59,0.748-6.854,1.188c-2.127-1.905-4.269-3.794-6.386-5.715c4.563-1.091,9.067-2.555,13.534-3.853
		c0.092-0.025,0.044-0.152-0.039-0.151c-2.408,0.012-5.037,1.082-7.395,1.609c-2.367,0.53-4.745,1.067-7.147,1.437
		c-1.73-1.589-3.439-3.204-5.1-4.88c-0.196-0.201-0.397-0.395-0.596-0.594c1.691-0.515,3.371-1.317,5.008-1.825
		c2.612-0.813,5.798-0.945,8.214-2.295c0.074-0.041,0.058-0.162-0.039-0.152c-2.446,0.251-4.996,0.731-7.377,1.334
		c-2.193,0.556-4.585,1.466-6.859,1.892c-1.481-1.464-2.983-2.886-4.512-4.271c1.432-0.521,2.862-1.04,4.264-1.64
		c1.828-0.784,4.297-1.123,5.878-2.3c0.052-0.039,0.017-0.118-0.046-0.114c-3.784,0.373-7.499,1.992-11.156,3.104
		c-1.032-0.912-2.076-1.809-3.14-2.685c2.068-0.774,4.352-1.453,6.068-2.729c0.063-0.047,0.021-0.15-0.057-0.143
		c-2.321,0.266-4.753,1.248-6.982,2.078c-1.097-0.883-2.216-1.746-3.356-2.59c6.654-1.205,13.3-2.473,19.976-3.576
		c0.012,0.003,0.019,0.009,0.029,0.014c0.306,0.077,1.289,0.888,1.521,1.038c1.064,0.699,2.062,1.469,3.074,2.239
		c1.452,1.104,3.203,2.154,4.918,2.781c0.096,0.035,0.214-0.082,0.132-0.169c-1.441-1.522-3.345-2.469-4.91-3.847
		c-0.921-0.81-1.888-1.519-2.893-2.225c-0.051-0.035-0.101-0.077-0.151-0.115c0.665-0.107,1.332-0.227,2.001-0.329
		c0.763-0.118,1.527-0.225,2.292-0.334c0.39,0.413,1.046,0.767,1.395,1.036c1.551,1.201,3.18,2.304,4.757,3.471
		c2.331,1.728,4.606,3.403,7.158,4.789c0.068,0.036,0.121-0.057,0.084-0.11c-1.134-1.714-3.581-3.012-5.24-4.22
		c-1.296-0.942-2.531-1.967-3.813-2.93c-0.694-0.518-2.313-1.384-3.177-2.205c1.71-0.244,3.424-0.474,5.139-0.694
		c2.872,1.939,5.727,3.886,8.624,5.789c2.275,1.496,4.471,3.374,7.057,4.312c0.077,0.028,0.158-0.041,0.126-0.122
		c-0.121-0.3-0.182-0.419-0.492-0.594c-1.866-1.06-3.586-2.398-5.333-3.64c-2.771-1.97-5.505-3.992-8.277-5.96
		c1.665-0.21,3.328-0.417,4.993-0.62c5.106,3.23,9.991,6.641,15.278,9.57c0.066,0.038,0.146-0.064,0.093-0.122
		c-1.796-1.904-4.557-3.063-6.678-4.587c-2.351-1.692-4.673-3.424-7.062-5.061c1.688-0.206,3.377-0.413,5.065-0.626
		c0.813,0.362,1.547,0.963,2.322,1.379c1.673,0.896,3.338,1.793,4.983,2.742c2.948,1.704,5.874,3.959,9.203,4.86
		c0.081,0.023,0.116-0.096,0.059-0.14c-1.24-0.996-2.829-1.631-4.198-2.465c-1.847-1.123-3.614-2.39-5.444-3.545
		c-1.537-0.972-3.109-1.862-4.676-2.782c-0.151-0.089-0.289-0.184-0.427-0.281c2.268-0.292,4.535-0.603,6.799-0.933
		c4.791,2.562,9.339,6.413,14.614,7.909c0.103,0.029,0.177-0.087,0.095-0.163c-1.993-1.851-4.866-2.932-7.121-4.527
		c-1.317-0.933-2.822-1.65-4.194-2.496c-0.552-0.34-1.015-0.688-1.501-1.001c1.8-0.276,3.59-0.604,5.377-0.95
		c1.993,1.274,4.557,2.104,6.725,3.001c2.531,1.048,4.944,2.221,7.552,3.076c0.049,0.016,0.093-0.048,0.047-0.081
		c-2.132-1.527-4.946-2.52-7.287-3.724c-1.673-0.861-3.345-1.695-4.947-2.683c2.383-0.49,4.757-1.026,7.13-1.574
		c0.045,0.024,0.086,0.053,0.142,0.064c3.72,0.886,7.318,2.461,10.942,3.703c0.074,0.026,0.141-0.07,0.072-0.12
		c-1.582-1.173-3.774-1.948-5.628-2.594c-1.217-0.424-2.289-1.041-3.436-1.538c2.662-0.622,5.324-1.241,7.994-1.833
		c1.311,0.285,2.663,1.007,3.891,1.463c1.357,0.504,2.617,1.119,4.061,1.344c0.052,0.008,0.076-0.072,0.024-0.092
		c-1.471-0.554-2.82-1.385-4.248-2.036c-0.68-0.31-1.361-0.696-2.055-1.048c1.245-0.267,2.496-0.524,3.746-0.768
		c1.029-0.198,2.057-0.41,3.081-0.623c0.684,0.306,1.519,0.438,2.187,0.667c0.892,0.307,1.754,0.796,2.682,0.983
		c0.093,0.018,0.199-0.028,0.254-0.102c0.052-0.071,0.162-0.224,0.077-0.315c-0.505-0.54-1.26-0.772-1.929-1.108
		c-0.432-0.218-0.887-0.38-1.344-0.533c3.294-0.703,6.577-1.448,9.871-2.189c3.215-0.721,6.932-1.013,9.79-2.738
		c0.243-0.145,0.009-0.542-0.245-0.429c-3.973,1.78-9.078,2.003-13.33,2.839c-0.623,0.123-1.246,0.236-1.87,0.354
		c0.245-0.284,0.484-0.571,0.74-0.837c0.506-0.524,1.287-1.066,1.494-1.79c0.039-0.131-0.101-0.287-0.229-0.18
		c-0.516,0.434-1.141,0.725-1.662,1.18c-0.62,0.542-1.196,1.398-1.943,1.752c-0.121,0.056-0.19,0.137-0.24,0.223
		c-1.796,0.33-3.595,0.65-5.393,0.973c1.206-1.806,2.66-3.45,3.997-5.148c0.066-0.086-0.005-0.244-0.122-0.217
		c-0.994,0.218-1.672,1.106-2.352,1.816c-1.158,1.211-2.307,2.515-3.298,3.865c0,0.004-0.001,0.005-0.001,0.005
		c-1.396,0.255-2.791,0.513-4.184,0.786c-0.447,0.086-0.892,0.183-1.337,0.273c0.766-1.229,1.467-2.499,2.27-3.705
		c0.949-1.427,2.315-2.568,2.928-4.199c0.027-0.074-0.041-0.14-0.114-0.116c-1.349,0.459-2.319,2.147-3.243,3.164
		c-1.396,1.534-2.294,3.537-3.545,5.202c-1.44,0.301-2.879,0.607-4.314,0.921c0.202-0.374,0.439-0.734,0.635-1.086
		c0.477-0.86,0.835-1.803,1.289-2.68c1.041-2.015,2.503-3.675,3.636-5.633c0.024-0.043-0.037-0.083-0.071-0.056
		c-1.754,1.354-3.258,3.317-4.405,5.194c-0.823,1.343-2.118,3.002-2.63,4.601c-1.557,0.346-3.112,0.689-4.667,1.034
		c0.91-1.801,1.575-3.731,2.71-5.438c1.35-2.023,3.367-3.765,4.351-5.999c0.034-0.073-0.044-0.135-0.113-0.113
		c-0.78,0.233-0.984,0.555-1.479,1.258c-0.904,1.286-2.133,2.361-3.067,3.645c-1.638,2.247-2.718,4.937-4.449,7.096
		c-2.334,0.507-4.669,0.998-7.014,1.445c1.553-2.409,3.033-4.876,4.681-7.22c1.14-1.618,2.49-3.059,3.559-4.733
		c0.329-0.517,1.033-0.828,1.064-1.46c0.005-0.109-0.098-0.169-0.189-0.111c-1.903,1.163-3.173,3.116-4.665,4.864
		c-2.26,2.653-4.263,5.803-6.066,8.789c-0.05,0.053-0.094,0.115-0.127,0.185c-1.94,0.354-3.89,0.685-5.853,0.958
		c-0.147,0.021-0.297,0.039-0.443,0.061c1.325-2.417,2.216-5.066,3.764-7.41c2.204-3.341,5.543-5.507,7.968-8.57
		c0.068-0.089-0.028-0.207-0.131-0.169c-6.347,2.272-10.729,10.576-13.509,16.245c-0.025,0.055-0.027,0.104-0.039,0.159
		c-0.811,0.109-1.623,0.214-2.436,0.319c0.109-0.344,0.187-0.694,0.276-0.965c0.663-2.031,1.464-3.939,2.363-5.877
		c0.76-1.647,1.823-3.101,2.735-4.66c0.935-1.6,2.631-3.041,3.232-4.754c0.038-0.107-0.082-0.217-0.181-0.142
		c-2.747,2.142-4.63,5.257-6.331,8.284c-1.034,1.843-2.031,3.782-2.781,5.757c-0.244,0.648-0.907,1.715-0.977,2.574
		c-1.921,0.243-3.843,0.481-5.766,0.716c1.634-5.844,6.31-11.803,10.137-16.305c0.115-0.132-0.069-0.273-0.199-0.199
		c-2.953,1.698-5.247,5.709-7.095,8.487c-1.721,2.589-3.6,5.167-4.39,8.205c-1.963,0.237-3.927,0.486-5.89,0.733
		c1.254-2.537,2.34-5.058,3.922-7.481c1.597-2.447,3.64-4.475,4.942-7.111c0.049-0.1-0.085-0.2-0.169-0.131
		c-2.346,1.903-4.413,4.927-6.181,7.378c-1.714,2.376-2.998,4.901-4.202,7.558c-1.218,0.153-2.435,0.324-3.652,0.488
		c0.171-0.537,0.306-1.1,0.464-1.608c0.483-1.561,1.365-2.978,2.269-4.327c0.672-1.01,1.321-2.033,2.036-3.018
		c0.438-0.606,1.118-1.078,1.355-1.806c0.028-0.083-0.067-0.179-0.145-0.113c-0.612,0.528-1.264,0.841-1.843,1.431
		c-0.996,1.015-1.783,2.323-2.621,3.47c-1.427,1.946-1.974,4.054-2.966,6.176c-1.291,0.179-2.581,0.347-3.87,0.541
		c-0.171,0.026-0.343,0.056-0.514,0.082c1.443-2.556,3.132-5.012,5.286-7.034c0.142-0.132,0.019-0.333-0.162-0.284
		c-1.766,0.459-2.804,2.208-4.028,3.455c-1.188,1.207-2.068,2.632-2.808,4.139c-6.922,1.088-13.809,2.338-20.706,3.525
		c0.535-0.946,1.075-1.891,1.628-2.825c0.973,0.108,2.312-0.438,3.158-0.591c2.11-0.372,4.506-0.747,6.445-1.696
		c0.199-0.096,0.122-0.365-0.091-0.363c-1.71,0.008-3.465,0.397-5.131,0.755c-0.899,0.193-1.874,0.218-2.786,0.339
		c-0.185,0.024-0.494,0.128-0.791,0.201c0.573-0.953,1.156-1.903,1.744-2.854c2.427-0.363,4.808-0.94,7.262-1.137
		c2.219-0.179,4.805-0.778,6.821-1.72c0.239-0.112,0.158-0.485-0.115-0.455c-2.301,0.247-4.526,0.866-6.824,1.118
		c-2.069,0.225-4.177,0.362-6.233,0.721c1.051-1.681,2.114-3.351,3.181-5.017c4.613-1.931,10.115-0.896,14.556-3.171
		c0.093-0.046,0.095-0.197-0.024-0.211c-2.125-0.224-4.666,0.616-6.813,0.844c-2.184,0.231-4.49,0.42-6.674,0.906
		c1.167-1.819,2.328-3.643,3.482-5.471c1.823-0.153,3.803-0.921,5.559-1.313c3.049-0.679,6.16-1.193,8.908-2.751
		c0.129-0.069,0.105-0.308-0.066-0.271c-3.006,0.623-5.932,1.4-8.978,1.834c-1.43,0.203-2.989,0.754-4.489,1.02
		c0.967-1.549,1.921-3.107,2.855-4.675c4.846-0.972,10.088-2.63,14.444-4.94c0.183-0.096,0.078-0.347-0.118-0.293
		c-2.438,0.675-4.826,1.478-7.268,2.13c-1.955,0.524-4.095,0.858-6.084,1.425c1.069-1.832,2.105-3.689,3.103-5.569
		c4.228-1.176,9.678-2.046,13.222-4.7c0.063-0.047,0.021-0.148-0.058-0.143c-2.274,0.25-4.477,1.279-6.673,1.911
		c-1.858,0.536-3.75,0.88-5.622,1.313c0.015-0.028,0.029-0.058,0.045-0.086c0.768-1.501,1.54-3.002,2.312-4.501
		c3.61-1.909,8.557-1.857,11.713-4.477c0.06-0.051,0.025-0.177-0.063-0.156c-3.484,0.809-7.339,1.584-10.755,2.886
		c0.856-1.663,1.705-3.328,2.56-4.993c1.541-0.66,3.096-1.338,4.672-1.902c1.632-0.582,3.321-1.017,4.72-2.08
		c0.058-0.041,0.02-0.134-0.051-0.127c-1.696,0.196-3.372,0.895-5.008,1.366c-1.139,0.328-2.297,0.641-3.438,0.994
		c0.795-1.549,1.59-3.099,2.377-4.653c1.199-0.497,2.348-1.079,3.529-1.627c1.152-0.532,2.43-0.992,3.4-1.83
		c0.041-0.035,0.015-0.103-0.04-0.099c-1.277,0.098-2.453,0.789-3.639,1.239c-0.857,0.326-1.695,0.631-2.539,0.923
		c0.992-1.963,1.962-3.934,2.938-5.902c0.875-0.419,1.733-0.872,2.652-1.191c0.551-0.192,1.132-0.479,1.545-0.895
		c0.02-0.02,0.002-0.063-0.025-0.063c-0.613-0.016-1.163,0.221-1.734,0.426c-0.639,0.229-1.279,0.457-1.923,0.686
		c0.681-1.381,1.355-2.764,2.024-4.149c0.377-0.017,0.731-0.326,1.031-0.553c0.514-0.386,1.09-0.763,1.513-1.246
		c0.05-0.058,0.004-0.139-0.061-0.151c-0.549-0.12-0.963,0.179-1.399,0.473c-0.186,0.126-0.371,0.25-0.559,0.37
		c1.075-2.237,2.155-4.471,3.188-6.719c0.15-0.326-0.348-0.63-0.548-0.321c-1.096,1.694-2.129,3.468-3.123,5.273
		c0.111-0.598,0.284-1.181-0.072-1.729c-0.001,0.005-0.004,0.011-0.005,0.017c-0.178-0.22-0.629-0.201-0.636,0.149
		c-0.015,0.641-0.195,1.207-0.336,1.825c-0.066,0.291-0.011,0.655-0.038,0.958c-0.033,0.333-0.077,0.666-0.115,1
		c-0.619,1.167-1.226,2.342-1.83,3.513c-0.012-0.083-0.034-0.171-0.041-0.25c-0.048-0.547-0.153-1.038-0.304-1.566
		c-0.182-0.642-0.082-1.352-0.399-1.933c-0.102-0.182-0.392-0.186-0.426,0.051c-0.173,1.169,0.056,2.009,0.196,3.163
		c0.064,0.535,0.217,1.234,0.278,1.881c-0.491,0.956-0.983,1.91-1.479,2.853c-0.546,1.035-1.098,2.065-1.646,3.1
		c-0.382-2.07-0.957-4.204-1.679-6.071c-0.067-0.176-0.315-0.13-0.349,0.042c-0.17,0.842,0.016,1.564,0.23,2.394
		c0.353,1.365,0.604,2.725,0.856,4.11c0.036,0.196,0.059,0.631,0.131,1.045c-1.049,1.968-2.101,3.934-3.15,5.899
		c-0.345-1.079-0.786-2.162-1.104-3.176c-0.527-1.676-0.936-3.699-1.855-5.196c-0.109-0.178-0.342-0.029-0.34,0.138
		c0.029,1.617,0.633,3.18,1.056,4.728c0.468,1.71,0.859,3.438,1.388,5.127c-1.134,2.133-2.252,4.274-3.354,6.426
		c-0.674-1.841-1.322-3.677-1.846-5.578c-0.489-1.776-0.641-4.718-1.887-6.108c-0.102-0.113-0.283-0.017-0.233,0.132
		c0.219,0.643,0.162,1.675,0.31,2.354c0.282,1.288,0.594,2.571,0.899,3.854c0.554,2.313,1.352,4.524,2.012,6.795
		c-0.168,0.333-0.344,0.661-0.509,0.995c-1.034,2.049-2.137,4.055-3.269,6.04c-0.522-1.79-1.252-3.535-1.797-5.312
		c-0.812-2.647-1.541-5.465-2.613-8.017c-0.064-0.154-0.344-0.147-0.349,0.041c-0.12,4.991,3.079,9.943,3.854,14.838
		c-1.023,1.748-2.071,3.483-3.146,5.203c-0.525-1.461-1.234-2.914-1.817-4.282c-1.227-2.887-2.039-6.025-3.627-8.73
		c-0.075-0.127-0.301-0.034-0.271,0.109c1.063,4.891,3.854,9.379,4.869,14.264c-1.147,1.809-2.309,3.611-3.48,5.406
		c-0.669-1.778-1.603-3.514-2.318-5.238c-1.151-2.774-1.823-5.766-3.35-8.363c-0.088-0.154-0.359-0.04-0.323,0.131
		c1.068,5.099,3.902,9.772,5.135,14.781c-1.179,1.799-2.354,3.6-3.524,5.402c-1.465-3.917-2.724-8.081-4.622-11.733
		c-0.053-0.1-0.218-0.073-0.2,0.049c0.616,4.471,2.285,8.834,3.955,13.022c-1.033,1.604-2.054,3.218-3.058,4.843
		c-0.791-2.439-1.337-5.206-2.901-7.054c-0.085-0.101-0.228-0.032-0.226,0.091c0.012,1.613,0.627,2.952,1.063,4.498
		c0.341,1.207,0.776,2.531,1.268,3.749c-0.911,1.498-1.81,3.008-2.678,4.532c-1.486,0.25-2.973,0.508-4.462,0.744
		c-11.94,1.901-23.897,3.771-35.835,5.738c0.57-1.174,1.12-2.378,1.645-3.609c1.986-0.448,3.874-1.165,5.802-1.813
		c1.91-0.641,3.602-1.151,5.243-2.332c0.074-0.054,0.025-0.188-0.069-0.17c-3.502,0.644-6.861,2.121-10.37,2.855
		c0.531-1.308,1.034-2.629,1.518-3.958c1.661,0.082,4.689-1.25,5.722-1.509c2.972-0.749,5.755-1.83,8.344-3.487
		c0.109-0.07,0.031-0.27-0.098-0.24c-3.207,0.729-6.205,2.111-9.442,2.831c-1.116,0.249-2.616,0.331-3.896,0.644
		c0.397-1.14,0.782-2.28,1.146-3.41c2.585-0.26,5.193-1.718,7.602-2.597c3.254-1.192,6.518-2.629,9.335-4.673
		c0.072-0.056,0.026-0.19-0.069-0.171c-5.637,1.124-10.66,4.845-16.385,5.942c0.134-0.423,0.269-0.849,0.398-1.265
		c0.625-2.018,1.472-3.958,2.403-5.871c0.105,0.021,0.217,0.021,0.348-0.025c3.913-1.399,7.791-1.643,11.595-3.6
		c1.23-0.633,4.234-1.883,4.604-3.423c0.018-0.062-0.066-0.104-0.111-0.066c-1.666,1.328-3.952,2.27-5.836,3.214
		c-3.224,1.613-6.563,1.808-9.939,2.567c0.908-1.773,1.87-3.529,2.81-5.289c2.55-0.634,4.966-1.698,7.383-2.706
		c2.558-1.07,5.88-2.542,7.645-4.756c0.02-0.023-0.008-0.064-0.037-0.048c-4.532,2.314-9.118,5.119-14.198,6.004
		c0.681-1.316,1.337-2.642,1.918-3.987c0.248-0.576,0.473-1.159,0.703-1.74c1.912-1.169,4.348-1.987,6.37-2.972
		c1.941-0.944,4.771-2.192,5.97-3.991c0.039-0.056-0.013-0.137-0.082-0.108c-2.433,1.016-4.6,2.529-6.983,3.64
		c-1.083,0.506-2.208,1.072-3.295,1.55c-0.42,0.185-0.896,0.259-1.378,0.328c0.672-1.814,1.287-3.65,1.876-5.495
		c3.694-1.627,8.537-3.748,11.074-6.938c0.096-0.121-0.065-0.277-0.188-0.189c-3.211,2.323-6.777,4.192-10.439,5.723
		c0.643-2.033,1.272-4.069,1.947-6.089c3.07-1.404,6.539-3.062,8.942-5.432c0.101-0.101,0.018-0.259-0.126-0.219
		c-1.446,0.414-2.832,1.492-4.186,2.178c-1.396,0.705-2.748,1.479-4.164,2.131c0.459-1.319,0.933-2.63,1.459-3.924
		c0.374-0.922,0.755-1.852,1.134-2.784c0.769-0.147,1.501-0.653,2.21-0.972c1.269-0.573,2.58-1.037,3.746-1.816
		c0.135-0.09,0.04-0.326-0.119-0.297c-1.078,0.19-2.07,0.677-3.111,0.995c-0.647,0.198-1.478,0.672-2.238,0.879
		c0.76-1.878,1.502-3.777,2.192-5.695c0.637-0.345,1.221-0.762,1.791-1.214c0.589-0.471,1.456-0.92,1.831-1.577
		c0.049-0.084-0.025-0.202-0.115-0.208c-0.635-0.057-1.215,0.429-1.722,0.768c-0.433,0.287-0.858,0.581-1.299,0.851
		c1.161-3.381,2.129-6.814,2.646-10.3c0.011-0.082-0.104-0.112-0.137-0.039c-1.52,3.213-2.708,6.601-3.876,10.006
		c-0.414-0.904-0.908-1.845-1.482-2.63c-0.163-0.224-0.533-0.073-0.496,0.198c0.182,1.313,0.966,2.551,1.51,3.789
		c-0.646,1.886-1.307,3.762-2.017,5.614c-0.335-0.764-0.669-1.531-1.01-2.296c-0.486-1.091-0.748-2.285-1.39-3.296
		c-0.052-0.081-0.182-0.021-0.172,0.069c0.296,2.209,1.137,4.275,1.914,6.348c-0.063,0.137-0.061,0.296,0.076,0.433
		c0.023,0.025,0.047,0.048,0.07,0.069c-0.354,0.88-0.722,1.747-1.112,2.604c-0.59,1.292-1.125,2.605-1.641,3.93
		c-1.183-2.863-2.323-5.758-3.66-8.542c-0.034-0.072-0.146-0.048-0.136,0.033c0.438,3.332,2.21,6.59,3.284,9.818
		c-0.705,1.884-1.362,3.789-2.014,5.696c-0.544-1.079-1.201-2.159-1.666-3.174c-1.162-2.549-2.202-5.422-3.76-7.747
		c-0.087-0.13-0.312-0.039-0.284,0.113c0.444,2.509,1.683,4.891,2.791,7.167c0.727,1.495,1.876,3.458,2.397,5.175
		c-0.662,1.938-1.332,3.872-2.048,5.787c-2.176-4.611-4.094-9.549-6.77-13.832c-0.063-0.104-0.253-0.031-0.226,0.09
		c1.2,5.313,4.31,10.205,6.428,15.207c-0.214,0.546-0.422,1.094-0.646,1.636c-0.572,1.381-1.229,2.729-1.911,4.063
		c-2.639-4.842-4.813-9.843-7.236-14.803c-0.09-0.186-0.348-0.078-0.295,0.117c1.562,5.622,3.986,10.947,6.827,16.018
		c0,0.005,0.003,0.01,0.002,0.016c-0.937,1.767-1.906,3.519-2.834,5.288c-1.385-2.732-2.952-5.373-4.282-8.131
		c-0.984-2.037-1.774-4.967-3.388-6.58c-0.073-0.072-0.172,0.032-0.147,0.11c1.803,5.62,4.711,10.577,7.132,15.939l0,0
		c-0.85,1.686-1.63,3.398-2.276,5.169c-0.743-1.241-1.645-2.404-2.39-3.64c-1.637-2.706-3.061-5.526-4.682-8.238
		c-0.055-0.091-0.174,0-0.151,0.086c1.305,4.939,4.597,8.834,6.651,13.383c-0.618,1.807-1.263,3.652-1.945,5.505
		c-0.995-1.499-1.995-2.995-2.986-4.499c-0.968-1.463-1.639-3.631-3.173-4.595c-0.145-0.091-0.329,0.03-0.268,0.203
		c1.299,3.709,3.663,7.063,5.896,10.301c-0.662,1.738-1.356,3.466-2.098,5.158c-0.422-0.541-0.791-1.201-1.1-1.667
		c-0.573-0.864-1.302-1.64-1.846-2.514c-0.069-0.111-0.235-0.023-0.225,0.092c0.093,1.102,0.814,2.033,1.361,2.962
		c0.415,0.698,0.838,1.478,1.363,2.134c-0.616,1.359-1.258,2.691-1.938,3.975c-0.041,0.077-0.069,0.151-0.092,0.225
		c-6.091,1.013-12.176,2.048-18.244,3.146c-4.252,0.771-8.498,1.55-12.748,2.311c0.462-1.07,0.929-2.135,1.414-3.198
		c1.463-0.035,2.632,0.271,4.116-0.152c1.638-0.468,3.469-0.697,4.744-1.876c0.108-0.099,0.015-0.257-0.123-0.218
		c-1.424,0.4-2.882,0.645-4.313,1.005c-1.384,0.348-2.568,0.156-3.879,0.069c0.26-0.564,0.516-1.126,0.782-1.686
		c1.838-0.036,4.035-1.37,5.546-1.968c2.46-0.969,4.712-2.492,6.533-4.289c0.042-0.04,0.016-0.1-0.039-0.1
		c-0.29-0.004-0.244,0.092-0.579,0.371c-1.206,1.008-2.974,1.568-4.39,2.194c-1.88,0.829-4.153,1.969-6.335,2.264
		c0.777-1.604,1.573-3.201,2.382-4.792c0.378-0.117,0.755-0.256,1.096-0.453c1.172-0.689,2.65-0.848,3.928-1.33
		c1.962-0.74,3.922-1.207,5.605-2.538c0.081-0.063,0.031-0.219-0.08-0.197c-1.758,0.334-3.374,1.259-5.113,1.713
		c-1.444,0.381-3.058,0.904-4.615,1.189c0.73-1.421,1.469-2.838,2.212-4.251c1.45-0.629,2.828-1.141,4.394-1.54
		c1.539-0.392,3.125-0.767,4.508-1.57c0.088-0.049,0.022-0.201-0.074-0.182c-2.688,0.542-5.3,1.252-7.992,1.716
		c0.616-1.163,1.232-2.327,1.852-3.488c0.876-0.103,1.855-0.582,2.599-0.809c0.969-0.295,1.958-0.505,2.942-0.739
		c0.725-0.175,1.331-0.558,2.069-0.683c0.104-0.018,0.199-0.095,0.211-0.205c0.004-0.046,0.011-0.092,0.016-0.137
		c0.005-0.056-0.021-0.104-0.055-0.146c0.004,0.001,0.012,0.004,0.018,0.004c-0.006-0.012-0.024-0.012-0.033-0.02
		c-0.023-0.021-0.046-0.035-0.074-0.045c-0.012-0.002-0.017-0.008-0.026-0.007c-0.044-0.007-0.091-0.002-0.132,0.035
		c0.162-0.146-0.743-0.007-0.8-0.005c-0.837,0.178-1.666,0.498-2.508,0.691c-1.021,0.236-2.023,0.584-3.053,0.79
		c-0.177,0.035-0.354,0.058-0.532,0.072c0.701-1.317,1.402-2.636,2.099-3.952c0.72-0.104,1.555-0.452,2.102-0.581
		c1.454-0.349,3.204-0.603,4.396-1.545c0.165-0.132,0.056-0.384-0.148-0.37c-1.451,0.1-2.928,0.671-4.353,0.989
		c-0.301,0.067-0.877,0.274-1.421,0.416c0.051-0.096,0.102-0.191,0.153-0.288c0.646-1.225,1.266-2.449,1.871-3.672
		c0.976-0.192,1.964-0.294,2.937-0.505c0.791-0.172,1.747-0.046,2.386-0.61c0.097-0.087,0.069-0.264-0.073-0.281
		c-0.909-0.112-1.9,0.043-2.8,0.182c-0.664,0.102-1.326,0.167-1.984,0.27c0.532-1.1,1.044-2.202,1.541-3.31
		c0.234-0.092,0.519-0.121,0.737-0.133c0.596-0.03,1.274-0.317,1.851-0.467c0.742-0.194,1.854-0.415,2.071-1.263
		c0.012-0.053-0.039-0.121-0.094-0.126c-1.071-0.048-2.189,0.4-3.232,0.602c-0.226,0.044-0.497,0.085-0.777,0.134
		c0.538-1.234,1.053-2.484,1.544-3.742c0.186-0.005,0.371-0.005,0.558-0.006c0.492-0.002,1.047-0.216,1.537-0.306
		c0.806-0.147,1.538-0.06,2.127-0.7c0.134-0.146,0.011-0.377-0.163-0.407c-0.753-0.127-1.609,0.001-2.365,0.087
		c-0.42,0.05-0.84,0.116-1.257,0.191c0.354-0.935,0.692-1.881,1.02-2.835c0.607-0.172,1.218-0.335,1.81-0.552
		c0.488-0.18,1.347-0.37,1.509-0.938c0.019-0.065,0.018-0.153-0.051-0.196c-0.497-0.304-1.189,0.027-1.706,0.15
		c-0.381,0.091-0.758,0.194-1.137,0.297c0.293-0.9,0.585-1.828,0.879-2.769c0.289-0.136,0.565-0.356,0.82-0.499
		c0.648-0.368,1.184-0.626,1.685-1.188c0.064-0.071,0.011-0.208-0.086-0.215c-0.679-0.05-1.319,0.107-1.935,0.356
		c0.254-0.813,0.512-1.629,0.777-2.445c0.185-0.12,0.338-0.292,0.502-0.452c0.311-0.303,0.66-0.622,1.019-0.863
		c0.099-0.067,0.058-0.248-0.065-0.257c-0.411-0.019-0.709,0.102-1.041,0.326c0.774-2.29,1.615-4.534,2.617-6.562
		c0.031-0.064-0.044-0.142-0.108-0.11c-1.694,0.814-2.861,3.791-3.716,6.297c-0.116-0.545-0.195-1.106-0.486-1.574
		c-0.045-0.073-0.159-0.048-0.19,0.022c-0.401,0.933-0.014,1.955,0.211,2.943c-0.175,0.529-0.337,1.007-0.484,1.388
		c-0.253,0.648-0.492,1.295-0.732,1.945c-0.034-0.156-0.064-0.305-0.101-0.429c-0.238-0.868-0.327-1.813-0.938-2.518
		c-0.117-0.134-0.313-0.046-0.311,0.126c0.011,1.01,0.321,2.104,0.587,3.086c0.063,0.223,0.161,0.61,0.315,0.949
		c-0.631,1.733-1.239,3.461-1.864,5.178c-0.17-0.862-0.441-1.73-0.62-2.494c-0.197-0.844-0.395-1.677-0.533-2.531
		c-0.049-0.313-0.399-0.609-0.391-0.935c0.002-0.153-0.183-0.211-0.259-0.071c-0.461,0.843,0.008,2.239,0.157,3.124
		c0.258,1.511,0.365,3.251,0.994,4.683c-0.713,1.908-1.479,3.796-2.332,5.662c-0.284-0.966-0.647-1.925-0.931-2.86
		c-0.365-1.204-0.61-2.423-0.906-3.644c-0.127-0.525-0.557-0.979-0.665-1.461c-0.025-0.115-0.17-0.144-0.227-0.032
		c-0.532,1.048,0.26,3.035,0.5,4.118c0.393,1.774,1.047,3.436,1.646,5.131c-0.456,0.941-0.933,1.878-1.452,2.804
		c-0.418,0.746-0.841,1.496-1.26,2.244c-0.411-1.144-0.813-2.29-1.28-3.422c-0.834-2.016-1.286-4.471-2.608-6.211
		c-0.105-0.139-0.308-0.041-0.298,0.119c0.208,3.64,2.014,7.478,3.448,10.834c-0.871,1.55-1.737,3.104-2.603,4.663
		c-0.423-1.209-1.028-2.391-1.521-3.524c-1.002-2.291-1.89-4.779-3.402-6.788c-0.081-0.106-0.259-0.038-0.241,0.097
		c0.558,4.015,3.824,7.412,4.536,11.358c-0.737,1.337-1.47,2.675-2.197,4.019c-0.59-1.126-1.002-2.442-1.544-3.501
		c-1.257-2.447-2.588-4.87-3.892-7.294c-0.058-0.107-0.21-0.048-0.176,0.07c0.869,2.962,2.267,5.605,3.595,8.372
		c0.507,1.058,0.791,2.42,1.406,3.488c-0.718,1.332-1.428,2.666-2.128,4.005c-0.847-1.907-1.767-3.773-2.797-5.592
		c-0.973-1.713-1.356-3.945-2.734-5.375c-0.159-0.164-0.433-0.029-0.356,0.2c1.418,4.172,3.333,8.169,5.149,12.183
		c-0.56,1.079-1.111,2.159-1.657,3.244c-0.839-1.653-1.901-3.262-2.87-4.779c-0.698-1.094-1.342-4.128-2.542-4.886
		c-0.14-0.089-0.283,0.058-0.199,0.197c0.263,0.439,0.313,1.098,0.429,1.575c0.299,1.217,1.021,2.419,1.616,3.511
		c0.978,1.79,2.243,3.582,3.002,5.505c-0.563,1.126-1.112,2.255-1.655,3.389c-1.526-2.947-3.337-6.099-3.949-9.288
		c-0.022-0.115-0.214-0.136-0.22-0.003c-0.188,3.537,2.243,7.233,3.612,10.446c-0.84,1.773-1.667,3.554-2.454,5.344
		c-4.381,0.772-8.768,1.522-13.171,2.2c-4.759,0.733-9.604,1.218-14.391,1.787c-4.049,0.482-7.259,2.089-10.993,3.302
		c-0.893-0.244-2.04,0.564-1.59,1.688l0.095,0.234C7.03,116.75,7.752,116.967,8.422,116.768z"/>
</g>
</svg>
