<?xml version="1.0" encoding="utf-8"?>
<!-- Generator: Adobe Illustrator 16.0.0, SVG Export Plug-In . SVG Version: 6.00 Build 0)  -->
<!DOCTYPE svg PUBLIC "-//W3C//DTD SVG 1.1//EN" "http://www.w3.org/Graphics/SVG/1.1/DTD/svg11.dtd">
<svg version="1.1" id="Layer_1" xmlns="http://www.w3.org/2000/svg" xmlns:xlink="http://www.w3.org/1999/xlink" x="0px" y="0px"
	 width="118.815px" height="167.248px" viewBox="0 0 118.815 167.248" enable-background="new 0 0 118.815 167.248"
	 xml:space="preserve">
<g>
	
		<linearGradient id="SVGID_1_" gradientUnits="userSpaceOnUse" x1="27.3208" y1="121.7866" x2="117.2256" y2="121.7866" gradientTransform="matrix(0.9739 -0.2269 0.2269 0.9739 -37.9023 -13.8997)">
		<stop  offset="0" style="stop-color:#B7D433"/>
		<stop  offset="1" style="stop-color:#6FA642"/>
	</linearGradient>
	<path fill="url(#SVGID_1_)" d="M25.657,17.711c-3.522,1.195-2.453,5.099-3.422,7.375c-0.642,1.506-1.286,2.156-1.201,3.97
		c0.079,1.737,1.164,3.3,1.175,5.073c0.018,3.42-2.822,4.989-0.031,8.361c1.069,1.291,2.18,1.709,2.157,3.545
		c-0.017,1.328-0.763,2.607-1.532,3.732c-3.376,4.929-8.307,8.724-10.028,14.592c-0.844,2.876-1.743,6.651,0.372,9.154
		c2.198,2.596,6.125,1.145,8.289,3.415c4.303,4.516-2.19,12.739-3.083,17.569c-0.545,2.946-0.32,6.23-0.049,9.199
		c0.232,2.535-0.158,6.82,2.436,8.368c4.906,2.931,13.932-4.677,15.412,3.95c0.542,3.161,0.479,6.588,1.003,9.819
		c0.283,1.74,0.911,3.387,0.968,5.121c0.055,1.666-0.085,3.198,0.087,4.901c0.57,5.61,2.821,12.391,8.744,14.386
		c3.604,1.216,4.814-1.298,7.652-2.757c3.865-1.986,5.109,1.563,6.375,4.457c2.287,5.233,7.594,11.549,14.019,8.714
		c1.343-0.594,2.548-1.248,3.712-2.203c1.145-0.936,2.126-2.445,3.74-2.533c1.759-0.097,2.516,1.358,3.789,2.283
		c1.192,0.867,2.781,1.449,4.219,1.585c3.075,0.29,6.494-0.492,9.088-2.076c2.582-1.577,3.81-4.394,4.711-7.123
		c0.959-2.898,2.789-5.64,2.938-8.765c0.073-1.545-0.182-3.26-0.937-4.707c-0.646-1.236-2.42-2.508-2.168-3.981
		c0.383-2.25,5.004-2.77,6.24-5.138c1.51-2.894,0.832-6.525-0.803-9.184c-2.172-3.537-12.678-10.263-5.387-13.943
		c1.461-0.738,3.059-0.714,4.043-2.161c0.812-1.191,0.723-3.117,0.412-4.427c-0.784-3.31-3.65-4.563-6.17-6.52
		c-2.629-2.036-5.273-3.904-8.044-5.79c-2.136-1.452-5.326-3.12-6.019-5.656c-0.983-3.602,3.083-4.633,5.148-6.381
		c2.807-2.375,2.029-5.24,0.504-7.991c-2.436-4.396-8.535-8.403-13.434-9.641c-3.088-0.778-6.162-1.662-9.262-2.339
		c-2.811-0.614-6.361,0.26-8.844-1.463c-2.957-2.053-1.616-5.393,0.045-7.877c1.848-2.773,1.301-5.848-1.561-7.813
		c-2.606-1.792-5.833-1.168-8.718-1.387c-2.696-0.204-6.415-0.345-8.874-1.57c-3.531-1.757-0.448-5.79-2.992-8.297
		c-1.13-1.116-3.058-0.675-4.017-1.569c-1.352-1.262-0.938-2.855-3.096-3.722c-0.703-0.283-1.511-0.203-2.038-0.639
		c-0.375-0.312-0.644-1.238-1.184-1.702c-0.978-0.839-2.994-1.83-3.67-0.814L25.657,17.711z"/>
	
		<linearGradient id="SVGID_2_" gradientUnits="userSpaceOnUse" x1="54.6494" y1="60.2554" x2="86.4375" y2="60.2554" gradientTransform="matrix(0.9739 -0.2269 0.2269 0.9739 -37.9023 -13.8997)">
		<stop  offset="0" style="stop-color:#F8B22F"/>
		<stop  offset="0.1429" style="stop-color:#F7AA2E"/>
		<stop  offset="0.3821" style="stop-color:#F3982B"/>
		<stop  offset="0.6881" style="stop-color:#ED7A27"/>
		<stop  offset="1" style="stop-color:#E85224"/>
	</linearGradient>
	<path fill="url(#SVGID_2_)" d="M48.555,43.448c1.551-0.077,2.987-0.339,4.423-0.603c1.436-0.264,3.11-0.726,4.344-0.942
		c1.233-0.214,2.877-0.812,3.907-0.98c0.5-0.083,1.395-0.492,2.184-0.892c-0.34-1.211-1.157-2.329-2.451-3.216
		c-2.606-1.792-5.833-1.168-8.718-1.387c-2.696-0.204-6.415-0.345-8.874-1.57c-3.531-1.757-0.448-5.79-2.992-8.297
		c-1.13-1.116-3.058-0.675-4.017-1.569c-1.352-1.262-0.938-2.855-3.096-3.722c-0.703-0.283-1.511-0.203-2.038-0.639
		c-0.375-0.312-0.644-1.238-1.184-1.702c-0.978-0.839-2.994-1.83-3.67-0.814l-0.717,0.595c-0.027,0.01-0.049,0.023-0.076,0.033
		c0.945,2.101,1.705,4.545,2.646,6.695c1.218,2.782,1.979,5.743,3.173,9.029c1.193,3.287,2.231,6.825,2.31,7.163
		c0.079,0.337,0.563,0.583,1.684,1.105c1.119,0.522,2.921,0.602,4.467,0.813c1.546,0.21,2.505,0.344,4.353,0.626
		C46.062,43.457,47.005,43.523,48.555,43.448z"/>
	
		<linearGradient id="SVGID_3_" gradientUnits="userSpaceOnUse" x1="45.0962" y1="56.6611" x2="56.2656" y2="56.6611" gradientTransform="matrix(0.9739 -0.2269 0.2269 0.9739 -37.9023 -13.8997)">
		<stop  offset="0" style="stop-color:#F8B22F"/>
		<stop  offset="0.1429" style="stop-color:#F7AA2E"/>
		<stop  offset="0.3821" style="stop-color:#F3982B"/>
		<stop  offset="0.6881" style="stop-color:#ED7A27"/>
		<stop  offset="1" style="stop-color:#E85224"/>
	</linearGradient>
	<path fill="url(#SVGID_3_)" d="M26.673,20.523c-0.52-0.827-1.083-1.778-1.565-2.582c-2.854,1.404-1.957,4.998-2.872,7.145
		c-0.642,1.506-1.286,2.156-1.201,3.97c0.079,1.737,1.164,3.3,1.175,5.073c0.017,3.257-2.544,4.838-0.383,7.891
		c0.534-0.691,1.135-1.752,1.468-2.029c0.478-0.396,1.089-1.752,1.312-2.017c0.224-0.266,1.667-2.028,2.313-2.321
		c0.645-0.293,2.274-2.17,2.633-2.467c0.358-0.298,1.143-0.909,1.013-1.164c-0.131-0.255-1.104-3.521-1.77-5.149
		C28.129,25.246,27.807,22.326,26.673,20.523z"/>
	
		<linearGradient id="SVGID_4_" gradientUnits="userSpaceOnUse" x1="29.3125" y1="79.2344" x2="58.6914" y2="79.2344" gradientTransform="matrix(0.9739 -0.2269 0.2269 0.9739 -37.9023 -13.8997)">
		<stop  offset="0" style="stop-color:#F8B22F"/>
		<stop  offset="0.1429" style="stop-color:#F7AA2E"/>
		<stop  offset="0.3821" style="stop-color:#F3982B"/>
		<stop  offset="0.6881" style="stop-color:#ED7A27"/>
		<stop  offset="1" style="stop-color:#E85224"/>
	</linearGradient>
	<path fill="url(#SVGID_4_)" d="M29.917,56.488c1.163-1.126,3.67-4.136,4.32-4.714c0.649-0.579,2.01-2.393,2.01-2.393l0.559-1.272
		c0,0-1.477-4.504-2.178-5.98c-0.699-1.478-1.815-4.426-2.432-5.852c-0.616-1.423-1.824-3.852-1.824-3.852s-1.116,1.33-1.781,1.841
		c-0.665,0.511-2.426,2.135-3.024,2.63c-0.598,0.496-1.352,1.241-1.782,1.84s-1.364,2.1-1.812,2.633
		c-0.1,0.119-0.227,0.225-0.363,0.326c0.158,0.255,0.338,0.518,0.568,0.796c1.069,1.291,2.18,1.709,2.157,3.545
		c-0.017,1.328-0.763,2.607-1.532,3.732c-3.376,4.929-8.307,8.724-10.028,14.592c-0.844,2.876-1.743,6.651,0.372,9.154
		c0.332,0.39,0.706,0.682,1.103,0.915c0.193-0.317,0.391-0.638,0.587-0.953c1.037-1.667,2.47-3.784,2.988-4.618
		c0.519-0.832,1.852-3.068,2.705-3.694c0.852-0.627,3.739-4.152,4.711-4.877C26.212,59.561,28.754,57.614,29.917,56.488z"/>
	
		<linearGradient id="SVGID_5_" gradientUnits="userSpaceOnUse" x1="27.3267" y1="106.1216" x2="62.7881" y2="106.1216" gradientTransform="matrix(0.9739 -0.2269 0.2269 0.9739 -37.9023 -13.8997)">
		<stop  offset="0" style="stop-color:#F8B22F"/>
		<stop  offset="0.1429" style="stop-color:#F7AA2E"/>
		<stop  offset="0.3821" style="stop-color:#F3982B"/>
		<stop  offset="0.6881" style="stop-color:#ED7A27"/>
		<stop  offset="1" style="stop-color:#E85224"/>
	</linearGradient>
	<path fill="url(#SVGID_5_)" d="M38.868,52.977c-0.44-0.968-2.156-5.273-2.062-4.868c0.095,0.406-2.713,4.269-3.585,5.114
		c-0.873,0.845-2.488,2.789-4.452,4.46c-1.964,1.669-3.768,2.802-4.952,4.147c-1.184,1.346-2.82,2.582-3.869,3.896
		c-1.049,1.313-1.999,2.746-2.497,3.36c-0.435,0.537-2.566,3.521-3.524,5.134c2.256,1.607,5.58,0.686,7.508,2.708
		c4.303,4.516-2.19,12.739-3.083,17.569c-0.545,2.946-0.32,6.23-0.049,9.199c0.197,2.157-0.048,5.576,1.47,7.502
		c0.487-0.674,1.259-1.747,2.279-2.47c1.345-0.955,2.405-1.915,2.805-2.649c0.399-0.734,1.291-2.724,1.689-3.459
		s1.429-3.044,1.829-3.778c0.399-0.733,1.914-3.726,2.572-4.877c0.659-1.151,2.032-3.824,3.007-5.764
		c0.975-1.938,2.114-4.698,3.108-6.854c0.995-2.157,2.665-5.399,3.183-6.232c0.519-0.833,1.994-2.459,3.115-4.076
		c1.121-1.616,2.273-3.096,2.273-3.096s-1.719-5.232-2.836-6.97C41.681,59.238,39.307,53.944,38.868,52.977z"/>
	
		<linearGradient id="SVGID_6_" gradientUnits="userSpaceOnUse" x1="27.6826" y1="139.2339" x2="68.3418" y2="139.2339" gradientTransform="matrix(0.9739 -0.2269 0.2269 0.9739 -37.9023 -13.8997)">
		<stop  offset="0" style="stop-color:#F8B22F"/>
		<stop  offset="0.1429" style="stop-color:#F7AA2E"/>
		<stop  offset="0.3821" style="stop-color:#F3982B"/>
		<stop  offset="0.6881" style="stop-color:#ED7A27"/>
		<stop  offset="1" style="stop-color:#E85224"/>
	</linearGradient>
	<path fill="url(#SVGID_6_)" d="M52.023,82.212c-1.404-2.668-2.678-6.292-3.896-9.074c-1.217-2.781-2.109-4.364-2.201-4.551
		c-0.408-0.831-0.697,0.376-0.697,0.376s-1.111,1.044-1.869,2.076c-0.756,1.032-2.103,2.913-2.71,3.981
		c-0.606,1.069-2.061,2.479-2.641,3.968c-0.579,1.488-2.154,5.135-2.698,6.475c-0.544,1.339-2.533,5.652-3.052,6.486
		c-0.519,0.834-2.364,4.543-2.676,5.044c-0.31,0.5-0.73,1.454-1.077,2.104c-0.348,0.65-1.586,3.293-1.966,3.809
		c-0.379,0.517-1.063,2.174-1.561,2.789c-0.498,0.614-1.543,1.642-1.701,1.958c-0.157,0.317-1.925,1.453-2.232,1.667
		c-0.289,0.202-0.922,1.12-1.426,1.683c0.293,0.423,0.657,0.787,1.117,1.063c4.906,2.931,13.932-4.677,15.412,3.95
		c0.542,3.161,0.479,6.588,1.003,9.819c0.283,1.74,0.911,3.387,0.968,5.121c0.055,1.666-0.085,3.198,0.087,4.901
		c0.57,5.61,2.821,12.391,8.744,14.386c0.241,0.081,0.468,0.144,0.69,0.192c0.118-1.74,0.247-3.615,0.317-4.246
		c0.138-1.244,0.093-2.662,0.314-3.853c0.221-1.192,0.734-4.806,1.076-6.099c0.34-1.29,1.905-7.431,2.182-8.992
		c0.278-1.563,1.718-12.522,1.767-14.459c0.048-1.936,1.855-11.627,2.193-13.844c0.339-2.218,1.899-5.007,1.899-5.007
		s-0.977-2.053-2.299-4.668C53.77,86.654,53.429,84.878,52.023,82.212z"/>
	
		<linearGradient id="SVGID_7_" gradientUnits="userSpaceOnUse" x1="45.8486" y1="161.2271" x2="77.2988" y2="161.2271" gradientTransform="matrix(0.9739 -0.2269 0.2269 0.9739 -37.9023 -13.8997)">
		<stop  offset="0" style="stop-color:#F8B22F"/>
		<stop  offset="0.1429" style="stop-color:#F7AA2E"/>
		<stop  offset="0.3821" style="stop-color:#F3982B"/>
		<stop  offset="0.6881" style="stop-color:#ED7A27"/>
		<stop  offset="1" style="stop-color:#E85224"/>
	</linearGradient>
	<path fill="url(#SVGID_7_)" d="M65.104,107.757c-1.808-2.858-3.509-5.886-4.863-8.635c-1.354-2.752-2.519-4.691-2.519-4.691
		c-0.575-0.937-0.656-0.06-0.656-0.06s-0.331,0.719-0.808,2.041c-0.477,1.322-1.094,4.177-1.285,5.504
		c-0.19,1.328-1.116,6.535-1.17,7.831s-0.396,4.729-0.582,5.769c-0.186,1.041-0.723,5.16-0.933,6.707
		c-0.21,1.545-0.747,4.45-0.755,5.023c-0.009,0.571-0.876,4.197-1.088,4.815c-0.213,0.619-0.944,4.214-1.104,4.749
		c-0.16,0.537-0.154,1.178-0.526,2.334c-0.374,1.156-0.632,3.712-0.762,4.383c-0.128,0.673-0.31,3.568-0.408,4.374
		c-0.042,0.345-0.115,1.383-0.197,2.484c3.222,0.828,4.455-1.511,7.156-2.899c3.865-1.986,5.109,1.563,6.375,4.457
		c2.239,5.121,7.371,11.275,13.611,8.876c-0.614-2-1.78-5.821-2.095-6.941c-0.429-1.541-0.662-3.768-0.989-5.473
		c-0.326-1.708-0.729-5.893-0.796-7.089c-0.064-1.196,0.181-5.96,0.283-7.054c0.102-1.092,0.936-7.919,0.908-8.341
		c-0.026-0.42,0.484-7.1,0.484-7.1s-1.116-1.736-2.817-3.835C67.867,112.888,66.91,110.616,65.104,107.757z"/>
	
		<linearGradient id="SVGID_8_" gradientUnits="userSpaceOnUse" x1="69.3672" y1="176.8579" x2="96.5625" y2="176.8579" gradientTransform="matrix(0.9739 -0.2269 0.2269 0.9739 -37.9023 -13.8997)">
		<stop  offset="0" style="stop-color:#F8B22F"/>
		<stop  offset="0.1429" style="stop-color:#F7AA2E"/>
		<stop  offset="0.3821" style="stop-color:#F3982B"/>
		<stop  offset="0.6881" style="stop-color:#ED7A27"/>
		<stop  offset="1" style="stop-color:#E85224"/>
	</linearGradient>
	<path fill="url(#SVGID_8_)" d="M98.631,154.35c-0.412-0.547-2.618-2.669-3.313-3.507c-0.693-0.837-3.656-4.067-4.299-4.987
		c-0.643-0.921-3.93-4.931-4.205-5.51c-0.278-0.576-3.563-5.8-4.091-6.533c-0.526-0.733-3.502-5.245-4.16-6.232
		c-0.657-0.987-3.853-5.52-3.853-5.52l-0.809-1.023c-0.25-0.156-1.483-2.078-1.488-1.793c-0.004,0.286-0.59,2.063-0.594,4.488
		c-0.006,2.426-0.341,6.497-0.494,7.673c-0.153,1.177-0.479,5.602-0.584,6.98c-0.107,1.38,0.039,3.842,0.146,5.528
		c0.107,1.686,0.361,3.694,0.672,5.333c0.311,1.64,0.296,2.498,0.727,4.038c0.43,1.54,1.338,4.821,1.547,5.414
		c0.112,0.317,0.372,1.271,0.631,2.171c0.178-0.064,0.355-0.134,0.534-0.213c1.343-0.594,2.548-1.248,3.712-2.203
		c1.145-0.936,2.126-2.445,3.74-2.533c1.759-0.097,2.516,1.358,3.789,2.283c1.192,0.867,2.781,1.449,4.219,1.585
		c3.075,0.29,6.494-0.492,9.088-2.076c0.53-0.323,0.992-0.71,1.417-1.127C100.273,155.827,99.033,154.882,98.631,154.35z"/>
	
		<linearGradient id="SVGID_9_" gradientUnits="userSpaceOnUse" x1="72.9883" y1="170.3042" x2="110.2988" y2="170.3042" gradientTransform="matrix(0.9739 -0.2269 0.2269 0.9739 -37.9023 -13.8997)">
		<stop  offset="0" style="stop-color:#F8B22F"/>
		<stop  offset="0.1429" style="stop-color:#F7AA2E"/>
		<stop  offset="0.3821" style="stop-color:#F3982B"/>
		<stop  offset="0.6881" style="stop-color:#ED7A27"/>
		<stop  offset="1" style="stop-color:#E85224"/>
	</linearGradient>
	<path fill="url(#SVGID_9_)" d="M108.771,129.56c-0.754-0.842-1.723-1.886-2.687-2.9c-1.888-1.984-0.85-0.585-2.659-2.232
		c-1.811-1.646-2.163-1.636-3.857-3.094c-1.695-1.459-3.848-2.741-5.464-3.861c-1.615-1.121-3.995-1.85-6.065-3.079
		c-2.068-1.229-4.875-2.571-7.605-3.576c-2.729-1.004-4.358-1.267-5.977-1.175c-1.619,0.093-3.822-0.179-5.791-0.362
		c-1.967-0.184-2.436-0.359-2.436-0.359c-1.137-0.592-0.457,0.178,0.331,1.421c0.788,1.242,1.906,2.978,3.222,4.953
		c1.315,1.975,2.736,3.783,4.119,5.743c1.383,1.961,3.105,4.767,4.145,6.165c1.041,1.398,3.158,4.683,4.01,6.194
		c0.854,1.514,3.839,5.453,4.694,6.68c0.854,1.226,2.188,3.27,3.544,4.808s3.219,4.026,4.063,4.9
		c0.847,0.872,2.948,3.162,3.528,3.813c0.578,0.648,1.34,1.468,1.902,2.05c0.224,0.232,0.596,0.663,0.988,1.114
		c1.762-1.626,2.737-3.923,3.48-6.172c0.959-2.898,2.789-5.64,2.938-8.765c0.073-1.545-0.182-3.26-0.937-4.707
		c-0.646-1.236-2.42-2.508-2.168-3.981C104.373,131.486,106.938,130.763,108.771,129.56z"/>
	
		<linearGradient id="SVGID_10_" gradientUnits="userSpaceOnUse" x1="66.8145" y1="146.2778" x2="116.7637" y2="146.2778" gradientTransform="matrix(0.9739 -0.2269 0.2269 0.9739 -37.9023 -13.8997)">
		<stop  offset="0" style="stop-color:#F8B22F"/>
		<stop  offset="0.1429" style="stop-color:#F7AA2E"/>
		<stop  offset="0.3821" style="stop-color:#F3982B"/>
		<stop  offset="0.6881" style="stop-color:#ED7A27"/>
		<stop  offset="1" style="stop-color:#E85224"/>
	</linearGradient>
	<path fill="url(#SVGID_10_)" d="M104.143,104.873c1.461-0.738,3.059-0.714,4.043-2.161c0.32-0.472,0.498-1.059,0.578-1.678
		c-0.793-0.187-1.639-0.39-2.139-0.525c-1.142-0.304-3.863-0.667-4.656-0.697c-0.791-0.029-3.742-0.769-4.311-1.063
		s-3.902-1.444-5.329-1.754c-1.427-0.309-6.385-2.006-7.14-2.186c-0.756-0.183-6.887-2.318-9.267-3.047
		c-2.38-0.729-10.389-2.357-10.894-2.383c-0.504-0.024-4.759-1.458-5.687-1.456c-0.926,0.002-3.66-0.716-4.201-0.59
		c-0.542,0.126-0.859-0.014-0.859-0.014c0.047,0.203,0.835,2.658,1.44,3.729c0.604,1.071,3.286,6.151,4.138,7.663
		c0.851,1.514,1.412,3.308,2.889,5.674c1.479,2.364,2.497,3.981,2.497,3.981s0.233,0.088,0.854,0.3
		c0.621,0.212,2.906,0.535,3.781,0.617c0.874,0.081,2.878,0.113,4.242,0.151c1.363,0.04,3.681,0.498,5.258,0.843
		c1.578,0.346,2.286,0.324,4.605,1.71c2.318,1.384,5.548,2.7,7.382,3.841c1.837,1.141,3.28,2.445,5.515,3.777
		c2.236,1.334,2.65,1.88,4.781,3.379c2.132,1.5,1.664,1.323,3.222,2.813c1.56,1.491,1.894,1.699,3.167,3.186
		c0.191,0.223,0.384,0.447,0.576,0.668c0.723-0.456,1.352-0.978,1.703-1.651c1.51-2.894,0.832-6.525-0.803-9.184
		C107.357,115.279,96.852,108.553,104.143,104.873z"/>
	
		<linearGradient id="SVGID_11_" gradientUnits="userSpaceOnUse" x1="61.3984" y1="117.979" x2="117.2256" y2="117.979" gradientTransform="matrix(0.9739 -0.2269 0.2269 0.9739 -37.9023 -13.8997)">
		<stop  offset="0" style="stop-color:#F8B22F"/>
		<stop  offset="0.1429" style="stop-color:#F7AA2E"/>
		<stop  offset="0.3821" style="stop-color:#F3982B"/>
		<stop  offset="0.6881" style="stop-color:#ED7A27"/>
		<stop  offset="1" style="stop-color:#E85224"/>
	</linearGradient>
	<path fill="url(#SVGID_11_)" d="M94.384,85.975c-2.136-1.452-5.326-3.12-6.019-5.656c-0.983-3.602,3.083-4.633,5.148-6.381
		c0.488-0.413,0.861-0.84,1.146-1.28c-1.42-0.507-2.824-1.03-3.216-1.197c-0.87-0.367-3.766-1.476-4.068-1.548
		c-0.304-0.073-6.743-1.71-7.416-1.839c0,0-2.717-0.649-3.628-0.579c-0.911,0.069-6.311-0.455-8.008-0.702
		c-1.696-0.246-7.008-1.006-8.185-1.16c-1.175-0.153-4.536-1.724-6.015-1.949c-1.479-0.226-4.402-1.755-5.625-2.112
		c-1.224-0.355-4.416-0.896-4.734-1.036c-0.316-0.139-1.312-0.122-1.312-0.122s1.385,2.885,1.935,4.326
		c0.55,1.441,3.223,8.019,4.462,10.582c1.24,2.564,2.615,6.022,3.676,8.128c1.061,2.105,1.971,4.176,1.971,4.176
		s0.836-0.693,2.446-0.212c1.609,0.48,5.05,1.175,7.233,1.665c2.182,0.49,6.529,1.402,8.207,1.867
		c1.676,0.465,4.58,1.001,6.54,1.757s3.651,1.288,6.267,2.106c2.615,0.816,4.176,1.094,5.566,1.555
		c1.391,0.46,3.203,0.893,4.625,1.488c1.423,0.597,2.511,0.984,3.938,1.295c1.428,0.308,1.822,0.693,3.033,0.885
		c1.002,0.159,4.664,0.738,6.395,1.143c0.153-0.982,0.049-2.059-0.148-2.889c-0.784-3.31-3.65-4.563-6.17-6.52
		C99.799,89.729,97.154,87.861,94.384,85.975z"/>
	
		<linearGradient id="SVGID_12_" gradientUnits="userSpaceOnUse" x1="58.0664" y1="92.6392" x2="110.875" y2="92.6392" gradientTransform="matrix(0.9739 -0.2269 0.2269 0.9739 -37.9023 -13.8997)">
		<stop  offset="0" style="stop-color:#F8B22F"/>
		<stop  offset="0.1429" style="stop-color:#F7AA2E"/>
		<stop  offset="0.3821" style="stop-color:#F3982B"/>
		<stop  offset="0.6881" style="stop-color:#ED7A27"/>
		<stop  offset="1" style="stop-color:#E85224"/>
	</linearGradient>
	<path fill="url(#SVGID_12_)" d="M55.333,63.971c1.928,0.621,4.176,1.094,5.87,1.628c1.692,0.533,3.983,0.569,6.117,0.857
		c2.134,0.287,4.39,0.475,5.8,0.716c1.41,0.242,3.833,0.534,5.229,0.708c1.395,0.174,3.882,0.449,5.289,0.978
		c1.405,0.529,2.916,0.89,4.104,1.397c1.188,0.508,1.089,0.389,3.095,1.348c1.48,0.707,2.539,1.279,3.344,1.679
		c1.984-2.237,1.225-4.833-0.162-7.335c-2.436-4.396-8.535-8.403-13.434-9.641c-3.088-0.778-6.162-1.662-9.262-2.339
		c-2.811-0.614-6.361,0.26-8.844-1.463c-2.957-2.053-1.616-5.393,0.045-7.877c1.033-1.551,1.317-3.197,0.865-4.69
		c-0.715,0.335-1.467,0.687-1.77,0.823c-0.646,0.293-2.315,0.469-2.773,0.646c-0.458,0.178-3.703,0.934-4.177,1.044
		c-0.474,0.11-2.987,0.339-3.715,0.581c-0.729,0.24-3.003,0.271-3.862,0.258c-0.86-0.014-3.466-0.192-4.493-0.309
		c-1.025-0.118-3.498-0.325-4.42-0.609c-0.922-0.286-3.557-0.883-3.557-0.883s0.801,1.596,1.55,4.202
		c0.749,2.606,2.944,6.517,3.524,8.093c0.581,1.575,1.789,4.003,2.096,4.715c0.309,0.714,0.66,1.915,0.66,1.915
		s0.732-0.526,2.238,0.12c1.506,0.647,4.157,1.313,4.157,1.313s1.843,0.569,3.046,1.146C53.099,63.565,53.405,63.351,55.333,63.971z
		"/>
	
		<linearGradient id="SVGID_13_" gradientUnits="userSpaceOnUse" x1="31.9946" y1="114.6597" x2="110.8408" y2="114.6597" gradientTransform="matrix(0.9739 -0.2269 0.2269 0.9739 -37.9023 -13.8997)">
		<stop  offset="0" style="stop-color:#FCCB6E"/>
		<stop  offset="0.0094" style="stop-color:#FCCA6B"/>
		<stop  offset="0.1734" style="stop-color:#F7B149"/>
		<stop  offset="0.3273" style="stop-color:#F49F31"/>
		<stop  offset="0.4658" style="stop-color:#F29524"/>
		<stop  offset="0.5758" style="stop-color:#F29220"/>
		<stop  offset="1" style="stop-color:#E01E26"/>
	</linearGradient>
	<path fill="url(#SVGID_13_)" d="M102.358,99.875c-3.687-0.63-7.241-2.541-10.868-3.527c-4.098-1.116-8.086-2.773-12.175-3.982
		c-8.208-2.429-16.435-3.915-24.728-5.886c-0.313-0.706-0.639-1.402-0.942-2.116c-2.437-5.723-4.964-11.405-7.495-17.087
		c-0.018-0.074-0.046-0.139-0.087-0.196c-0.898-2.019-1.795-4.035-2.69-6.053c2.815,0.671,5.234,1.183,8.111,2.628
		c3.303,1.657,6.831,2.308,10.462,2.815c9.322,1.304,18.767,1.167,27.658,4.668c0.104,0.041,0.18-0.127,0.08-0.177
		c-7.197-3.633-15.686-4.125-23.547-5.055c-5.309-0.629-10.399-1.477-15.202-3.91c-2.76-1.4-5.359-1.735-8.213-2.442
		c-2.102-4.755-4.177-9.523-6.175-14.323c-0.432-1.037-0.842-2.081-1.243-3.129c1.599,0.89,9.121,1.425,10.429,1.59
		c4.83,0.608,8.952-0.686,13.46-2.314c0.039-0.014,0.028-0.071-0.015-0.064c-4.661,0.749-8.591,2.056-13.409,1.485
		c-3.102-0.369-7.736-0.645-10.836-1.684c-2.033-5.451-3.71-11.035-5.298-16.628c-0.827-2.904-1.957-5.103-3.49-7.679
		c-1.625-2.728-1.744-6.167-3.269-8.996c-0.556-1.034-2.159-0.409-1.909,0.725c0.059,0.271,0.119,0.543,0.177,0.815
		c0.076,0.342,0.273,0.56,0.518,0.675c0.902,2.131,1.244,4.422,2.27,6.502c1.621,3.278,3.303,6.164,4.338,9.717
		c0.564,1.936,1.162,3.864,1.776,5.788c-0.847,1.259-1.734,2.298-2.979,3.274c-1.297,1.019-2.423,2.213-3.142,3.705
		c-0.051,0.104,0.089,0.198,0.154,0.096c0.973-1.534,2.328-2.557,3.706-3.688c0.667-0.549,1.313-1.122,1.97-1.684
		c0.258-0.22,0.447-0.445,0.627-0.676c1.26,3.874,2.624,7.716,4.163,11.485c0.511,1.25,1.034,2.493,1.559,3.738
		c-2.736,3.382-4.801,6.802-8.329,9.559c-3.879,3.032-8.014,7.104-10.186,11.579c-0.007,0.015,0.013,0.028,0.023,0.013
		c5.331-7.758,13.801-12.114,19.034-19.85c2.605,6.144,5.349,12.235,8.113,18.314c-1.018,2.617-3.703,5.362-5.222,7.544
		c-2.137,3.069-3.542,6.98-5.022,10.41c-1.562,3.617-3.282,7.171-5.177,10.631c-1.934,3.53-3.337,8.279-6.057,11.169
		c-0.018,0.021,0.006,0.06,0.031,0.042c2.602-1.704,3.252-4.759,4.505-7.447c1.832-3.933,4.422-7.581,6.336-11.499
		c2.083-4.264,4.112-8.515,6.381-12.686c1.243-2.287,3.609-4.325,4.891-6.696c2.369,5.203,4.749,10.402,7.068,15.62
		c1.309,2.947,2.705,5.828,4.154,8.669c-3.381,7.456-3.22,16.546-4.249,24.522c-0.68,5.278-1.516,10.436-2.631,15.634
		c-0.741,3.452-1.813,7.394-1.812,10.894c0,0.018,0.024,0.018,0.027,0.001c1.09-7.31,3.552-14.43,4.593-21.788
		c1.278-9.038,1.529-19.14,4.84-27.754c4.196,8.044,8.931,15.721,14.056,23.272c0.486,6.21-1.211,12.463-1.179,18.685
		c0.034,6.779,0.732,12.76,2.792,19.275c0.025,0.079,0.141,0.054,0.127-0.03c-0.506-3.042-1.292-6.024-1.808-9.065
		c-0.644-3.789-0.317-7.694-0.291-11.517c0.036-5.21,1.595-10.474,1.497-15.694c0.565,0.824,1.125,1.647,1.698,2.468
		c3.841,5.48,7.566,11.054,11.505,16.462c3.836,5.27,8.014,11.195,12.898,15.536c0.116,0.104,0.295-0.062,0.178-0.171
		c-9.919-9.313-16.936-22.432-24.581-33.588c-2.58-3.764-5.056-7.539-7.428-11.357c1.983,0.491,4.194,0.363,6.194,0.454
		c4.668,0.212,8.686,1.814,12.859,3.771c6.851,3.211,13.607,7.851,19.495,12.58c0.069,0.056,0.16-0.059,0.099-0.12
		c-5.309-5.314-12.445-9.833-19.094-13.264c-2.91-1.501-5.822-2.735-9.005-3.525c-3.626-0.899-7.667-0.016-11.174-1.271
		c-0.085-0.03-0.167-0.03-0.245-0.02c-3.984-6.508-7.618-13.178-10.812-20.198c3.08,0.771,6.235,1.227,9.369,1.707
		c5.358,0.823,10.717,2.69,15.923,4.174c4,1.14,7.913,2.653,11.957,3.602c3.303,0.774,6.516,2.432,9.904,2.7
		C102.455,100.04,102.455,99.891,102.358,99.875z"/>
</g>
</svg>
