<?xml version="1.0" encoding="utf-8"?>
<!-- Generator: Adobe Illustrator 16.0.0, SVG Export Plug-In . SVG Version: 6.00 Build 0)  -->
<!DOCTYPE svg PUBLIC "-//W3C//DTD SVG 1.1//EN" "http://www.w3.org/Graphics/SVG/1.1/DTD/svg11.dtd">
<svg version="1.1" id="Layer_1" xmlns="http://www.w3.org/2000/svg" xmlns:xlink="http://www.w3.org/1999/xlink" x="0px" y="0px"
	 width="103.833px" height="143.554px" viewBox="0 0 103.833 143.554" enable-background="new 0 0 103.833 143.554"
	 xml:space="preserve">
<g>
	
		<linearGradient id="SVGID_1_" gradientUnits="userSpaceOnUse" x1="-346.9941" y1="25.9746" x2="-239.8389" y2="25.9746" gradientTransform="matrix(-0.6149 -0.7886 0.7886 -0.6149 -145.9954 -145.3179)">
		<stop  offset="0" style="stop-color:#E75E24"/>
		<stop  offset="0.0692" style="stop-color:#E65525"/>
		<stop  offset="0.2787" style="stop-color:#E33C25"/>
		<stop  offset="0.468" style="stop-color:#E12726"/>
		<stop  offset="0.6182" style="stop-color:#E01E26"/>
		<stop  offset="0.7033" style="stop-color:#D81E25"/>
		<stop  offset="0.8143" style="stop-color:#C41E24"/>
		<stop  offset="0.9391" style="stop-color:#A61C20"/>
		<stop  offset="0.9818" style="stop-color:#9A1B1F"/>
	</linearGradient>
	<path fill="url(#SVGID_1_)" d="M9.329,74.092c-0.734-1.003-0.437-3.17-0.95-4.369c-0.558-1.299-0.993-3.092-1.863-4.208
		c0.732,0.574,2.504,0.912,3.611,1.299c1.36,0.477,2.616,0.883,4.075,0.703c1.747-0.216,1.064-1.786,0.585-3.147
		c-0.394-1.116-1.089-2.579-2.018-3.366c1.395,0.338,2.405,0.959,2.39-0.836c-0.01-1.167-0.375-2.524-0.61-3.716
		c-0.511-2.599-0.941-5.259-1.354-7.854c0.427,1.286,6.372,6.307,7.813,4.773c0.673-0.72-0.287-3.721-0.432-4.605
		c-0.171-1.048-0.906-5.455-0.906-5.455c-0.087,0.02-0.229-0.198-0.12,0.089c1.565,0.777,3.595,4.283,4.065,0.4
		c0.28-2.309,0.585-4.525,0.132-6.778c0.503,0.235,1.464,1.712,2.054,1.695c0.587-0.016,1.261-1.552,1.527-2.083
		c0.759-1.508,1.112-3.143,1.548-4.774c0.952-3.554,1.459-6.94,1.561-10.617c0.999,2.763,2.219,5.166,3.022,8.135
		c0.794,2.928,2.26,5.476,3.847,8.105c1.176,1.949,1.916,3.97,2.732,6.146c0.427,1.135,0.736,2.458,1.626,1.243
		c0.536-0.736,0.735-1.91,0.964-2.778c1.028-3.893,1.446-12.881,1.446-12.881c0.139,1.072,1.059,2.979,1.966,4.102
		c1.163,1.438,2.458,2.882,3.746,0.958c0.959-1.435,1.243-3.274,1.813-4.898c0.632-1.805,1.223-3.407,0.975-5.316
		c0.277,1.163,1.82,2.082,2.833,2.469c1.537,0.592,1.809-0.64,2.522-1.909c1.512-2.685,2.647-5.646,3.558-8.564
		c0.268,0.81,0.954,2.414,1.969,1.702c0.764-0.535,1.14-2.397,1.558-3.251c1.163-2.368,2.306-4.646,3.257-7.086
		c-0.146,2.749,0.59,5.643,0.943,8.353c0.19,1.476,0.498,3.153,0.936,4.593c0.443,1.47,0.957,2.887,2.461,2.269
		c-0.841,2.803,0.427,6.09,0.316,8.92c0.891-0.37,2.035-0.006,2.921-0.357c0.288,1.448,0.104,3.088,0.319,4.554
		c0.238,1.6,0.886,3.069,1.175,4.503l0.585,0.073c-0.057,0.078-0.242,0.104-0.131,0.142c1.824-0.553,3.258-1.138,4.842-2.2
		c0.814,1.992-0.916,5.685-1.499,7.699c-0.423,1.454-1.871,5.927-0.44,7.138c1.39-0.559,2.934-0.895,4.229-1.543
		c1.393-0.699,2.504-1.662,3.801-2.577c2.483-1.752,4.631-3.568,6.019-6.249c0.081,1.887,0.351,3.607,0.884,5.449
		c0.521,1.807,0.639,3.699-0.217,5.453c0.871-0.451,1.908-0.185,2.736-0.687c-1.272,2.883-1.408,6.218-2.729,9.134
		c0,0,2.677,0.264,3.324,0.049c-0.755,1.326-2.179,2.05-2.721,3.66c-0.473,1.403-0.825,3.018-0.994,4.519
		c0.853-0.416,1.471,0.587,2.285,0.153c-0.641,1.611-0.898,3.102-1.301,4.846c-0.491,2.126-1.736,3.862-2.395,5.83
		c0.425,0.099,0.848,0.066,1.273,0.165c-0.709,0.859-1.496,1.531-2.006,2.611c-0.375,0.793-0.639,1.627-1.098,2.318
		c1.275,0.32,2.324,1.336,3.578,1.817c1.143,0.438,3.186,0.962,4.292,0.313c-3.806,3.023-5.59,7.314-8.792,10.758
		c0.578,0.735,1.287,1.211,1.984,1.701c-2.189,0.808-4.759,1.77-6.133,3.82c0.493,1.205,0.592,2.813,2.117,3.224
		c-2.311,1.06-4.602,3.161-7.039,3.776c0.242,0.248,0.551,0.506,0.844,0.706c-1.309,0.926-3.674,1.31-5.308,1.068
		c0.266,1.919,0.609,4.115,1.903,5.649c-2.114,0.36-4.4-0.322-6.495-0.74c-1.854-0.369-3.433-1.575-5.12-2.006
		c-0.187,0.701,0.061,1.463-0.193,2.123c-0.909-0.799-1.77-1.677-2.696-2.491c-0.687-0.603-2.181-1.713-2.39-2.519
		c-0.491,0.977-1.086,1.879-1.076,3.049c-1.428-1.543-2.706-3.377-3.441-5.223c-0.644-1.612-0.78-3.469-1.15-5.188
		c-0.443-2.05-0.527-4.194-1.988-5.886c-1.232-1.424-2.746-2.514-4.741-2.467l-0.754-0.293c-3.685-0.451-6.569,1.291-9.331,3.445
		c-1.433,1.118-2.99,2.197-4.605,2.854c-1.558,0.631-3.547,1.632-5.14,1.746c0.35-0.379,0.495-0.842,0.695-1.328
		c-1.723-0.189-3.606,0.753-5.41,0.246c0.327-0.219,0.539-0.511,0.642-0.884c-1.62,0.214-3.58-0.198-5.241-0.329
		c0.325-0.207,0.462-0.472,0.721-0.724c-1.905,0.03-4.523-1.89-5.908-2.937c0.988-0.863,1.083-2.336,2.126-3.268
		c-1.091-0.009-2.813-0.913-3.72-1.485c0.17-0.086,0.326-0.345,0.494-0.439c-1.465-2.001-4.699-2.808-5.848-5.083
		c1.519-0.393,2.677-1.727,4.092-2.314c-1.959-1.487-4.613-2.637-6.215-4.483c1.125-0.247,2.189-0.995,3.275-1.356
		c-0.438-0.808-1.221-1.483-1.768-2.302c-0.58-0.868-1.102-1.8-1.71-2.69c0.93-0.707,2.509-0.937,3.246-1.676"/>
	
		<linearGradient id="SVGID_2_" gradientUnits="userSpaceOnUse" x1="-311.9756" y1="-8.6631" x2="-260.3076" y2="-8.6631" gradientTransform="matrix(-0.6149 -0.7886 0.7886 -0.6149 -145.9954 -145.3179)">
		<stop  offset="0" style="stop-color:#E75E24"/>
		<stop  offset="0.0692" style="stop-color:#E65525"/>
		<stop  offset="0.2787" style="stop-color:#E33C25"/>
		<stop  offset="0.468" style="stop-color:#E12726"/>
		<stop  offset="0.6182" style="stop-color:#E01E26"/>
		<stop  offset="0.7033" style="stop-color:#D81E25"/>
		<stop  offset="0.8143" style="stop-color:#C41E24"/>
		<stop  offset="0.9391" style="stop-color:#A61C20"/>
		<stop  offset="0.9818" style="stop-color:#9A1B1F"/>
	</linearGradient>
	<path fill="url(#SVGID_2_)" d="M27.446,83.813c-0.722-0.758-4.765-4.079-5.203-4.133c-0.439-0.054-5.001-3.364-5.001-3.364
		s-3.731-3.431-4.134-3.777c-0.402-0.348-1.72-1.698-2.278-2.583c-0.558-0.886-1.665-2.134-2.196-2.646
		c-0.24-0.232-1.102-0.909-1.968-1.577c0.768,1.121,1.189,2.769,1.714,3.99c0.514,1.198,0.216,3.366,0.95,4.369l0.256,0.329
		C8.849,75.16,7.27,75.39,6.34,76.097c0.608,0.891,1.13,1.822,1.71,2.69c0.547,0.818,1.33,1.494,1.768,2.302
		c-1.086,0.361-2.15,1.109-3.275,1.356c1.602,1.847,4.256,2.996,6.215,4.483c-1.415,0.588-2.573,1.922-4.092,2.314
		c1.149,2.275,4.383,3.082,5.848,5.083c-0.168,0.095-0.324,0.354-0.494,0.439c0.907,0.572,2.629,1.477,3.72,1.485
		c-1.043,0.932-1.139,2.404-2.126,3.268c1.384,1.047,4.002,2.967,5.908,2.937c-0.258,0.252-0.396,0.517-0.721,0.724
		c1.661,0.131,3.621,0.543,5.241,0.329c-0.103,0.373-0.315,0.665-0.642,0.884c1.804,0.507,3.688-0.436,5.41-0.246
		c-0.201,0.486-0.345,0.949-0.695,1.328c1.593-0.114,3.582-1.115,5.14-1.746c1.615-0.656,3.172-1.735,4.605-2.854
		c2.762-2.154,5.646-3.896,9.331-3.445l0.568,0.22c0.21-0.506,0.351-0.863,0.351-0.863s-2.623-0.993-3.675-1.494
		c-1.051-0.501-4.195-1.483-4.971-1.802c-0.778-0.32-4.014-1.759-4.818-2.452c-0.805-0.693-2.707-2.116-3.85-3.074
		C31.653,87.005,28.168,84.57,27.446,83.813z"/>
	
		<linearGradient id="SVGID_3_" gradientUnits="userSpaceOnUse" x1="-311.5098" y1="13.6484" x2="-239.9316" y2="13.6484" gradientTransform="matrix(-0.6149 -0.7886 0.7886 -0.6149 -145.9954 -145.3179)">
		<stop  offset="0" style="stop-color:#E75E24"/>
		<stop  offset="0.0692" style="stop-color:#E65525"/>
		<stop  offset="0.2787" style="stop-color:#E33C25"/>
		<stop  offset="0.468" style="stop-color:#E12726"/>
		<stop  offset="0.6182" style="stop-color:#E01E26"/>
		<stop  offset="0.7033" style="stop-color:#D81E25"/>
		<stop  offset="0.8143" style="stop-color:#C41E24"/>
		<stop  offset="0.9391" style="stop-color:#A61C20"/>
		<stop  offset="0.9818" style="stop-color:#9A1B1F"/>
	</linearGradient>
	<path fill="url(#SVGID_3_)" d="M28.876,31.859c-0.436,1.631-0.789,3.267-1.548,4.774c-0.266,0.53-0.94,2.066-1.527,2.083
		c-0.589,0.018-1.55-1.46-2.054-1.695c0.453,2.253,0.148,4.469-0.132,6.778c-0.456,3.761-2.374,0.597-3.917-0.312
		c0.14,0.826,0.727,4.354,0.877,5.278c0.145,0.884,1.105,3.885,0.432,4.605c-1.441,1.534-7.386-3.487-7.813-4.773
		c0.413,2.596,0.844,5.255,1.354,7.854c0.234,1.192,0.6,2.549,0.61,3.716c0.015,1.796-0.995,1.174-2.39,0.836
		c0.929,0.788,1.625,2.25,2.018,3.366c0.479,1.361,1.162,2.931-0.585,3.147c-1.459,0.18-2.715-0.226-4.075-0.703
		c-1.074-0.375-2.768-0.707-3.536-1.251c0.168,0.146,0.318,0.271,0.432,0.359c0.678,0.53,1.656,1.615,2.251,2.209
		c0.594,0.592,1.427,1.66,2.324,2.81c0.897,1.15,2.571,2.619,3.147,3.358c0.577,0.739,2.222,1.834,2.962,2.445
		c0.742,0.611,3.74,2.764,4.709,3.328c0.97,0.565,3.384,2.646,4.171,3.484c0.787,0.84,3.556,3.038,3.831,3.221
		c0.275,0.182,4.984,3.512,5.469,3.794c0.484,0.282,3.337,2.417,4.195,2.671c0.86,0.254,5.924,2.514,7.285,2.906
		c1.362,0.391,2.413,0.892,2.413,0.892s-0.55-1.553-0.834-2.256c-0.284-0.702-2.912-5.259-3.598-6.308
		c-0.687-1.051-3.051-7.133-3.509-8.229c-0.458-1.096-1.486-4.783-1.845-7.277c-0.359-2.494-1.699-7.262-2.221-8.439
		c-0.523-1.178-1.971-6.255-2.25-8.813c-0.276-2.558-1.691-9.115-1.562-10.76c0.128-1.647-1.567-8.33-1.733-9.39
		c-0.166-1.058-0.985-5.836-1.051-7.105c-0.065-1.271-0.38-4.723-0.609-5.865c-0.054-0.269-0.098-0.712-0.136-1.236
		C30.32,24.994,29.817,28.345,28.876,31.859z"/>
	
		<linearGradient id="SVGID_4_" gradientUnits="userSpaceOnUse" x1="-346.9941" y1="25.9888" x2="-312.0879" y2="25.9888" gradientTransform="matrix(-0.6149 -0.7886 0.7886 -0.6149 -145.9954 -145.3179)">
		<stop  offset="0" style="stop-color:#E75E24"/>
		<stop  offset="0.0692" style="stop-color:#E65525"/>
		<stop  offset="0.2787" style="stop-color:#E33C25"/>
		<stop  offset="0.468" style="stop-color:#E12726"/>
		<stop  offset="0.6182" style="stop-color:#E01E26"/>
		<stop  offset="0.7033" style="stop-color:#D81E25"/>
		<stop  offset="0.8143" style="stop-color:#C41E24"/>
		<stop  offset="0.9391" style="stop-color:#A61C20"/>
		<stop  offset="0.9818" style="stop-color:#9A1B1F"/>
	</linearGradient>
	<path fill="url(#SVGID_4_)" d="M54.687,100.188c1.461,1.691,1.545,3.836,1.988,5.886c0.37,1.72,0.507,3.576,1.15,5.188
		c0.735,1.846,2.014,3.68,3.441,5.223c-0.01-1.17,0.585-2.072,1.076-3.049c0.209,0.806,1.703,1.916,2.39,2.519
		c0.927,0.814,1.787,1.692,2.696,2.491c0.254-0.66,0.007-1.422,0.193-2.123c1.688,0.431,3.266,1.637,5.12,2.006
		c2.095,0.418,4.381,1.101,6.495,0.74c-1.294-1.534-1.638-3.73-1.903-5.649c1.634,0.241,3.999-0.143,5.308-1.068
		c-0.293-0.2-0.602-0.458-0.844-0.706c2.438-0.615,4.729-2.717,7.039-3.776c-1.525-0.411-1.624-2.019-2.117-3.224
		c1.374-2.051,3.943-3.013,6.133-3.82c-0.697-0.49-1.406-0.966-1.984-1.701c3.104-3.338,4.881-7.467,8.453-10.473
		c-0.435,0.115-0.869,0.227-1.268,0.336c-1.307,0.357-5.57,1.834-6.648,2.146c-1.078,0.312-3.322,1.666-4.977,2.426
		c-1.652,0.761-4.729,2.236-6.491,2.685c-1.763,0.45-6.914,1.298-8.577,1.536c-1.662,0.24-5.535,0.355-7.326,0.432
		c-1.79,0.074-6.047-0.304-7.07-0.431s-5.246-0.798-6.153-0.542c-0.908,0.252-0.866,0.482-0.866,0.482
		C51.941,97.675,53.455,98.765,54.687,100.188z"/>
	
		<linearGradient id="SVGID_5_" gradientUnits="userSpaceOnUse" x1="-335.3926" y1="40.1382" x2="-296.5342" y2="40.1382" gradientTransform="matrix(-0.6149 -0.7886 0.7886 -0.6149 -145.9954 -145.3179)">
		<stop  offset="0" style="stop-color:#E75E24"/>
		<stop  offset="0.0692" style="stop-color:#E65525"/>
		<stop  offset="0.2787" style="stop-color:#E33C25"/>
		<stop  offset="0.468" style="stop-color:#E12726"/>
		<stop  offset="0.6182" style="stop-color:#E01E26"/>
		<stop  offset="0.7033" style="stop-color:#D81E25"/>
		<stop  offset="0.8143" style="stop-color:#C41E24"/>
		<stop  offset="0.9391" style="stop-color:#A61C20"/>
		<stop  offset="0.9818" style="stop-color:#9A1B1F"/>
	</linearGradient>
	<path fill="url(#SVGID_5_)" d="M94.043,45.223c-0.255,0.859-0.518,2.385-0.981,3.144c-0.466,0.759-1.258,2.961-1.705,3.574
		c-0.447,0.614-0.967,1.811-2.525,4.215c-1.559,2.404-2.06,3.456-3.766,5.842c-1.705,2.387-3.238,3.979-5.108,6.492
		c-1.868,2.515-3.483,4.171-6.222,7.098c-2.736,2.927-4.681,4.838-7.017,6.925c-2.336,2.085-5.985,5.196-7.71,6.541
		c-1.727,1.346-7.175,5.199-7.998,5.839c-0.821,0.642-0.701,1.473-0.701,1.473s0.641,0.821,1.6,0.865
		c0.959,0.044,3.134,0.462,5.054,0.551c1.918,0.089,3.361,0.416,4.695,0.433c1.333,0.016,4.751-0.006,6.313-0.036
		c1.563-0.028,6.047-0.884,7.234-0.886c1.188-0.001,5.809-1.359,7.279-1.844c1.47-0.487,4.611-1.88,5.643-2.42
		c1.032-0.54,3.241-1.602,3.702-2.009c0.462-0.409,3.329-0.831,4.096-1.034c0.467-0.121,1.82-0.547,2.88-0.886
		c0.275-0.25,0.557-0.498,0.854-0.733c-1.106,0.648-3.149,0.124-4.292-0.313c-1.254-0.481-2.303-1.497-3.578-1.817
		c0.459-0.691,0.723-1.525,1.098-2.318c0.51-1.08,1.297-1.752,2.006-2.611c-0.426-0.099-0.849-0.066-1.273-0.165
		c0.658-1.968,1.903-3.704,2.395-5.83c0.402-1.744,0.66-3.235,1.301-4.846c-0.814,0.434-1.433-0.568-2.285-0.153
		c0.169-1.501,0.521-3.116,0.994-4.519c0.542-1.61,1.966-2.334,2.721-3.66c-0.647,0.215-3.324-0.049-3.324-0.049
		c1.32-2.916,1.456-6.251,2.729-9.134c-0.828,0.502-1.865,0.236-2.736,0.687c0.855-1.754,0.738-3.646,0.217-5.453
		c-0.51-1.763-0.773-3.416-0.866-5.208C94.464,43.892,94.159,44.833,94.043,45.223z"/>
	
		<linearGradient id="SVGID_6_" gradientUnits="userSpaceOnUse" x1="-311.3018" y1="40.2056" x2="-285.4102" y2="40.2056" gradientTransform="matrix(-0.6149 -0.7886 0.7886 -0.6149 -145.9954 -145.3179)">
		<stop  offset="0" style="stop-color:#E75E24"/>
		<stop  offset="0.0692" style="stop-color:#E65525"/>
		<stop  offset="0.2787" style="stop-color:#E33C25"/>
		<stop  offset="0.468" style="stop-color:#E12726"/>
		<stop  offset="0.6182" style="stop-color:#E01E26"/>
		<stop  offset="0.7033" style="stop-color:#D81E25"/>
		<stop  offset="0.8143" style="stop-color:#C41E24"/>
		<stop  offset="0.9391" style="stop-color:#A61C20"/>
		<stop  offset="0.9818" style="stop-color:#9A1B1F"/>
	</linearGradient>
	<path fill="url(#SVGID_6_)" d="M82.653,38.313c-0.791,1.471-2.221,3.898-2.405,3.937c-0.24,0.048-3.122,5.332-3.568,5.946
		c-0.446,0.612-3.638,6.006-4.632,7.442c-0.994,1.436-4.121,6.912-4.914,7.926c-0.794,1.016-5.965,7.427-7.006,8.634
		c-1.04,1.206-4.15,4.162-4.644,4.546c-0.493,0.385-1.222,1.482-1.222,1.482s-0.91,3.746-1.1,4.688
		c-0.191,0.941-1.564,6.634-1.608,7.594c-0.044,0.958-1.245,5.858-1.245,5.858s2.473-2.59,4.671-4.172
		c2.2-1.585,7.986-6.36,9.83-8.062c1.844-1.702,5.604-4.502,8.441-7.639c2.838-3.138,5.363-6.165,6.422-7.519
		c1.058-1.353,1.943-1.911,4.114-5.057s1.942-3.099,3.931-5.97c1.987-2.872,1.859-3.035,3.637-6.007
		c1.777-2.971,1.66-2.614,2.27-4.543c0.609-1.928,0.664-2.367,1.092-4.021c0.02-0.078,0.037-0.161,0.057-0.241
		c-0.008-0.135-0.021-0.266-0.028-0.401c-1.388,2.681-3.535,4.497-6.019,6.249c-1.297,0.915-2.408,1.878-3.801,2.577
		c-1.295,0.648-2.839,0.984-4.229,1.543c-1.431-1.21,0.018-5.684,0.44-7.138C81.718,43.967,83.425,40.314,82.653,38.313z"/>
	
		<linearGradient id="SVGID_7_" gradientUnits="userSpaceOnUse" x1="-299.5049" y1="44.2891" x2="-275.584" y2="44.2891" gradientTransform="matrix(-0.6149 -0.7886 0.7886 -0.6149 -145.9954 -145.3179)">
		<stop  offset="0" style="stop-color:#E75E24"/>
		<stop  offset="0.0692" style="stop-color:#E65525"/>
		<stop  offset="0.2787" style="stop-color:#E33C25"/>
		<stop  offset="0.468" style="stop-color:#E12726"/>
		<stop  offset="0.6182" style="stop-color:#E01E26"/>
		<stop  offset="0.7033" style="stop-color:#D81E25"/>
		<stop  offset="0.8143" style="stop-color:#C41E24"/>
		<stop  offset="0.9391" style="stop-color:#A61C20"/>
		<stop  offset="0.9818" style="stop-color:#9A1B1F"/>
	</linearGradient>
	<path fill="url(#SVGID_7_)" d="M75.536,31.651c-0.483,0.905-2.156,5.533-2.619,6.213c-0.461,0.68-0.961,2.919-1.59,3.807
		c-0.629,0.886-3.163,5.769-4.074,7.139c-0.912,1.372-3.411,4.774-4.633,6.256c-1.224,1.481-3.313,3.375-3.313,3.375
		s-1.465,5.237-1.92,6.517c-0.455,1.279-1.836,7.639-2.027,8.581c-0.19,0.94-0.5,4.321-0.5,4.321s1.956-2.287,3.124-3.328
		c1.168-1.043,4.161-4.831,5.793-6.632c1.633-1.801,3.028-4.079,4.532-6.044c1.506-1.967,3.373-5.668,4.367-7.105
		c0.994-1.434,3.201-4.873,4.696-7.36c1.495-2.486,1.482-3.386,2.875-5.14c0.91-1.146,1.805-2.667,2.448-3.801
		c-0.019-0.061-0.035-0.124-0.059-0.181c-1.584,1.062-3.018,1.646-4.842,2.2c-0.111-0.038,0.074-0.063,0.131-0.142l-0.585-0.073
		c-0.289-1.435-0.937-2.904-1.175-4.503c-0.216-1.466-0.031-3.106-0.319-4.554c-0.022,0.01-0.049,0.013-0.071,0.021
		C75.681,31.385,75.599,31.534,75.536,31.651z"/>
	
		<linearGradient id="SVGID_8_" gradientUnits="userSpaceOnUse" x1="-286.9268" y1="52.8662" x2="-266.8682" y2="52.8662" gradientTransform="matrix(-0.6149 -0.7886 0.7886 -0.6149 -145.9954 -145.3179)">
		<stop  offset="0" style="stop-color:#E75E24"/>
		<stop  offset="0.0692" style="stop-color:#E65525"/>
		<stop  offset="0.2787" style="stop-color:#E33C25"/>
		<stop  offset="0.468" style="stop-color:#E12726"/>
		<stop  offset="0.6182" style="stop-color:#E01E26"/>
		<stop  offset="0.7033" style="stop-color:#D81E25"/>
		<stop  offset="0.8143" style="stop-color:#C41E24"/>
		<stop  offset="0.9391" style="stop-color:#A61C20"/>
		<stop  offset="0.9818" style="stop-color:#9A1B1F"/>
	</linearGradient>
	<path fill="url(#SVGID_8_)" d="M69.277,31.249c-0.784,1.536-2.443,4.15-3.729,5.55c-1.287,1.399-2.098,2.561-2.098,2.561
		s-0.369,4.778-1.125,6.688c-0.757,1.911-1.654,7.366-1.926,8.372c-0.273,1.005-1.092,4.021-1.092,4.021s0.082-0.063,2.39-2.524
		c2.309-2.46,3.622-4.673,5.062-6.721c1.441-2.048,2.736-4.114,3.639-6.007c0.901-1.892,1.852-4.064,2.52-5.323
		c0.67-1.258,0.925-2.118,1.927-4.22c0.425-0.89,0.765-1.544,1.05-2.086c-0.017-0.119-0.021-0.246-0.046-0.363
		c-0.886,0.351-2.03-0.012-2.921,0.357c0.11-2.831-1.157-6.118-0.316-8.92c-0.484,0.583-1.65,2.812-2.051,3.654
		C70.158,27.128,70.062,29.711,69.277,31.249z"/>
	
		<linearGradient id="SVGID_9_" gradientUnits="userSpaceOnUse" x1="-274.4268" y1="63.3325" x2="-252.2021" y2="63.3325" gradientTransform="matrix(-0.6149 -0.7886 0.7886 -0.6149 -145.9954 -145.3179)">
		<stop  offset="0" style="stop-color:#E75E24"/>
		<stop  offset="0.0692" style="stop-color:#E65525"/>
		<stop  offset="0.2787" style="stop-color:#E33C25"/>
		<stop  offset="0.468" style="stop-color:#E12726"/>
		<stop  offset="0.6182" style="stop-color:#E01E26"/>
		<stop  offset="0.7033" style="stop-color:#D81E25"/>
		<stop  offset="0.8143" style="stop-color:#C41E24"/>
		<stop  offset="0.9391" style="stop-color:#A61C20"/>
		<stop  offset="0.9818" style="stop-color:#9A1B1F"/>
	</linearGradient>
	<path fill="url(#SVGID_9_)" d="M67.21,14.368c-0.09,0.731-0.643,5.784-1.005,7.52c-0.362,1.737-1.425,8.508-1.688,10.034
		s-1.067,7.438-1.067,7.438s1.104-1.125,2.508-2.881c1.404-1.756,2.718-3.968,3.319-5.23c0.601-1.262,0.874-2.266,1.119-3.647
		c0.245-1.379,0.628-2.074,1.275-3.107c0.237-0.379,0.534-0.839,0.815-1.272c0.039-0.197,0.065-0.396,0.123-0.59
		c-1.504,0.619-2.018-0.799-2.461-2.269c-0.438-1.439-0.745-3.117-0.936-4.593c-0.354-2.71-1.09-5.604-0.943-8.353
		c-0.132,0.336-0.273,0.663-0.411,0.993C67.667,9.665,67.293,13.695,67.21,14.368z"/>
	
		<linearGradient id="SVGID_10_" gradientUnits="userSpaceOnUse" x1="-311.3706" y1="23.8467" x2="-239.8389" y2="23.8467" gradientTransform="matrix(-0.6149 -0.7886 0.7886 -0.6149 -145.9954 -145.3179)">
		<stop  offset="0" style="stop-color:#E75E24"/>
		<stop  offset="0.0692" style="stop-color:#E65525"/>
		<stop  offset="0.2787" style="stop-color:#E33C25"/>
		<stop  offset="0.468" style="stop-color:#E12726"/>
		<stop  offset="0.6182" style="stop-color:#E01E26"/>
		<stop  offset="0.7033" style="stop-color:#D81E25"/>
		<stop  offset="0.8143" style="stop-color:#C41E24"/>
		<stop  offset="0.9391" style="stop-color:#A61C20"/>
		<stop  offset="0.9818" style="stop-color:#9A1B1F"/>
	</linearGradient>
	<path fill="url(#SVGID_10_)" d="M31.334,29.003c0.155,0.539,1.014,7.397,1.014,7.397l0.857,6.861l1.702,9.635
		c0,0,1.483,9.015,2.051,10.422c0.568,1.406,3.162,8.63,3.036,9.653c-0.127,1.023,1.516,6.348,2.432,8.539
		c0.916,2.191,1.97,5.067,2.922,6.967c0.953,1.898,3.269,5.377,3.598,6.308c0.331,0.932,0.716,2.611,1.363,1.58
		c0,0,0.235-1.901,0.781-3.911c0.546-2.012,0.845-3.83,1.5-6.718s0.879-5.309,1.179-5.939c0.302-0.631,0.493-1.571,0.493-1.571
		s-0.842-0.402-1.153-1.479c-0.312-1.078-1.779-4.821-2.219-6.063c-0.44-1.242-1.733-4.593-2.183-6.355
		c-0.45-1.762-1.787-4.155-1.826-6.239c-0.04-2.082-0.152-4.768-0.063-6.687c0.089-1.918-0.188-4.475-0.128-6.769
		c0.062-2.293,0.105-4.44-0.171-5.81c-0.275-1.37-0.729-2.313-1.026-3.613c-0.295-1.3-0.864-2.707-1.157-3.93
		C44.22,30.8,44.122,30.34,44.038,29.9c-0.119,2.159-0.55,8.943-1.41,12.192c-0.229,0.869-0.428,2.042-0.964,2.778
		c-0.89,1.214-1.199-0.108-1.626-1.243c-0.816-2.175-1.556-4.197-2.732-6.146c-1.587-2.63-3.053-5.178-3.847-8.105
		c-0.803-2.969-2.023-5.372-3.022-8.135c-0.007,0.266-0.032,0.522-0.043,0.786c0.068,1.646,0.126,3.114,0.123,3.386
		C30.507,26.08,31.177,28.464,31.334,29.003z"/>
	
		<linearGradient id="SVGID_11_" gradientUnits="userSpaceOnUse" x1="-299.0264" y1="36.7373" x2="-254.5088" y2="36.7373" gradientTransform="matrix(-0.6149 -0.7886 0.7886 -0.6149 -145.9954 -145.3179)">
		<stop  offset="0" style="stop-color:#E75E24"/>
		<stop  offset="0.0692" style="stop-color:#E65525"/>
		<stop  offset="0.2787" style="stop-color:#E33C25"/>
		<stop  offset="0.468" style="stop-color:#E12726"/>
		<stop  offset="0.6182" style="stop-color:#E01E26"/>
		<stop  offset="0.7033" style="stop-color:#D81E25"/>
		<stop  offset="0.8143" style="stop-color:#C41E24"/>
		<stop  offset="0.9391" style="stop-color:#A61C20"/>
		<stop  offset="0.9818" style="stop-color:#9A1B1F"/>
	</linearGradient>
	<path fill="url(#SVGID_11_)" d="M54.288,48.616c-0.038-2.083-0.727-4.32-0.53-7.116c0.198-2.795,0.442-5.363,0.413-6.925
		c-0.029-1.563,0.152-3.024,0.351-4.632c0.116-0.938,0.425-2.426,0.665-3.507c-1.003-0.429-2.355-1.296-2.612-2.378
		c0.248,1.909-0.343,3.511-0.975,5.316c-0.571,1.624-0.854,3.463-1.813,4.898c-1.288,1.923-2.583,0.479-3.746-0.958
		c-0.907-1.123-1.828-3.03-1.966-4.102c0,0-0.007,0.169-0.023,0.456c0.208,1.335,0.509,3.034,0.653,3.44
		c0.22,0.621,1.267,4.165,1.367,5.142c0.103,0.977,0.956,4.274,0.811,5.443c-0.145,1.17-0.431,5.884-0.412,6.927
		c0.02,1.042,0.318,5.828,0.338,6.869c0.02,1.042,1.166,4.375,1.478,5.452c0.312,1.078,1.321,4.914,2.027,7.004
		c0.707,2.092,1.761,4.968,2.429,6.164c0.668,1.196,1.354,2.245,1.856,1.194c0.142-0.297,0.29-2.34,0.917-4.414
		c0.628-2.074,0.881-4.121,1.8-7.347c0.918-3.227,1.737-6.243,1.737-6.243s-0.694-0.383-0.915-1.003s-1.73-3.406-2.381-4.748
		S54.327,50.7,54.288,48.616z"/>
	
		<linearGradient id="SVGID_12_" gradientUnits="userSpaceOnUse" x1="-287.4463" y1="55.4063" x2="-252.2705" y2="55.4063" gradientTransform="matrix(-0.6149 -0.7886 0.7886 -0.6149 -145.9954 -145.3179)">
		<stop  offset="0" style="stop-color:#E75E24"/>
		<stop  offset="0.0692" style="stop-color:#E65525"/>
		<stop  offset="0.2787" style="stop-color:#E33C25"/>
		<stop  offset="0.468" style="stop-color:#E12726"/>
		<stop  offset="0.6182" style="stop-color:#E01E26"/>
		<stop  offset="0.7033" style="stop-color:#D81E25"/>
		<stop  offset="0.8143" style="stop-color:#C41E24"/>
		<stop  offset="0.9391" style="stop-color:#A61C20"/>
		<stop  offset="0.9818" style="stop-color:#9A1B1F"/>
	</linearGradient>
	<path fill="url(#SVGID_12_)" d="M61.39,50.608c0.346-1.59,1.443-7.466,1.652-8.553c0.209-1.088,1.513-10.427,1.703-11.368
		c0.191-0.941,1.485-10.801,1.594-11.677c0.107-0.878,1.106-6.543,1.214-7.42c0.069-0.559,0.368-2.482,0.663-4.041
		c-0.941,2.39-2.06,4.632-3.202,6.956c-0.418,0.854-0.794,2.717-1.558,3.251c-1.015,0.711-1.701-0.892-1.969-1.702
		c-0.91,2.918-2.046,5.879-3.558,8.564c-0.714,1.269-0.985,2.501-2.522,1.909c-0.209-0.079-0.441-0.187-0.68-0.309
		c-0.09,0.796-0.133,1.548-0.192,2.247c-0.118,1.402-0.068,1.915-0.157,3.834c-0.089,1.918-0.531,6.094-0.638,8.159
		c-0.108,2.065,0.069,4.833,0.235,5.893c0.165,1.06,0.563,4.448,1.104,5.479c0.539,1.032,1.713,3.552,2.363,4.895
		c0.65,1.341,1.61,2.573,1.61,2.573s0.556-1.489,0.728-2.285C59.954,56.219,61.044,52.198,61.39,50.608z"/>
	
		<linearGradient id="SVGID_13_" gradientUnits="userSpaceOnUse" x1="-340.1538" y1="19.1113" x2="-245.1069" y2="19.1113" gradientTransform="matrix(-0.6149 -0.7886 0.7886 -0.6149 -145.9954 -145.3179)">
		<stop  offset="0.0182" style="stop-color:#9A1B1F"/>
		<stop  offset="0.0609" style="stop-color:#A61C20"/>
		<stop  offset="0.1857" style="stop-color:#C41E24"/>
		<stop  offset="0.2967" style="stop-color:#D81E25"/>
		<stop  offset="0.3818" style="stop-color:#E01E26"/>
		<stop  offset="0.532" style="stop-color:#E12726"/>
		<stop  offset="0.7213" style="stop-color:#E33C25"/>
		<stop  offset="0.9308" style="stop-color:#E65525"/>
		<stop  offset="1" style="stop-color:#E75E24"/>
	</linearGradient>
	<path fill="url(#SVGID_13_)" d="M31.236,27.339c-0.5,2.503-0.187,4.846,0.363,7.328c0.671,3.031,0.82,6.074,1.315,9.133
		c0.456,2.821,0.781,5.716,1.196,8.594c-3.252-2.221-5.928-5.253-7.327-8.985c-0.002-0.009-0.015-0.003-0.012,0.005
		c0.543,1.653,1.413,3.325,2.302,4.821c0.449,0.755,1.022,1.604,1.661,2.216c1.017,0.975,2.626,1.839,3.279,3.116
		c0.087,0.174,0.202,0.255,0.321,0.299c0.385,2.455,0.857,4.886,1.563,7.233c0.454,1.506,0.89,3.014,1.316,4.521
		c-2.849-1.907-5.402-3.761-7.57-6.619c-2.221-2.931-4.037-6.153-6.333-9.027c-0.035-0.041-0.098,0.007-0.065,0.051
		c2.15,2.941,3.93,6.284,5.906,9.36c2.262,3.521,5.188,5.398,8.493,7.787c1.105,3.971,2.16,7.948,3.271,11.942
		c-6.231-2.744-10.637-6.49-14.929-11.842c-3.308-4.127-6.186-8.598-9.667-12.582c-0.027-0.03-0.075,0.007-0.051,0.04
		c6.959,10.046,13.015,20.596,24.718,25.527c0.101,0.043,0.191,0.043,0.276,0.026c1.749,5.585,4.842,10.277,7.536,15.373
		c-2.081-0.987-4.388-1.554-6.519-2.41c-4.369-1.757-8.115-5.092-11.784-7.958c-6.52-5.094-15.667-9.39-20.217-16.512
		c-0.053-0.082-0.192,0-0.144,0.084c3.644,6.622,11.662,10.989,17.54,15.372c2.017,1.504,3.964,3.092,5.945,4.637
		c-6.691,1.76-13.174,3.32-19.985,0.928c-0.134-0.047-0.215,0.15-0.081,0.205c7.016,2.896,13.663,1.485,20.718-0.459
		c0.061,0.012,0.127,0.001,0.193-0.02c1.158,0.889,2.332,1.76,3.543,2.582c1.815,1.233,3.862,1.97,5.899,2.697
		c-3.344,0.1-6.752,1.283-9.904,2.121c-4.425,1.176-8.914,1.188-13.441,1.621c-0.086,0.009-0.065,0.131,0.018,0.129
		c4.021-0.1,8.069,0.072,12.034-0.732c4.438-0.899,8.82-2.596,13.417-2.312c0.035,0.001,0.063-0.009,0.092-0.013
		c1.036,0.404,2.045,0.855,2.999,1.416c-1.002,2.754-2.167,5.455-3.268,8.288c-2.064,5.302-4.409,10.226-6.977,15.296
		c-2.341,4.617-2.954,9.757-5.985,14.049c-0.258,0.119-0.459,0.354-0.497,0.721c-0.007,0.068-0.014,0.137-0.021,0.205
		c-0.095,0.924,1.158,1.503,1.721,0.689c2.601-3.754,3.835-8.091,5.223-12.386c1.681-5.198,4.833-9.901,6.758-15.039
		c1.392-3.716,3.114-7.418,4.352-11.225c0.182-0.062,0.331-0.212,0.386-0.392c2.503,0.342,4.903,0.658,7.274,0.883
		c0.01,0.068,0.031,0.139,0.076,0.207c3.904,5.939,9.356,13.009,15.893,16.1c0.014,0.008,0.025-0.015,0.014-0.023
		c-6.094-4.038-10.779-10.144-14.851-16.184c3.046,0.247,6.065,0.315,9.218,0.055c3.281,3.781,8.663,9.6,14.327,8.467
		c0.032-0.006,0.025-0.055-0.008-0.051c-5.633,0.258-9.854-4.618-13.211-8.521c0.769-0.08,1.542-0.179,2.331-0.304
		c3.066-0.486,6.186-0.847,9.162-1.739c3.898-1.169,7.174-3.348,10.794-5.108c0.015-0.009,0.007-0.03-0.01-0.024
		c-2.956,1.014-5.579,2.594-8.493,3.713c-3.732,1.433-7.635,1.795-11.562,2.348c-3.499,0.493-6.971,0.832-10.507,0.678
		c-3.477-0.15-6.928-1.08-10.371-1.597c0.023-0.082,0.04-0.165,0.063-0.247c4.181-2.994,8.143-6.088,11.942-9.342
		c0.02,0.004,0.033,0.016,0.054,0.018c5.368,0.762,10.302,0.01,15.27-2.086c4.39-1.852,10.763-4.924,13.487-8.96
		c0.024-0.034-0.023-0.069-0.052-0.038c-3.353,3.727-9.226,6.403-13.69,8.382c-4.569,2.024-9.228,2.538-14.121,1.87
		c4.721-4.115,9.186-8.5,13.46-13.34c0.34-0.383,0.659-0.781,0.993-1.169c0.06,0.018,0.123,0.022,0.196,0.004
		c0.637-0.158,1.184,0.112,1.813,0.087c1.228-0.047,2.573-0.176,3.743-0.565c2.798-0.931,5.763-1.713,7.89-3.877
		c0.015-0.014,0.001-0.043-0.02-0.033c-2.233,1.162-4.245,2.112-6.643,2.896c-1.681,0.549-4.5,1.446-6.343,0.736
		c2.887-3.438,5.521-7.027,7.938-10.838c2.254-3.552,5.785-7.837,6.34-12.134c0.002-0.028-0.04-0.04-0.051-0.011
		c-1.67,4.612-4.988,8.809-7.652,12.903c-2.658,4.087-5.697,7.826-8.941,11.455c-7.645,8.551-15.953,15.595-25.16,22.266
		c1.229-5.431,1.977-10.869,3.457-16.254c5.375-4.396,9.68-9.763,13.653-15.425c2.327-3.318,4.243-7.016,6.231-10.544
		c1.809-3.21,3.967-6.3,5.615-9.575c0.033-0.066-0.071-0.123-0.112-0.063c-8.116,11.441-14.146,24.481-24.912,33.8
		c1.184-4.468,2.122-8.998,3.193-13.498c0.298-1.25,0.631-2.49,0.976-3.726c0.058-0.014,0.117-0.042,0.176-0.089
		c3.402-2.852,5.922-6.642,8.143-10.454c1.866-3.206,4.223-6.784,5.094-10.42c0.033-0.135-0.197-0.193-0.237-0.059
		c-1.041,3.431-3.638,6.943-5.446,10.04c-1.996,3.42-4.348,6.856-7.314,9.522c1.048-3.652,2.146-7.279,2.789-11.05
		c0.354-2.078,0.722-4.171,1.086-6.269c0.066-0.041,0.124-0.097,0.156-0.197c0.262-0.783,1.133-1.487,1.669-2.092
		c1.081-1.22,1.91-2.651,2.794-4.012c1.523-2.344,1.771-5.357,2.29-8.03c0.004-0.021-0.032-0.031-0.039-0.009
		c-1.104,3.328-1.767,6.214-3.812,9.153c-0.65,0.938-1.83,2.009-2.697,3.101c1.391-8.038,2.715-16.18,3.329-24.207
		c0.005-0.077-0.116-0.119-0.138-0.036c-2.596,9.442-3.368,19.669-4.875,29.346c-0.823,5.285-2.246,10.287-3.742,15.389
		c-0.096,0.011-0.193,0.04-0.296,0.103c0.975-0.611-2.39-5.29-2.664-5.937c-1.255-2.955-1.342-6.033-1.477-9.183
		c-0.214-4.983,0.81-10.039,0.462-14.972c-0.008-0.126-0.208-0.123-0.22,0.001c-0.462,5.029-1.138,9.995-1.021,15.075
		c0.146,6.368,1.776,10.219,4.602,15.835c0.055,0.113,0.15,0.213,0.264,0.286c-1.536,5.314-2.495,10.786-3.981,16.115
		c-0.103,0.365-0.2,0.727-0.301,1.091c-1.826-2.655-2.769-6.326-3.924-9.25c-1.7-4.304-2.561-8.709-2.957-13.294
		c-0.522-6.009,0.968-13.448-1.61-19.144c-0.028-0.059-0.126-0.037-0.113,0.029c1.359,7.124,0.667,14.599,0.98,21.814
		c0.16,3.685,1.387,7.581,2.699,11.009c1.272,3.33,2.213,7.322,4.327,10.226c0.05,0.07,0.109,0.115,0.172,0.154
		c-0.918,3.365-1.758,6.715-2.292,10.195c-0.347,2.267-0.908,4.4-1.587,6.479c-2.826-4.837-5.537-9.53-7.426-14.886
		c-1.923-5.449-2.718-11.206-4.622-16.688c-2.113-6.082-2.393-12.334-3.784-18.555c-0.585-2.607-0.816-5.254-1.109-7.904
		c-0.373-3.361-1.521-6.208-1.397-9.69C31.461,27.223,31.263,27.198,31.236,27.339z"/>
</g>
</svg>
