<?xml version="1.0" encoding="utf-8"?>
<!-- Generator: Adobe Illustrator 16.0.0, SVG Export Plug-In . SVG Version: 6.00 Build 0)  -->
<!DOCTYPE svg PUBLIC "-//W3C//DTD SVG 1.1//EN" "http://www.w3.org/Graphics/SVG/1.1/DTD/svg11.dtd">
<svg version="1.1" id="Layer_1" xmlns="http://www.w3.org/2000/svg" xmlns:xlink="http://www.w3.org/1999/xlink" x="0px" y="0px"
	 width="132.404px" height="192.683px" viewBox="0 0 132.404 192.683" enable-background="new 0 0 132.404 192.683"
	 xml:space="preserve">
<g>
	
		<linearGradient id="SVGID_1_" gradientUnits="userSpaceOnUse" x1="-84.7969" y1="37.4429" x2="32.9204" y2="37.4429" gradientTransform="matrix(0.9752 -0.2213 0.2213 0.9752 80.7391 39.2967)">
		<stop  offset="0" style="stop-color:#B7D433"/>
		<stop  offset="1" style="stop-color:#6FA642"/>
	</linearGradient>
	<path fill="url(#SVGID_1_)" d="M90.577,151.672c0.892,0.661,4.324,2.724,4.597,2.294c0.272-0.434,0.466-1.219,0.722-2.266
		c0.257-1.049,0.996-2.697,1.888-4.753c0.893-2.056,2.152-3.577,4.088-6.486c1.935-2.911,2.736-4.823,3.761-6.29
		c1.028-1.469,1.758-1.512,1.758-1.512s0,0-0.784-0.192c-0.784-0.191-2.482-0.054-3.465-0.572c-0.981-0.517-0.595-0.978-0.625-2.207
		c-0.033-1.227,1.543-2.449,2.298-3.485c0.752-1.035,3.612-2.055,5.011-4.596c1.398-2.543,3.52-4.629,4.14-6.252
		c0.622-1.623,2.313-2.872,3.672-3.428c1.356-0.555,3.38-0.891,3.38-0.891s-5.608-0.209-7.188-0.1
		c-1.58,0.112-7.578,0.361-8.832,0.275c-1.257-0.086-1.571-0.385-1.783-1.325c-0.214-0.94,0.032-1.488,0.754-3.755
		c0.722-2.263,1.634-2.594,3.231-4.81c1.599-2.215,3.768-5.178,4.702-6.502c0.934-1.324,2.845-4.354,3.896-5.704
		c1.052-1.349,2.903-1.895,2.941-2.273s-1.163-0.23-1.688-0.359c-0.523-0.128-0.639-0.102-0.438-1.382
		c0.204-1.281,1.62-3.209,2.62-4.796c0.999-1.585,0.955-2.317,0.955-2.317s-0.742,0.541-0.422-0.769
		c0.322-1.306,2.48-3.775,2.48-3.775s-3.339,1.622-4.198,2.188c-0.86,0.566-3.965,2.137-5.726,2.537
		c-1.763,0.399-6.56,3.219-9.534,4.264c-2.976,1.044-4.661,0.685-5.383,0.232c-0.723-0.454-0.608-1.591-0.849-2.649
		c-0.24-1.058,0.566-1.858,1.053-4.07c0.487-2.21,2.139-4.189,3.678-7.753c1.539-3.561,1.939-4.517,2.734-7.539
		c0.799-3.022,1.462-3.913,2.446-6.114c0.981-2.2,2.211-4.949,2.211-4.949s-1.17,1.376-1.523,1.456
		c-0.351,0.081-1.237,0.527-1.633-0.123c-0.396-0.651-0.428-1.881-0.202-4.156c0.227-2.273,1.507-4.79,1.803-6.215
		c0.294-1.426,1.042-3.574,1.042-3.574s-1.325,1.785-1.859,2.152c-0.533,0.368-1.832,2.27-3.434,3.375
		c-1.604,1.105-4.313,3.326-6.331,4.773c-2.02,1.446-5.721,3.645-6.827,4.76c-1.107,1.117-2.774,2.483-4.001,2.514
		c-1.229,0.032-1.614-1.115-1.916-1.912c-0.305-0.795-0.213-3.658-0.063-5.174c0.149-1.519-0.196-3.045-0.175-4.04
		c0.023-0.993,0.938-4.041,1.272-4.735c0.337-0.694,2.433-5.618,2.433-5.618s-1.746,1.014-2.44,0.677
		c-0.694-0.336-1.025-1.25-0.978-2.124c0.049-0.875-0.251-3.28-0.09-5.292c0.163-2.015,1.808-5.106,1.808-5.106l-1.341,1.167
		c0,0-2.094,2.207-2.938,3.387c-0.843,1.18-4.276,4.554-4.787,5.039c-0.507,0.485-4.957,4.832-5.817,5.398s-3.15,2.444-4.379,2.475
		c-1.229,0.033-1.869-0.067-3.038-1.411c-1.17-1.339-1.814-2.553-2.818-4.794c-1.004-2.243-0.783-2.913-1.276-4.529
		c-0.49-1.619-0.687-1.945-1.018-2.858c-0.332-0.914-0.768-2.296-0.656-3.435c0.112-1.138,0.418-3.058,0.418-3.058
		s-1.208,1.755-1.545,2.451c-0.337,0.691-0.907,1.44-1.391,2.044c-0.479,0.604-1.094,0.619-2.637,0.352
		c-1.542-0.269-1.388-0.673-2.124-1.742c-0.735-1.068-2.104-2.736-2.748-3.947c-0.646-1.212-0.993-2.74-0.993-2.74L46.02,15.75
		c0,0-0.86,0.563-2.185-0.371c-1.325-0.935-1.511-1.757-2.248-2.827c-0.735-1.069-1.236-2.189-1.236-2.189l-0.609,1.126
		c0,0-1.011-0.637-1.343-1.548c-0.329-0.915-1.065-1.982-1.065-1.982s-0.103,3.359,0.02,4.443c0.121,1.084-0.359,1.688-0.675,1.388
		c-0.313-0.298-0.896-1.772-0.896-1.772s0.239,3.775,0.399,4.48c0.161,0.705,0.682,3.55,0.895,4.491
		c0.214,0.94,0.07,3.567-0.16,4.732c-0.229,1.163-0.766,1.532-1.154,1.991c-0.392,0.458-2.692,0.116-3.558-0.429
		c-0.864-0.543-3.026-1.907-3.026-1.907s2.033,1.885,2.547,2.51c0.511,0.626,0.868,1.655,1.369,2.778c0.504,1.124,0.92,3.5,1.383,5
		c0.465,1.5,1.26,3.915,1.819,6.382c0.56,2.468,0.678,2.441,0.292,4.012c-0.385,1.569-2.446,2.284-3.124,2.563
		c-0.678,0.275-2.857,1.019-5.197,1.055c-2.339,0.037-3.855-0.113-5.661-0.444c-1.806-0.334-3.743-1.251-4.998-1.338
		c-1.254-0.084-1.816,0.166-3.411-0.337c-1.597-0.502-2.463-1.048-2.463-1.048s1.484,1.641,2.023,2.383
		c0.539,0.743,1.105,1.602,1.105,1.602l-0.877-0.048c0,0,1.447,2.021,2.157,2.97c0.71,0.951,1.933,2.527,2.984,3.895
		s1.014,1.747,0.506,2.233c-0.507,0.484-3.059-0.417-3.059-0.417s2.108,1.126,2.973,1.67c0.865,0.546,3.386,2.939,5.654,4.771
		c2.269,1.834,4.548,3.169,6.349,5.109c1.798,1.939,2.364,2.799,3.48,3.905c1.115,1.107,0.816,1.421,0.116,2.691
		c-0.7,1.272-1.731,1.628-3.271,2.471c-1.537,0.844-3.588,1.063-5.847,1.451c-2.26,0.388-2.718,0-4.806,0.597
		c-2.091,0.597-3.569,0.069-4.616-0.188c-1.044-0.257-1.478-0.53-1.56-0.881c-0.078-0.354,0.856,1.041,0.401,1.761
		c-0.454,0.721-1.502,0.464-2.819,0.64c-1.318,0.176-2.719,0-4.496-0.214c-1.779-0.214-4.899-1.979-4.899-1.979
		s2.245,1.715,3.019,2.405c0.773,0.691,2.162,1.362,2.818,2.078c0.657,0.717,1.549,1.379,0.608,1.591
		c-0.94,0.214-2.104-0.015-2.104-0.015s1.885,0.684,2.29,0.838c0.407,0.154,1.389,0.674,3.002,1.79
		c1.611,1.116,2.701,2.106,3.854,2.833c1.153,0.725,0.998,1.131,0.768,2.297c-0.229,1.163-2.58,1.695-2.58,1.695
		s2.063-0.713,3.28-0.248c1.217,0.464,3.925,0.961,5.536,2.078c1.612,1.118,5.089,1.193,6.413,2.128
		c1.324,0.934,5.848,1.268,6.83,1.786c0.983,0.517,3.102,1.149,5.42,2.104c2.318,0.959,1.18,0.846,2.023,2.384
		c0.843,1.538,0.06,1.346-0.669,2.498c-0.728,1.153-3.878,3.599-5.417,4.443c-1.539,0.842-5.159,3.395-5.631,3.501
		c-0.469,0.106-0.751,1.034-2.174,1.852c-1.419,0.815-4.545,3.379-4.545,3.379s2.388-0.913,3.5-0.916
		c1.109-0.006,3.71,0.021,5.307,0.524c1.597,0.501,1.234,1.078,1.234,1.078l-1.513,0.961c0,0,3.867-0.384,5.057-0.035
		c1.19,0.349,4.012-0.29,5.256,0.291s4.079,0.555,5.452,0.616c1.372,0.058,4.47,0.097,6.264,0.925c1.796,0.829,4.709,1.155,5.89,2
		c1.181,0.844,1.495,1.144,2.023,2.382c0.529,1.239,0.31,1.907-0.272,3.151c-0.582,1.243-2.003,2.06-3.279,2.966
		c-1.278,0.908-2.089,0.599-2.089,0.599s0.629,0.229,2.829,1.214c2.199,0.982,2.341,1.609,4.662,2.4s4.884,1.197,6.964,2.373
		c2.079,1.176,3.594,1.324,6.37,2.674c2.778,1.346,3.39,1.866,6.202,3.367C88.646,150.423,90.577,151.672,90.577,151.672z"/>
	
		<linearGradient id="SVGID_2_" gradientUnits="userSpaceOnUse" x1="-13.1992" y1="96.728" x2="23.3032" y2="96.728" gradientTransform="matrix(0.9752 -0.2213 0.2213 0.9752 80.7391 39.2967)">
		<stop  offset="0" style="stop-color:#F8B22F"/>
		<stop  offset="0.1429" style="stop-color:#F7AA2E"/>
		<stop  offset="0.3821" style="stop-color:#F3982B"/>
		<stop  offset="0.6881" style="stop-color:#ED7A27"/>
		<stop  offset="1" style="stop-color:#E85224"/>
	</linearGradient>
	<path fill="url(#SVGID_2_)" d="M118.6,111.162c-1.097,0.064-2.088,0.6-2.864,0.714c-0.778,0.114-1.476,0.582-2.107,0.786
		c-0.634,0.205-2.275,1.135-3.071,1.438c-0.797,0.304-3.702,2.2-4.4,2.667c-0.695,0.465-2.95,1.967-4.183,2.801
		c-1.23,0.836-2.811,2.861-3.604,3.721c-0.791,0.86-2.829,3.053-3.528,4.322c-0.7,1.271-1.799,2.693-2.444,4.199
		s-1.406,4.149-1.662,5.195c-0.257,1.047-0.812,2.41-0.812,2.41s0.363,1.336,0.69,2.499c0.325,1.162,2.285,7.081,2.728,8.214
		c0.26,0.668,0.895,2.421,1.408,3.848c0.221,0.063,0.374,0.066,0.423-0.01c0.272-0.434,0.466-1.219,0.722-2.266
		c0.257-1.049,0.996-2.697,1.888-4.753c0.893-2.056,2.152-3.577,4.088-6.486c1.935-2.911,2.736-4.823,3.761-6.29
		c1.028-1.469,1.758-1.512,1.758-1.512s0,0-0.784-0.192c-0.784-0.191-2.482-0.054-3.465-0.572c-0.981-0.517-0.595-0.978-0.625-2.207
		c-0.033-1.227,1.543-2.449,2.298-3.485c0.752-1.035,3.612-2.055,5.011-4.596c1.398-2.543,3.52-4.629,4.14-6.252
		c0.622-1.623,2.313-2.872,3.672-3.428c1.182-0.482,2.866-0.801,3.283-0.875C120.286,111.071,119.371,111.118,118.6,111.162z"/>
	
		<linearGradient id="SVGID_3_" gradientUnits="userSpaceOnUse" x1="-14.9902" y1="71.1235" x2="32.7964" y2="71.1235" gradientTransform="matrix(0.9752 -0.2213 0.2213 0.9752 80.7391 39.2967)">
		<stop  offset="0" style="stop-color:#F8B22F"/>
		<stop  offset="0.1429" style="stop-color:#F7AA2E"/>
		<stop  offset="0.3821" style="stop-color:#F3982B"/>
		<stop  offset="0.6881" style="stop-color:#ED7A27"/>
		<stop  offset="1" style="stop-color:#E85224"/>
	</linearGradient>
	<path fill="url(#SVGID_3_)" d="M104.995,111.212c-1.257-0.086-1.571-0.385-1.783-1.325c-0.214-0.94,0.032-1.488,0.754-3.755
		c0.722-2.263,1.634-2.594,3.231-4.81c1.599-2.215,3.768-5.178,4.702-6.502c0.934-1.324,2.845-4.354,3.896-5.704
		c1.052-1.349,2.903-1.895,2.941-2.273s-1.163-0.23-1.688-0.359c-0.523-0.128-0.639-0.102-0.438-1.382
		c0.204-1.281,1.62-3.209,2.62-4.796c0.999-1.585,0.955-2.317,0.955-2.317s-0.742,0.541-0.422-0.769
		c0.28-1.14,1.956-3.161,2.38-3.659c-0.956,0.776-2.204,1.906-3.561,3.505c0,0-1.431,1.315-1.881,1.787
		c-0.448,0.471-2.627,2.573-3.148,3c-0.52,0.427-2.877,2.568-3.266,3.028c-0.392,0.458-2.931,2.887-3.631,3.602
		c-0.704,0.717-1.691,1.804-2.367,2.639c-0.677,0.832-1.396,1.736-1.879,2.341c-0.48,0.604-1.778,2.503-2.292,3.238
		c-0.513,0.732-2.818,3.914-3.499,4.994s-3.342,5.145-4.028,6.475s-2.265,3.91-2.571,5.277c-0.307,1.365-1.483,4.352-1.79,5.719
		c-0.309,1.367-1.123,3.221-1.374,4.018c-0.253,0.799-1.231,2.195-1.231,2.195c-0.292,0.621-0.782,0.361-0.367,1.381
		c0.416,1.016,1.299,4.092,2.034,5.962c0.732,1.873,0.968,3.735,1.432,4.681c0.461,0.943,1.199,2.014,1.199,2.014
		s0.368-0.826,0.665-1.697c0.297-0.87,1.157-4.153,1.674-5.137c0.519-0.982,1.444-3.169,1.931-4.02
		c0.486-0.853,1.719-2.492,2.293-3.239c0.571-0.745,2.053-2.379,2.547-2.924s1.978-2.179,2.675-2.646
		c0.696-0.47,2.461-1.671,2.924-2.086c0.463-0.412,2.594-1.637,3.107-1.816c0.519-0.18,1.331-0.674,2.203-1.18
		c0.875-0.507,2.648-1.402,3.092-1.629c0.443-0.224,1.858-0.792,2.418-1.043c0.563-0.251,1.782-0.59,2.312-0.709
		c0.528-0.119,0.966-0.096,1.626-0.182c0.66-0.09,0.912-0.105,1.625-0.072c0,0-5.608-0.209-7.188-0.1
		C112.247,111.049,106.249,111.298,104.995,111.212z"/>
	
		<linearGradient id="SVGID_4_" gradientUnits="userSpaceOnUse" x1="-18.5625" y1="44.811" x2="32.9204" y2="44.811" gradientTransform="matrix(0.9752 -0.2213 0.2213 0.9752 80.7391 39.2967)">
		<stop  offset="0" style="stop-color:#F8B22F"/>
		<stop  offset="0.1429" style="stop-color:#F7AA2E"/>
		<stop  offset="0.3821" style="stop-color:#F3982B"/>
		<stop  offset="0.6881" style="stop-color:#ED7A27"/>
		<stop  offset="1" style="stop-color:#E85224"/>
	</linearGradient>
	<path fill="url(#SVGID_4_)" d="M118.047,75.632c-0.86,0.566-3.965,2.137-5.726,2.537c-1.763,0.399-6.56,3.219-9.534,4.264
		c-2.976,1.044-4.661,0.685-5.383,0.232c-0.723-0.454-0.608-1.591-0.849-2.649c-0.24-1.058,0.566-1.858,1.053-4.07
		c0.487-2.21,2.139-4.189,3.678-7.753c1.539-3.561,1.939-4.517,2.734-7.539c0.799-3.022,1.462-3.913,2.446-6.114
		c0.981-2.2,2.211-4.949,2.211-4.949s-1.17,1.376-1.523,1.456c-0.351,0.081-1.237,0.527-1.633-0.123
		c-0.396-0.651-0.428-1.881-0.202-4.156c0.227-2.273,1.507-4.79,1.803-6.215c0.294-1.426,1.042-3.574,1.042-3.574
		s-0.068,0.091-0.166,0.221c-0.108,0.271-0.218,0.551-0.31,0.826c-0.299,0.87-0.604,1.433-1.005,2.049
		c-0.403,0.617-0.942,1.358-1.272,1.801c-0.332,0.449-1.91,2.474-2.319,3.123c-0.409,0.647-1.422,2.176-1.668,2.728
		c-0.244,0.547-1.226,1.943-1.517,2.565c-0.291,0.624-1.836,3.074-2.35,3.809c-0.512,0.732-1.199,2.062-1.671,2.973
		c-0.474,0.909-2.151,4.133-2.488,4.826c-0.336,0.695-2.039,4.354-2.558,5.337c-0.518,0.981-2.955,5.49-3.35,6.194
		c-0.396,0.711-2.221,4.644-2.66,5.98c-0.438,1.333-1.63,3.706-1.985,4.588c-0.354,0.884-0.978,3.312-1.185,4.037
		c-0.205,0.726-0.313,2.975-0.585,4.768c-0.272,1.791-0.635,4.281-0.952,6.146c-0.32,1.863-1.038,4.683-1.33,5.305
		c-0.29,0.624-1.793,2.445-1.793,2.445s0.59,1.781,0.802,2.722c0.216,0.94,2.945,6.437,4.076,9.517
		c1.131,3.078,3.216,7.361,3.216,7.361s0.815-1.299,1.641-2.842c0.822-1.549,1.415-3.288,1.782-4.668
		c0.366-1.382,1.448-4.777,2.121-6.165c0.673-1.39,1.386-3.155,1.954-4.458s3.146-4.916,3.725-5.912
		c0.576-0.995,3.504-5.242,4.316-6.292c0.811-1.049,2.908-4.058,3.657-4.844c0.749-0.788,1.351-1.667,1.937-2.354
		c0.585-0.689,3.391-3.303,4.062-3.886c0.669-0.585,3.655-3.488,4.268-4.06c0.611-0.571,3.313-3.098,3.818-3.584
		c0.507-0.486,1.778-1.701,2.212-2.231c0.163-0.201,0.771-0.737,1.462-1.332c0.121-0.143,0.196-0.229,0.196-0.229
		S118.907,75.067,118.047,75.632z"/>
	
		<linearGradient id="SVGID_5_" gradientUnits="userSpaceOnUse" x1="-23.7471" y1="24.4194" x2="27.2578" y2="24.4194" gradientTransform="matrix(0.9752 -0.2213 0.2213 0.9752 80.7391 39.2967)">
		<stop  offset="0" style="stop-color:#F8B22F"/>
		<stop  offset="0.1429" style="stop-color:#F7AA2E"/>
		<stop  offset="0.3821" style="stop-color:#F3982B"/>
		<stop  offset="0.6881" style="stop-color:#ED7A27"/>
		<stop  offset="1" style="stop-color:#E85224"/>
	</linearGradient>
	<path fill="url(#SVGID_5_)" d="M81.048,92.131c0.106-0.887,0.711-4.484,0.994-5.415c0.283-0.928,1.154-3.35,1.65-4.698
		c0.498-1.348,1.612-3.517,1.97-4.399c0.354-0.884,1.391-2.848,2.024-4.413c0.633-1.566,2.409-4.623,3.265-6.301
		c0.854-1.676,2.893-6.03,3.289-6.738c0.396-0.708,1.612-3.516,2.352-4.611c0.74-1.095,1.204-2.312,1.896-3.085
		c0.688-0.773,0.984-1.645,1.42-2.177c0.436-0.531,1.458-2.553,1.958-3.346c0.499-0.796,1.525-2.262,1.947-2.854
		c0.423-0.588,1.579-2.025,1.988-2.672c0.409-0.65,0.681-1.083,1.149-1.744c0.344-0.489,0.592-0.954,0.792-1.412
		c0.229-0.731,0.422-1.285,0.422-1.285s-1.325,1.785-1.859,2.152c-0.533,0.368-1.832,2.27-3.434,3.375
		c-1.604,1.105-4.313,3.326-6.331,4.773c-2.02,1.446-5.721,3.645-6.827,4.76c-1.107,1.117-2.774,2.483-4.001,2.514
		c-1.229,0.032-1.614-1.115-1.916-1.912c-0.305-0.795-0.213-3.658-0.063-5.174c0.149-1.519-0.196-3.045-0.175-4.04
		c0.023-0.993,0.938-4.041,1.272-4.735c0.337-0.694,2.433-5.618,2.433-5.618s-1.746,1.014-2.44,0.677
		c-0.694-0.336-1.025-1.25-0.978-2.124c0.049-0.875-0.251-3.28-0.09-5.292c0.163-2.015,1.808-5.106,1.808-5.106l-0.299,0.261
		c-0.133,0.143-0.252,0.276-0.331,0.385c-0.42,0.591-1.703,3.107-2.066,3.682c-0.362,0.578-1.684,3.471-1.871,4.007
		c-0.187,0.539-0.83,2.599-1.504,3.986c-0.673,1.388-1.915,4.081-2.285,4.905c-0.369,0.825-1.904,4.942-2.266,6.076
		c-0.363,1.131-1.813,6.712-2.089,7.948c-0.276,1.236-1.188,6.2-1.412,7.115c-0.225,0.917-1.139,7.237-1.4,8.535
		c-0.262,1.293-0.915,5.766-1.043,7.648c-0.13,1.881-0.805,5.434-0.892,6.689c-0.086,1.256-0.538,1.173-0.645,2.061
		c-0.107,0.89-0.342,2.301-0.23,2.523c0.112,0.223,2.107,5.205,2.739,6.359c0.634,1.153,1.835,3.722,3.283,6.298
		c1.449,2.574,2.368,4.713,2.645,5.393c0.278,0.678,1.329,2.045,1.329,2.045s0.936-1.323,1.199-2.063c0,0,0.161-0.654,0.536-1.729
		c0.373-1.072,1.149-4.463,1.229-5.469C80.272,96.88,80.94,93.023,81.048,92.131z"/>
	
		<linearGradient id="SVGID_6_" gradientUnits="userSpaceOnUse" x1="-27.7798" y1="13.0596" x2="8.6138" y2="13.0596" gradientTransform="matrix(0.9752 -0.2213 0.2213 0.9752 80.7391 39.2967)">
		<stop  offset="0" style="stop-color:#F8B22F"/>
		<stop  offset="0.1429" style="stop-color:#F7AA2E"/>
		<stop  offset="0.3821" style="stop-color:#F3982B"/>
		<stop  offset="0.6881" style="stop-color:#ED7A27"/>
		<stop  offset="1" style="stop-color:#E85224"/>
	</linearGradient>
	<path fill="url(#SVGID_6_)" d="M75.005,44.269c0.263-0.739,1.982-5.145,2.201-5.812c0.221-0.667,1.786-4.111,2.291-5.153
		c0.505-1.041,1.271-3.376,1.79-4.358c0.52-0.982,1.242-2.691,1.579-3.387c0.337-0.693,0.991-1.891,1.31-2.396
		c0.317-0.505,0.829-1.239,1.161-1.685c0.04-0.054,0.092-0.115,0.15-0.182l-1.266,1.102c0,0-2.094,2.207-2.938,3.387
		c-0.843,1.18-4.276,4.554-4.787,5.039c-0.507,0.485-4.957,4.832-5.817,5.398s-3.15,2.444-4.379,2.475
		c-0.68,0.019-1.181-0.013-1.689-0.264c-0.17,1.319-0.426,3.081-0.585,4.004c-0.269,1.544-1.035,5.24-1.59,7.156
		c-0.554,1.917-1.229,4.11-1.759,5.587c-0.529,1.481-1.505,3.432-1.902,4.139c-0.396,0.707-1.468,2.248-1.468,2.248
		s0.97,3.178,1.822,5.578c0.854,2.401,7.549,19.712,7.827,18.969c0.2-0.532,0.401-1.124,0.504-1.585
		c0.244-1.106,0.678-4.908,1.009-6.713c0.332-1.806,0.9-6.382,1.235-8.437c0.339-2.053,1.027-6.102,1.242-7.324
		c0.217-1.222,1.001-5.663,1.23-6.827c0.231-1.165,0.924-4.102,1.162-4.958C73.577,49.413,74.74,45.01,75.005,44.269z"/>
	
		<linearGradient id="SVGID_7_" gradientUnits="userSpaceOnUse" x1="-28.9888" y1="-3.9258" x2="-15.5376" y2="-3.9258" gradientTransform="matrix(0.9752 -0.2213 0.2213 0.9752 80.7391 39.2967)">
		<stop  offset="0" style="stop-color:#F8B22F"/>
		<stop  offset="0.1429" style="stop-color:#F7AA2E"/>
		<stop  offset="0.3821" style="stop-color:#F3982B"/>
		<stop  offset="0.6881" style="stop-color:#ED7A27"/>
		<stop  offset="1" style="stop-color:#E85224"/>
	</linearGradient>
	<path fill="url(#SVGID_7_)" d="M63.262,37.286c-1.17-1.339-1.814-2.553-2.818-4.794c-1.004-2.243-0.783-2.913-1.276-4.529
		c-0.49-1.619-0.687-1.945-1.018-2.858c-0.332-0.914-0.768-2.296-0.656-3.435c0.112-1.138,0.418-3.058,0.418-3.058
		s-0.092,0.133-0.228,0.334c-0.334,1.107-0.695,2.295-0.803,2.628c-0.22,0.667-0.613,4.647-0.779,5.55s-0.578,6.433-0.782,7.714
		c-0.203,1.281-0.322,5.385-0.538,6.608c-0.217,1.223-0.558,5.44-0.682,7.074c-0.123,1.635-0.425,2.751-0.327,2.915
		c0.101,0.164,1.642,4.509,1.946,5.304c0.303,0.795,1.572,4.216,1.686,4.438c0.112,0.22,0.559,1.106,0.559,1.106
		s0.325-2.111,0.812-2.962c0.485-0.851,1.788-3.557,2.284-4.905c0.498-1.348,1.476-4.66,1.751-5.895
		c0.275-1.236,0.91-4.16,1.082-5.311c0.171-1.151,0.489-3.014,0.628-4.036c0.028-0.219,0.059-0.476,0.091-0.74
		C64.2,38.229,63.785,37.887,63.262,37.286z"/>
	
		<linearGradient id="SVGID_8_" gradientUnits="userSpaceOnUse" x1="-31.6953" y1="-10.3335" x2="-17.7954" y2="-10.3335" gradientTransform="matrix(0.9752 -0.2213 0.2213 0.9752 80.7391 39.2967)">
		<stop  offset="0" style="stop-color:#F8B22F"/>
		<stop  offset="0.1429" style="stop-color:#F7AA2E"/>
		<stop  offset="0.3821" style="stop-color:#F3982B"/>
		<stop  offset="0.6881" style="stop-color:#ED7A27"/>
		<stop  offset="1" style="stop-color:#E85224"/>
	</linearGradient>
	<path fill="url(#SVGID_8_)" d="M57.826,18.735c-0.271,0.399-1.172,1.739-1.459,2.327c-0.337,0.691-0.907,1.44-1.391,2.044
		c-0.479,0.604-1.094,0.619-2.637,0.352c-1.542-0.269-1.388-0.673-2.124-1.742c-0.437-0.635-1.097-1.478-1.693-2.315
		c0.269,0.81,0.505,1.578,0.507,1.801c0.003,0.504,0.357,0.281,0.509,0.678c0.152,0.398,0.497,1.371,0.696,2.252
		c0.201,0.881,0.158,1.508,0.063,2.456c-0.093,0.948-0.459,2.329-0.691,2.938c-0.233,0.607-0.348,1.19-0.526,1.714
		c-0.173,0.522-0.962,1.528-1.126,1.626c-0.162,0.098-0.876,1.311-0.876,1.311s0.705,2.56,0.995,3.294
		c0.291,0.738,2.194,5.309,2.457,5.928c0.265,0.62,1.496,3.059,2.151,4.579c0.653,1.519,1.093,3.457,1.093,3.457
		s0.365-0.576,0.517-1.536c0.152-0.964,0.301-4.395,0.503-6.201c0.201-1.805,0.177-5.506,0.306-7.39
		c0.129-1.881,0.562-5.686,0.662-6.881c0.099-1.197,0.617-4.898,0.844-5.813c0.223-0.916,0.71-3.126,0.994-4.057
		C57.656,19.362,57.736,19.072,57.826,18.735z"/>
	
		<linearGradient id="SVGID_9_" gradientUnits="userSpaceOnUse" x1="-35.4854" y1="-26.3057" x2="-26.3818" y2="-26.3057" gradientTransform="matrix(0.9752 -0.2213 0.2213 0.9752 80.7391 39.2967)">
		<stop  offset="0" style="stop-color:#F8B22F"/>
		<stop  offset="0.1429" style="stop-color:#F7AA2E"/>
		<stop  offset="0.3821" style="stop-color:#F3982B"/>
		<stop  offset="0.6881" style="stop-color:#ED7A27"/>
		<stop  offset="1" style="stop-color:#E85224"/>
	</linearGradient>
	<path fill="url(#SVGID_9_)" d="M49.798,28.738c0.218-0.667,0.516-1.536,0.496-2.707c-0.019-1.168-0.122-2.442-0.407-3.427
		c-0.249-0.867-0.641-1.512-1.018-2.721c-0.535-0.731-1.068-1.485-1.402-2.115c-0.646-1.212-0.993-2.74-0.993-2.74L46.02,15.75
		c0,0-0.86,0.563-2.185-0.371c-1.325-0.935-1.511-1.757-2.248-2.827c-0.735-1.069-1.236-2.189-1.236-2.189l-0.609,1.126
		c0,0-1.011-0.637-1.343-1.548c-0.329-0.915-1.065-1.982-1.065-1.982s-0.006,0.138-0.011,0.36c0.36,1.053,0.729,2.115,0.894,2.6
		c0.371,1.091,1.745,4.423,2.521,6.471c0.773,2.049,2.109,5.76,2.792,7.954c0.684,2.191,1.903,5.126,2.546,6.588
		c0.64,1.461,1.002,2.244,1.002,2.244s0.688-1.723,1.172-2.253C48.732,31.391,49.579,29.406,49.798,28.738z"/>
	
		<linearGradient id="SVGID_10_" gradientUnits="userSpaceOnUse" x1="-42.958" y1="102.4937" x2="-12.1631" y2="102.4937" gradientTransform="matrix(0.9752 -0.2213 0.2213 0.9752 80.7391 39.2967)">
		<stop  offset="0" style="stop-color:#F8B22F"/>
		<stop  offset="0.1429" style="stop-color:#F7AA2E"/>
		<stop  offset="0.3821" style="stop-color:#F3982B"/>
		<stop  offset="0.6881" style="stop-color:#ED7A27"/>
		<stop  offset="1" style="stop-color:#E85224"/>
	</linearGradient>
	<path fill="url(#SVGID_10_)" d="M93.062,148.895c-0.544-1.854-2.482-6.047-2.482-6.047s-1.293-1.065-3.282-1.664
		s-3.777-1.677-5.414-2.355c-1.638-0.678-3.68-1.511-5.085-1.995c-1.408-0.484-3.219-0.568-4.924-0.736
		c-1.708-0.168-3.901-0.041-4.589-0.07c-0.687-0.031-3.198,0.603-4.061,0.61c-0.863,0.013-2.815,0.394-3.632,0.332
		c-0.106-0.007-0.234-0.019-0.379-0.032c-0.176,0.002-0.299-0.018-0.361-0.032c-0.004-0.003-0.009-0.001-0.014-0.001
		c0.152,0.055,0.875,0.34,2.797,1.199c2.199,0.982,2.341,1.609,4.662,2.4s4.884,1.197,6.964,2.373
		c2.079,1.176,3.594,1.324,6.37,2.674c2.778,1.346,3.39,1.866,6.202,3.367c2.812,1.506,4.742,2.755,4.742,2.755
		c0.628,0.47,2.515,1.626,3.673,2.12C93.946,152.66,93.549,150.558,93.062,148.895z"/>
	
		<linearGradient id="SVGID_11_" gradientUnits="userSpaceOnUse" x1="-71.7837" y1="85.27" x2="-13.3135" y2="85.27" gradientTransform="matrix(0.9752 -0.2213 0.2213 0.9752 80.7391 39.2967)">
		<stop  offset="0" style="stop-color:#F8B22F"/>
		<stop  offset="0.1429" style="stop-color:#F7AA2E"/>
		<stop  offset="0.3821" style="stop-color:#F3982B"/>
		<stop  offset="0.6881" style="stop-color:#ED7A27"/>
		<stop  offset="1" style="stop-color:#E85224"/>
	</linearGradient>
	<path fill="url(#SVGID_11_)" d="M87.293,132.721c-0.972-2.374-2.082-5.087-2.082-5.087s-1.951-0.979-3.811-1.545
		c-1.857-0.564-3.196-1.56-5.16-2.597c-1.965-1.038-4.593-2.54-6.589-3.446c-1.998-0.906-3.673-1.762-5.095-2.303
		c-1.419-0.544-5.197-0.859-6.439-0.888c-1.241-0.026-4.353-0.124-5.333-0.087c-0.979,0.037-3.946,0.031-5.481,0.071
		c-1.534,0.039-5.128,0.544-6.081,0.7c-0.954,0.154-5.094,0.969-5.855,1.145c-0.764,0.17-3.883,1.126-4.34,1.291
		c-0.457,0.166-1.37,0.498-1.943,0.688c-0.574,0.193-1.911,1.115-2.529,1.379c-0.134,0.055-0.307,0.142-0.49,0.235
		c-0.051,0.039-0.086,0.069-0.086,0.069s2.388-0.913,3.5-0.916c1.109-0.006,3.71,0.021,5.307,0.524
		c1.597,0.501,1.234,1.078,1.234,1.078l-1.513,0.961c0,0,3.867-0.384,5.057-0.035c1.19,0.349,4.012-0.29,5.256,0.291
		s4.079,0.555,5.452,0.616c1.372,0.058,4.47,0.097,6.264,0.925c1.796,0.829,4.709,1.155,5.89,2c1.181,0.844,1.495,1.144,2.023,2.382
		c0.529,1.239,0.31,1.907-0.272,3.151c-0.582,1.243-2.003,2.06-3.279,2.966c-1.278,0.908-2.089,0.599-2.089,0.599
		s0.149,0.056,0.549,0.222c0.324-0.057,0.646-0.117,0.981-0.125c0.614-0.016,0.883-0.201,1.307-0.236
		c0.423-0.033,1.855,0.013,2.267-0.08c0.41-0.094,3.022-0.563,3.61-0.697c0.587-0.133,3.306-0.131,4.299-0.109
		s3.615,0.415,4.311,0.752c0.693,0.336,4.572,1.371,5.194,1.661c0.622,0.292,4.215,1.7,5.18,2.409
		c0.964,0.708,4.075,2.163,4.075,2.163s-0.302-1.599-0.924-3.249C89.035,137.949,88.264,135.097,87.293,132.721z"/>
	
		<linearGradient id="SVGID_12_" gradientUnits="userSpaceOnUse" x1="-84.7969" y1="55.4736" x2="-14.9961" y2="55.4736" gradientTransform="matrix(0.9752 -0.2213 0.2213 0.9752 80.7391 39.2967)">
		<stop  offset="0" style="stop-color:#F8B22F"/>
		<stop  offset="0.1429" style="stop-color:#F7AA2E"/>
		<stop  offset="0.3821" style="stop-color:#F3982B"/>
		<stop  offset="0.6881" style="stop-color:#ED7A27"/>
		<stop  offset="1" style="stop-color:#E85224"/>
	</linearGradient>
	<path fill="url(#SVGID_12_)" d="M9.072,85.412c0.657,0.717,1.549,1.379,0.608,1.591c-0.94,0.214-2.104-0.015-2.104-0.015
		s1.885,0.684,2.29,0.838c0.407,0.154,1.389,0.674,3.002,1.79c1.611,1.116,2.701,2.106,3.854,2.833
		c1.153,0.725,0.998,1.131,0.768,2.297c-0.157,0.8-1.321,1.303-2.03,1.538c0.695-0.179,1.902-0.409,2.73-0.091
		c1.217,0.464,3.925,0.961,5.536,2.078c1.612,1.118,5.089,1.193,6.413,2.128c1.324,0.934,5.848,1.268,6.83,1.786
		c0.983,0.517,3.102,1.149,5.42,2.104c2.318,0.959,1.18,0.846,2.023,2.384c0.843,1.538,0.06,1.346-0.669,2.498
		c-0.728,1.153-3.878,3.599-5.417,4.443c-1.539,0.842-5.159,3.395-5.631,3.501c-0.469,0.106-0.751,1.034-2.174,1.852
		c-1.419,0.815-4.545,3.379-4.545,3.379s0.452-0.174,1.053-0.367c0.588-0.367,1.257-0.783,1.412-0.861
		c0.223-0.112,1.417-0.568,1.625-0.739c0.209-0.172,2.18-0.743,2.931-0.974c0.749-0.231,2.925-0.725,3.439-0.903
		c0.515-0.181,4.314-0.854,5.313-1.083c1-0.226,5.684-0.547,6.898-0.64c1.215-0.089,6.986,0.022,7.834-0.047
		c0.85-0.069,4.64,0.308,5.602,0.458c0.962,0.154,3.718,1.135,4.7,1.652s3.864,1.779,4.543,2.059
		c0.681,0.278,4.427,2.084,5.246,2.701c0.82,0.617,4.599,2.293,5.549,2.941s3.11,1.456,3.11,1.456s-0.163-1.26-0.138-1.698
		c0.022-0.438-1.765-4.232-3.427-7.748c-1.663-3.514-3.223-7.669-3.865-9.13c-0.64-1.46-1.019-1.497-1.915-1.913
		c-0.897-0.414-3.528-1.67-5.462-2.838c-1.933-1.168-5.139-3.589-6.293-4.317c-1.153-0.725-4.191-2.138-5.376-2.731
		c-1.187-0.598-4.551-1.812-5.866-2.438c-1.315-0.628-4.117-1.535-5.452-1.975c-1.335-0.438-5.598-1.263-6.396-1.513
		c-0.799-0.252-4.246-1.016-6.326-1.468c-2.08-0.457-5.238-1.037-6.487-1.372c-1.249-0.332-4.707-0.599-5.493-0.791
		c-0.784-0.194-2.941-0.446-3.799-0.684c-0.858-0.237-2.807-0.659-3.794-0.929c-0.989-0.271-3.96-1.388-4.641-1.665
		c-0.68-0.277-2.578-1.02-3.574-1.569c-0.996-0.545-2.24-1.189-3.693-2.292c0,0,2.245,1.715,3.019,2.405
		C7.027,84.025,8.416,84.696,9.072,85.412z"/>
	
		<linearGradient id="SVGID_13_" gradientUnits="userSpaceOnUse" x1="-84.7969" y1="28.936" x2="-18.6216" y2="28.936" gradientTransform="matrix(0.9752 -0.2213 0.2213 0.9752 80.7391 39.2967)">
		<stop  offset="0" style="stop-color:#F8B22F"/>
		<stop  offset="0.1429" style="stop-color:#F7AA2E"/>
		<stop  offset="0.3821" style="stop-color:#F3982B"/>
		<stop  offset="0.6881" style="stop-color:#ED7A27"/>
		<stop  offset="1" style="stop-color:#E85224"/>
	</linearGradient>
	<path fill="url(#SVGID_13_)" d="M73.834,101.183c-0.908-1.277-3.068-6.718-4.414-9.378c-1.345-2.659-2.196-4.505-3.172-6.629
		c-0.977-2.126-1.951-3.696-2.843-4.361c-0.892-0.661-4.512-3.546-5.645-4.462c-1.136-0.917-6.365-5.724-8.262-7.27
		c-1.894-1.545-4.713-3.625-6.403-4.538c-1.69-0.915-2.64-1.563-4.456-2.759c-1.814-1.193-5.496-3.261-6.523-3.707
		c-1.029-0.446-4.265-2.183-5.188-2.716c-0.923-0.53-3.809-1.543-4.864-2.106c-1.055-0.564-1.979-1.096-3.321-1.841
		c-1.343-0.747-2.601-1.389-3.287-1.972c-0.689-0.585-0.639-0.311-1.321-0.885c-0.408-0.344-1.304-1.197-2.095-1.878
		c-0.198-0.105-0.306-0.172-0.306-0.172s1.484,1.641,2.023,2.383c0.539,0.743,1.105,1.602,1.105,1.602l-0.877-0.048
		c0,0,1.447,2.021,2.157,2.97c0.71,0.951,1.933,2.527,2.984,3.895s1.014,1.747,0.506,2.233c-0.507,0.484-3.059-0.417-3.059-0.417
		s2.108,1.126,2.973,1.67c0.865,0.546,3.386,2.939,5.654,4.771c2.269,1.834,4.548,3.169,6.349,5.109
		c1.798,1.939,2.364,2.799,3.48,3.905c1.115,1.107,0.816,1.421,0.116,2.691c-0.7,1.272-1.731,1.628-3.271,2.471
		c-1.537,0.844-3.588,1.063-5.847,1.451c-2.26,0.388-2.718,0-4.806,0.597c-2.091,0.597-3.569,0.069-4.616-0.188
		c-0.613-0.15-1.014-0.307-1.258-0.481c0.185,0.398,0.344,0.974,0.1,1.361c-0.454,0.721-1.502,0.464-2.819,0.64
		c-1.318,0.176-2.719,0-4.496-0.214c-1.779-0.214-4.899-1.979-4.899-1.979s0.164,0.123,0.408,0.313
		c0.497,0.372,0.987,0.718,1.333,0.97c0.964,0.71,1.258,0.644,2.311,1.207c1.056,0.564,2.477,1.107,3.575,1.598
		c1.102,0.491,1.966,1.035,3.594,1.408c1.63,0.373,2.096,0.514,3.638,0.781c1.543,0.269,1.836,0.202,3.145,0.522
		c1.31,0.321,2.623,0.394,3.786,0.624c1.164,0.229,3.151,0.271,4.512,0.828c1.361,0.555,4.075,0.808,5.658,1.251
		c1.583,0.444,4.599,0.933,5.849,1.268c1.25,0.333,3.642,0.532,5.572,1.144c1.93,0.613,3.801,1.237,5.641,1.994
		c1.84,0.756,3.975,1.446,5.951,2.54c1.979,1.094,3.878,1.84,5.718,3.15c1.844,1.313,4.66,2.836,6.127,3.861
		c1.47,1.025,2.662,1.93,4.154,2.517c1.492,0.589,3.005,0.985,3.005,0.985S74.743,102.459,73.834,101.183z"/>
	
		<linearGradient id="SVGID_14_" gradientUnits="userSpaceOnUse" x1="-68.8911" y1="6.7368" x2="-25.3687" y2="6.7368" gradientTransform="matrix(0.9752 -0.2213 0.2213 0.9752 80.7391 39.2967)">
		<stop  offset="0" style="stop-color:#F8B22F"/>
		<stop  offset="0.1429" style="stop-color:#F7AA2E"/>
		<stop  offset="0.3821" style="stop-color:#F3982B"/>
		<stop  offset="0.6881" style="stop-color:#ED7A27"/>
		<stop  offset="1" style="stop-color:#E85224"/>
	</linearGradient>
	<path fill="url(#SVGID_14_)" d="M64.511,82.418l-0.95-2.008c0,0-2.237-6.595-2.942-9.154c-0.703-2.558-3.116-9.918-4.762-14.178
		c-1.646-4.259-3.093-7.637-3.466-9.282c-0.372-1.645-1.278-2.369-1.48-2.443c-0.202-0.079-2.095-1.069-3.479-1.992
		c-1.383-0.921-2.976-2.229-4.564-3.782c-1.587-1.555-3.188-3.167-4.304-4.275c-1.116-1.106-2.269-2.636-3.593-4.125
		c-1.327-1.491-1.809-2.247-2.805-3.349c-0.977-1.077-1.775-1.46-2.481-2.132c-0.297-0.188-0.506-0.321-0.506-0.321
		s2.033,1.885,2.547,2.51c0.511,0.626,0.868,1.655,1.369,2.778c0.504,1.124,0.92,3.5,1.383,5c0.465,1.5,1.26,3.915,1.819,6.382
		c0.56,2.468,0.678,2.441,0.292,4.012c-0.385,1.569-2.446,2.284-3.124,2.563c-0.678,0.275-2.857,1.019-5.197,1.055
		c-2.339,0.037-3.855-0.113-5.661-0.444c-1.806-0.334-3.743-1.251-4.998-1.338c-1.254-0.084-1.816,0.166-3.411-0.337
		c-1.597-0.502-2.463-1.048-2.463-1.048s0.227,0.252,0.531,0.598c0.613,0.466,1.235,1.116,2.062,1.728
		c0.893,0.663,0.997,0.578,1.764,0.958c0.766,0.383,2.608,1.693,3.681,2.068c1.074,0.375,3.53,1.67,5.043,2.625
		c1.515,0.953,4.891,2.226,6.405,3.179c1.514,0.954,3.961,1.944,5.344,2.864c1.385,0.92,5.123,2.976,6.133,3.612
		c1.009,0.637,4.337,2.784,5.899,4.222c1.563,1.436,4.093,3.331,5.354,4.531c1.26,1.195,5.143,4.701,6.791,6.242
		C62.385,80.677,64.511,82.418,64.511,82.418z"/>
	
		<linearGradient id="SVGID_15_" gradientUnits="userSpaceOnUse" x1="-46.7842" y1="-20.4316" x2="-30.2485" y2="-20.4316" gradientTransform="matrix(0.9752 -0.2213 0.2213 0.9752 80.7391 39.2967)">
		<stop  offset="0" style="stop-color:#F8B22F"/>
		<stop  offset="0.1429" style="stop-color:#F7AA2E"/>
		<stop  offset="0.3821" style="stop-color:#F3982B"/>
		<stop  offset="0.6881" style="stop-color:#ED7A27"/>
		<stop  offset="1" style="stop-color:#E85224"/>
	</linearGradient>
	<path fill="url(#SVGID_15_)" d="M36.678,13.79c-0.313-0.298-0.896-1.772-0.896-1.772s0.239,3.775,0.399,4.48
		c0.161,0.705,0.682,3.55,0.895,4.491c0.214,0.94,0.07,3.567-0.16,4.732c-0.229,1.163-0.766,1.532-1.154,1.991
		c-0.392,0.458-2.692,0.116-3.558-0.429c-0.605-0.38-1.835-1.155-2.525-1.591c0.776,0.769,1.297,0.912,2.025,1.716
		c0.742,0.819,1.115,1.107,1.956,2.088c0.841,0.984,1.025,1.25,2.708,3.218c1.682,1.964,2.194,2.589,4.024,4.399
		c1.831,1.807,2.573,2.627,4.612,4.264c2.04,1.638,2.95,2.111,3.9,2.761c0.95,0.648,2.005,1.213,2.005,1.213s0.11-0.336-0.037-0.981
		c-0.146-0.646-2.021-5.101-2.451-6.176c-0.43-1.076-0.711-2.309-1.767-4.788c-1.058-2.479-1.916-4.632-2.426-6.061
		c-0.509-1.427-1.763-5.592-2.457-7.288c-0.693-1.695-2.168-5.746-2.611-6.882c-0.443-1.133-0.778-1.8-1.123-2.772
		c-0.345-0.973-0.357-1.608-0.705-2.445c0,0-0.103,3.359,0.02,4.443C37.474,13.487,36.994,14.09,36.678,13.79z"/>
	
		<linearGradient id="SVGID_16_" gradientUnits="userSpaceOnUse" x1="-81.7026" y1="54.7964" x2="29.6265" y2="54.7964" gradientTransform="matrix(0.9752 -0.2213 0.2213 0.9752 80.7391 39.2967)">
		<stop  offset="0" style="stop-color:#E01E26"/>
		<stop  offset="0.4242" style="stop-color:#F29220"/>
		<stop  offset="0.5342" style="stop-color:#F29524"/>
		<stop  offset="0.6727" style="stop-color:#F49F31"/>
		<stop  offset="0.8266" style="stop-color:#F7B149"/>
		<stop  offset="0.9906" style="stop-color:#FCCA6B"/>
		<stop  offset="1" style="stop-color:#FCCB6E"/>
	</linearGradient>
	<path fill="url(#SVGID_16_)" d="M106.642,184.723c0,0,2.458-0.063,2.871-1.147c0.412-1.081,0.163-2.177-0.412-2.541
		c-0.577-0.365-3.319-5.178-4.776-7.978c-1.458-2.798-3.218-6.189-5.927-12.328c-2.712-6.138-3.01-6.729-3.415-7.791
		c-0.405-1.059-3.514-10.404-4.077-11.431c-0.56-1.022-0.688-2.314-0.688-2.314s0.704-1.973,1.702-4.835
		c0.998-2.86,2.465-5.829,3.627-7.245c1.16-1.418,4.438-5.127,6.346-6.877c1.909-1.75,3.839-2.682,6.135-4.192
		c2.293-1.509,5.839-3.302,5.839-3.302l2.124-0.81c0,0-2.893,0.323-9.173,4.22c-6.282,3.898-7.783,5.64-9.385,7.65
		c-1.604,2.011-3.563,4.266-4.528,6.543c-0.966,2.279-1.432,3.127-2.157,5.021c-0.722,1.892-0.978,2.94-0.978,2.94
		s-1.253-3.342-1.671-4.81c-0.413-1.471-0.626-2.413-1.588-4.829c-0.962-2.418-0.962-2.418-0.962-2.418s1.023-1.303,1.902-3.232
		c0.882-1.929,1.094-2.801,1.895-5.451c0.796-2.654,1.466-4.781,2.529-7.001c1.062-2.218,2.955-5.118,4.459-7.931
		c1.505-2.812,3.016-4.143,4.65-6.737c1.634-2.596,2.579-3.88,4.972-6.4c2.396-2.52,2.515-2.711,5.896-5.952
		c3.386-3.238,3.246-3.124,4.756-4.454c1.512-1.333,2.871-2.96,2.871-2.96s-3.42,3.084-5.188,4.72
		c-1.771,1.637-5.372,5.009-7.263,6.838c-1.89,1.829-6.188,7.581-8.396,10.553c-2.208,2.972-5.323,8.124-6.377,10.013
		c-1.055,1.887-2.063,4.34-2.915,6.756c-0.851,2.416-1.254,3.91-2.063,6.15c-0.807,2.243-0.747,2.148-1.415,3.205
		c-0.662,1.057-0.761,0.996-0.902,0.37s-1.948-4.583-2.995-7.393c-1.05-2.81-2.366-4.979-3.064-6.965
		c-0.697-1.984-1.198-3.104-1.198-3.104s-0.204-0.53,0.073-0.761c0.28-0.227,1.782-3.037,2.156-5.018
		c0.377-1.98,0.993-6.153,1.212-8.099c0.217-1.945,0.475-4.805,1.188-7.107c0.712-2.303,2.758-6.72,3.704-9.079
		c0.948-2.356,2.867-5.509,4.665-9.211c1.796-3.703,3.213-6.164,4.825-9.579c1.618-3.416,2.662-4.97,4.246-7.799
		c1.581-2.83,2.1-3.443,3.39-5.383c1.29-1.94,1.368-1.957,2.113-3.031c0.743-1.075,1.41-2.133,1.41-2.133s-1.707,2.283-3.25,4.197
		c-1.543,1.916-4.452,7.602-6.098,9.787c-1.644,2.185-4.032,7.997-5.147,9.98c-1.115,1.98-3.517,6.645-4.717,8.976
		c-1.201,2.333-2.441,5.58-3.599,7.736c-1.158,2.156-1.566,4.72-2.416,7.138c-0.854,2.417-0.569,5.483-1.039,7.401
		c-0.471,1.919-0.628,3.769-0.995,5.416c-0.368,1.647-0.188,1.358-0.899,2.921c-0.717,1.563-1.324,2.523-1.324,2.523
		s-1.878-3.197-3.156-6.284c-1.275-3.087-1.749-3.719-3.429-7.129c-1.68-3.407-2.271-4.92-2.623-5.747
		c-0.35-0.826-0.626-1.668-0.626-1.668s0.959-1.948,1.179-3.152c0.222-1.204,0.849-5.711,0.944-7.462
		c0.098-1.752,1.225-8.762,1.441-10.706c0.217-1.945,1.727-9.451,2.092-11.841c0.362-2.389,1.774-6.333,2.796-9.448
		c1.024-3.116,2.5-6.415,3.275-8.074c0.775-1.658,1.104-2.391,1.665-3.92c0.559-1.527,1.206-2.663,1.561-3.65
		c0.353-0.984,1.009-2.451,1.009-2.451s-1.705,3.021-2.591,5.281c-0.887,2.261-3.554,8.302-4.58,10.677
		c-1.023,2.375-2.734,8.28-3.339,11.053c-0.605,2.775-2.232,11.215-2.769,14.302c-0.534,3.086-0.702,6.337-1.145,8.743
		c-0.443,2.406-0.175,3.583-0.854,6.043c-0.677,2.46-0.442,2.406-0.907,3.252c-0.468,0.847-0.231,1.534-0.898,0.038
		c-0.668-1.493-2.522-4.946-3.618-8.319c-1.095-3.376-2.177-7.414-3.182-10.398c-1.008-2.985-1.3-3.907-1.3-3.907
		s1.081-1.398,1.399-2.541c0.316-1.143,1.648-3.999,2.471-6.902c0.823-2.904,0.934-3.506,1.539-6.28
		c0.607-2.772,0.779-5.283,0.832-5.049c0.054,0.234-0.76,3.549-1.575,6.124c-0.817,2.572-1.326,5.408-1.885,6.934
		c-0.561,1.528-0.878,2.672-1.654,4.33c-0.777,1.66-1.261,2.427-1.393,2.211c-0.131-0.218-1.271-3.419-1.957-4.994
		c-0.686-1.574-1.43-4.124-1.43-4.124s0.15-1.515,0.306-4.104c0.152-2.587,0.257-4.672,0.461-7.767
		c0.202-3.092,0.47-5.541,0.728-8.4c0.257-2.859,0.11-3.156,0.388-5.194c0.277-2.042,0.394-3.714,0.394-3.714
		s-0.525,3.498-0.916,6.138c-0.388,2.64-0.6,6.066-0.862,9.258c-0.267,3.188,0.085,4.015-0.198,6.385
		c-0.288,2.372-0.608,4.586-0.742,5.441c-0.137,0.854-0.283,1.299-0.653,0.394c-0.371-0.904-3.479-8.433-4.57-11.07
		c-1.095-2.636-1.532-3.853-1.532-3.853s0.785-1.25,1.784-3.371c1.004-2.123,1.004-2.123,1.344-4.257
		c0.337-2.139,0.003-2.884-0.174-3.668c-0.179-0.783-1.22-2.113-1.22-2.113s0.975,1.757,1.076,3.299
		c0.104,1.542-0.004,2.886-0.503,4.316c-0.5,1.429-0.63,1.953-1.354,3.107c-0.729,1.152-1.181,1.336-1.181,1.336
		s-1.318-2.913-1.741-4.051c-0.426-1.139-1.396-3.967-2.824-8.09c-1.43-4.122-1.483-4.358-2.34-6.307
		c-0.853-1.947-2.249-4.844-2.249-4.844s0.796,2.787,1.465,4.282c0.669,1.496,1.852,5.263,2.557,6.916
		c0.705,1.651,0.737,2.879,1.864,5.671c1.129,2.792,0.979,3.236,2.213,5.757c1.229,2.522,1.817,5.108,2.521,6.759
		c0.706,1.653,1.904,4.757,1.958,4.992c0.054,0.236-1.264-0.125-3.467-1.847c-2.204-1.724-3.891-2.989-5.835-5.02
		c-1.942-2.028-2.904-2.634-4.399-4.519c-1.501-1.883-3.329-3.775-3.329-3.775s-1.428-1.57-1.295-1.353
		c0.129,0.218,2.042,2.832,3.258,4.204c1.218,1.368,2.777,3.156,3.766,4.251c0.991,1.094,2.171,2.308,3.51,3.486
		c1.339,1.179,2.484,2.238,3.771,3.181c1.283,0.944,2.054,1.428,3.109,2.094c1.056,0.666,1.721,0.681,1.827,1.152
		c0.106,0.469,1.329,3.321,1.865,4.599c0.538,1.279,1.307,3.577,1.307,3.577s0.346,1.156,0.797,2.782
		c0.451,1.628,1.649,4.731,2.198,6.422c0.549,1.687,1.28,3.827,2.217,6.497c0.935,2.671,1.222,4.665,2.051,6.864
		c0.827,2.203,1.443,3.462,1.443,3.462s-4.52-3.585-6.901-6.094c-2.38-2.509-8.499-6.966-10.475-8.414
		c-1.975-1.447-8.587-5.545-10.535-6.505c-1.946-0.958-6.359-3.334-9.388-4.707c-3.029-1.371-6.438-3.314-7.824-3.988
		c-1.39-0.674-4.026-2.134-4.026-2.134s2.09,1.584,3.915,2.734c1.827,1.152,4.357,2.145,6.515,3.301
		c2.157,1.158,4.725,2.305,6.804,3.479c2.078,1.176,5.185,2.529,7.066,3.915c1.878,1.387,4.942,2.914,6.726,4.24
		c1.782,1.325,4.604,3.238,6.707,5.232c2.099,1.994,3.035,2.854,5.859,5.507c2.826,2.653,3.332,2.7,4.841,4.255
		c1.504,1.551,2.194,2.054,2.756,3.082c0.563,1.025,4.063,8.469,5.277,10.911c1.213,2.442,2.332,5.563,3.493,7.772
		c1.159,2.207,2.101,3.808,2.101,3.808s-2.337-0.128-4.768-2.131c-2.433-2.002-6.345-3.996-8.842-5.571
		c-2.498-1.577-8.032-3.449-10.188-4.607c-2.157-1.156-7.453-2.343-9.492-2.624c-2.04-0.278-6.437-1.504-8.957-2.085
		c-2.52-0.583-7.157-1.423-10.794-1.834c-3.632-0.411-5.957-1.201-8.146-1.775c-2.189-0.575-4.004-1.315-5.278-1.849
		c-1.275-0.537-2.802-1.096-2.802-1.096s4.201,2.177,6.365,3.003c2.165,0.828,6.262,1.463,8.685,1.983
		c2.428,0.522,5.982,0.95,8.23,1.427c2.252,0.478,5.873,1.551,7.814,1.769c1.945,0.218,4.869,1.118,7.485,1.761
		s4.781,1.469,6.945,2.297c2.165,0.824,4.328,1.652,5.795,2.308c1.466,0.656,3.563,1.91,4.891,2.678
		c1.328,0.771,2.612,1.715,4.44,2.865c1.824,1.15,1.859,1.307,4.147,2.682c2.29,1.375,2.29,1.377,3.66,1.973
		c1.369,0.594,1.582,0.793,1.862,1.307c0.279,0.512,1.917,4.094,2.789,6.121c0.872,2.025,1.272,4.158,2.538,6.835
		c1.269,2.679,1.876,4.269,1.876,4.269s-2.929-0.568-4.469-1.539c-1.536-0.969-5.623-3.005-9.229-4.74
		c-3.608-1.735-6.874-3.796-12.232-3.814c-5.358-0.02-9.802,0.002-11.986,0.166c-2.187,0.168-6.566,0.832-8.465,1.18
		s-7.944,2.38-8.654,2.869c0,0,3.861-1.122,6.76-1.778c2.898-0.659,9.038-1.558,11.379-1.761c2.344-0.202,6.509,0.009,8.341,0.084
		c1.829,0.08,4.328-0.158,6.457,0.512s5.11,1.475,7.034,2.688c1.921,1.212,3.265,1.319,5.649,2.753
		c2.383,1.438,2.932,1.313,5.353,2.904c2.42,1.591,4.437,2.124,4.437,2.124s1.142,2.128,2.149,5.111
		c1.004,2.984,0.604,2.663,1.643,5.063s1.173,3.358,1.173,3.358s-3.151-1.18-6.138-2.724c-2.986-1.548-4.503-1.698-7.581-2.563
		c-3.082-0.867-5.052-0.832-7.488-0.691c-2.438,0.145-5.493,0.836-6.216,0.918c-0.723,0.081-1.506,0.258-1.506,0.258
		s3.172,0.188,5.287-0.293s4.083-0.515,6.124-0.237c2.04,0.28,3.584,0.918,5.834,1.396c2.25,0.476,2.494,0.833,4.792,1.877
		c2.297,1.044,2.567,1.148,4.705,2.229c2.142,1.08,2.963,1.799,2.963,1.799s0.594,2.253,1.537,4.592
		c0.94,2.341,1.303,3.578,2.246,5.917c0.944,2.337,2.094,5.949,3.059,8.034c0.97,2.088,3.261,7.826,4.402,9.956
		c1.143,2.13,1.319,2.913,2.708,5.399c1.387,2.486,1.171,2.617,1.858,4.19c0.684,1.574-0.334,1.806,0.099,2.615"/>
</g>
</svg>
