<?xml version="1.0" encoding="utf-8"?>
<!-- Generator: Adobe Illustrator 16.0.0, SVG Export Plug-In . SVG Version: 6.00 Build 0)  -->
<!DOCTYPE svg PUBLIC "-//W3C//DTD SVG 1.1//EN" "http://www.w3.org/Graphics/SVG/1.1/DTD/svg11.dtd">
<svg version="1.1" id="Layer_1" xmlns="http://www.w3.org/2000/svg" xmlns:xlink="http://www.w3.org/1999/xlink" x="0px" y="0px"
	 width="250px" height="300px" viewBox="0 0 250 300" enable-background="new 0 0 250 300" xml:space="preserve">
<g>
	
		<radialGradient id="SVGID_1_" cx="57.9458" cy="200.0449" r="93.4766" gradientTransform="matrix(-0.3507 -0.9366 0.9366 -0.3507 -12.5347 305.4453)" gradientUnits="userSpaceOnUse">
		<stop  offset="0.1191" style="stop-color:#CB2027"/>
		<stop  offset="0.9939" style="stop-color:#751313"/>
	</radialGradient>
	<path fill="url(#SVGID_1_)" d="M234.422,229.417c0,0,0.575-0.555-0.04-1.897c0,0-12.218-3.847-15.828-5.079
		c-3.606-1.233-17.62-6.88-31.528-16.725c-13.906-9.844-31.207-25.153-32.77-26.931c0,0-2.535,2.524-1.096,3.672
		c1.441,1.144,7.175,5.062,9.377,7.043c2.203,1.983,19.293,16.139,25.042,19.492c5.747,3.35,21.277,13.036,34.964,16.896
		C222.543,225.888,232.425,229.49,234.422,229.417z"/>
	
		<radialGradient id="SVGID_2_" cx="72.6519" cy="189.6299" r="86.8877" gradientTransform="matrix(-0.3507 -0.9366 0.9366 -0.3507 -12.5347 305.4453)" gradientUnits="userSpaceOnUse">
		<stop  offset="0" style="stop-color:#E01E26"/>
		<stop  offset="0.2298" style="stop-color:#D81E25"/>
		<stop  offset="0.5295" style="stop-color:#C41E24"/>
		<stop  offset="0.8665" style="stop-color:#A61C20"/>
		<stop  offset="0.9818" style="stop-color:#9A1B1F"/>
	</radialGradient>
	<path fill="url(#SVGID_2_)" d="M154.702,180.869c0,0,1.968,2.856,1.362,11.731c0,0-0.211,4.235,0.563,7.204
		c0.773,2.966,1.151,7.879-1.385,12.2c0,0,0.135-2.638-0.628-3.476c-0.763-0.836-1.87-0.197-2.204,2.509
		c-0.334,2.713-0.066,9.125-3.283,12.236c0,0,0.68-2.386-0.342-3.015c-1.023-0.628-2.34,3.347-3.178,5.01
		c-0.837,1.66-1.05,4.099-2.306,6.14c-1.259,2.041-2.919,4.798-3.835,6.267c-0.91,1.464-1.857,3.727-4.262,5.414
		c0,0,0.815-2.327,0.879-4.26c0.063-1.933,1.48-7.742,1.62-10.378c0.138-2.635-0.085-9.516,0.351-12.26
		c0.43-2.747,1.022-6.562,0.619-8.546c-0.408-1.982-0.714-3.104-0.219-4.184c0,0-3.758,1.97-6.174,4.217
		c-2.411,2.253-4.846,2.941-6.227,4.355c-1.381,1.413-4.719,7.496-7.309,10.485c-2.584,2.989-4.112,5.809-6.096,8.009
		c-1.982,2.206-2.314,3.115-3.215,4.911c0,0-0.504-1.045,0.015-3.261c0.517-2.217,0.604-6.182,0.967-9.12
		c0.355-2.948-0.024-4.263-0.271-5.52c0,0-2.585,1.194-5.973,2.353c-3.388,1.153-5.934,2.443-8.692,4.376
		c-2.758,1.933-3.684,3.062-6.442,3.197c0,0,1.049-0.505,1.665-1.858c0.616-1.354-0.246-3.053,0.928-4.73
		c0,0-2.906,0.643-4.854,2.044c-1.944,1.402-5.306,3.223-8.26,3.432c0,0,1.49-1.119,1.994-2.768c0,0-2.019,0.306-3.831,0.87
		c-1.806,0.564-2.596,0.86-4.875,1.377c-2.275,0.518-10.279,3.738-15.694,1.272c0,0,7.338-3.199,9.974-4.858
		c2.634-1.661,8.523-8.132,12.931-10.459c0,0-0.788-1.502-3.078-1.317c0,0,1.404-1.649,5.36-2.794
		c3.95-1.143,10.5-3.142,10.846-4.618c0.348-1.481-2.154-2.453-4.088-1.614c0,0,1.358-2.979,7.615-4.875
		c6.252-1.892,17.963-5.714,23.642-14.241c0,0-0.04-0.994-1.969-1.959c-1.934-0.96-7.741-3.278-9.82-3.735
		c-2.082-0.457-6.464-0.164-12.854,1.669c-6.393,1.83-9.901,3.257-13.567,3.955c0,0,1.749-1.328,1.784-2.127
		c0,0-0.799-0.038-2.18,0.475c-1.378,0.519-16.366,5.794-20.942,6.164c0,0,1.43-0.983,3.648-3.165
		c2.216-2.181,4.727-5.367,8.03-7.947c3.299-2.584,5.348-7.618,7.612-9.365c0,0-3.165-2.749-6.095-3.674
		c-2.925-0.927-13.232,0.349-19.634-2.646c0,0,6.983-2.947,6.689-5.533c-0.293-2.588-5.464-2.896-6.941-3.247
		c-1.477-0.34-6.266-1.131-9.085-2.661c0,0,3.991-1.044,3.364-2.72c-0.627-1.674-2.252-1.513-3.975-2.216
		c-1.726-0.702-6.614-1.455-9.54-2.382c0,0,3.25-0.317,2.991-1.009c-0.26-0.686-5.304-1.268-8.259-2.858
		c-2.952-1.593-10.632-6.8-13.758-6.755c0,0,2.792-0.934,7.941,0.51c5.144,1.442,8.873,1.507,11.964,1.361
		c3.092-0.147,4.208,0.448,6.585,0.791c2.378,0.346,3.265-1.783-0.083-3.227c0,0,1.291-1.045,5.231,0.177
		c3.937,1.22,9.394,1.087,11.499,2.205c0,0,0.323-5.731-2.128-8.973c0,0,2.415,0.445,6.363,2.896
		c3.949,2.455,8.763,5.707,10.842,6.164c2.083,0.454,5.148,0.543,7.239,1.331c0,0,0.216-13.222-4.949-22.519
		c0,0,5.92,2.614,12.158,9.376c6.237,6.763,11.478,12.66,15.663,15.138c4.185,2.475,20.969,9.22,25.375,12.286
		c0,0-0.538-3.839-0.489-6.105c0.051-2.266,0.396-6.438-3.931-15.599c-4.33-9.164-10.227-9.309-9.852-16.416
		c0,0,4.611,3.329,5.401,1.233c0.788-2.091-7.808-15.159-6.686-21.756c0,0,2.188,3.448,2.965,1.921
		c0.776-1.522-6.145-21.508,0.349-34.16c0,0,5.402,23.136,8.827,22.979c0,0,2.165,0.087,1.479-2.354c0,0,3.138,0.287,7.23,15.712
		c0,0,4.386-2.09,4.914-5.769c0,0,1.365,3.643,1.816,9.652c0.453,6.009,3.415,13.322,5.336,14.849
		c1.92,1.529,3.164-0.849,4.546-2.262c1.376-1.417,1.872-3.398,4.31-4.983c2.44-1.587,3.754-2.866,4.148-4.813
		c0,0,0.48,4.874-0.295,7.297c-0.778,2.432-1.213,10.563-1.83,12.818c-0.617,2.253-1.928,13.749,1.885,22.434
		c0,0,6.721-6.337,9.764-8.71c3.043-2.379,8.129-6.19,10.85-8.22s7.365-5.228,8.992-7.186c0,0-2.333,7.274-5.041,10.535
		c-2.713,3.263-4.547,6.756-5.041,8.739c-0.492,1.981-3.093,4.64-4.176,5.942c-1.084,1.308-1.74,4.356-0.175,3.436
		c1.565-0.924,2.145-1.477,2.401-2.585c0,0-0.443,5.107-4.04,8.702c-3.597,3.593-4.878,5.869-5.628,8.062
		c-0.752,2.188-5.506,7.785-7.135,10.643c-1.627,2.858-3.389,6.544-4.323,7.347C154.146,180.289,154.189,180.386,154.702,180.869z"
		/>
	<path fill="#E29025" d="M137.353,238.914c0,0,0.839-3.46,2.17-6.203c1.33-2.742,2.833-8.026,3.659-11.816s2.459-10.242,3.244-13.23
		c0.793-2.996,2.838-7.131,3.197-10.97c0.359-3.843,0.754-7.585,1.863-10.021c1.111-2.437,2.109-5.17,2.587-5.685
		c0,0,0.577-1.451,0.628-2.819c0.051-1.365-0.785-4.197-0.599-5.503c0,0,3.339-6.079,5.103-10.668
		c1.762-4.593,3.068-6.205,4.264-8.111c1.196-1.91,2.541-6.12,3.941-8.667c1.404-2.546,8.035-12.439,12.507-16.698
		c0,0-8.215,7.454-13.724,17.045c0,0-2.254,4.774-3.377,6.88c-1.122,2.104-4.791,7.298-5.58,10.288
		c-0.791,2.991-3.5,7.149-3.848,7.729c0,0-3.283-9.666-4.007-12.202c-0.723-2.537-1.216-4.152-1.116-5.085l-0.036-0.998
		c0,0,4.063-3.543,5.357-7.284c1.296-3.743,1.615-9.48,1.477-14.365c0,0-0.489,9.504-2.155,14.056
		c-1.664,4.555-3.533,5.257-5.124,6.415c0,0-2.507-6.702-3.243-9.569c0,0,3.511-3.226,4.285-6.547
		c0.781-3.322,4.246-22.258,8.041-28.621c0,0-3.668,4.295-5.48,12.95c-1.818,8.652-2.977,14.253-3.472,15.337
		c-0.495,1.081-2.204,4.309-4.051,5.674c0,0-0.899-1.797-1.785-3.265c-0.884-1.464-3.614-6.955-5.053-11.694l-0.821-2.5
		c0,0,5.107-2.25,6.295-7.187c0,0-2.537,5.219-6.703,6.103c0,0-2.481-7.836-2.641-8.559c-0.159-0.727-0.159-0.727-0.159-0.727
		s5.737-5.966,5.241-19.597c0,0-0.686,14.075-6.015,18.428c0,0-1.159-2.489-1.967-4.657c-0.814-2.166-2.057-4.283-2.499-6.365
		c-0.439-2.079-2.236-6.575-3.197-9.133c-0.958-2.565-6.416-17.145-8.096-25.834c0,0,1.605,9.395,3.903,16.73
		c2.3,7.339,4.635,12.98,4.979,14.2c0,0-0.555,0.317-1.785-0.568c-1.231-0.887-3.336-2.906-5.133-3.807c0,0,0.951,1.33,2.438,2.904
		c1.488,1.576,3.632,2.8,4.602,2.995c0,0,3.478,8.695,5.154,12.56c1.67,3.867,4.3,12.09,4.495,12.917
		c0.197,0.823,0.493,1.614,0.493,1.614s-0.863,0.995-2.67-0.235c-1.811-1.23-7.334-5.791-9.7-7.601
		c-2.359-1.814-3.197-1.948-5.006-3.181c0,0,1.315,1.418,2.991,2.585c1.672,1.173,5.24,4.104,7.064,5.669
		c1.82,1.563,5.13,4.704,7.407,4.191c0,0,4.168,10.232,6,13.026c1.834,2.793,3.545,8.556,4.293,10.859
		c0.746,2.304,1.979,8.582,2.984,11.572c1.008,2.994,2.652,8.894,3.277,10.565c0.631,1.676,1.675,6.563,0.16,6.119
		c0,0-5.4-3.033-7.076-4.201c-1.674-1.174-12.203-6.211-17.447-8.514c-5.242-2.307-11.977-4.389-14.178-5.475
		c-2.204-1.087-5.861-2.749-6.733-2.983c0,0-0.996-3.558-3.542-7.656c-2.541-4.104-11.167-14.241-13.101-17
		c-1.93-2.759-9.027-13.017-10.802-15.945c0,0,7.173,12.251,10.324,16.462c3.148,4.214,10.949,14.547,12.768,17.009
		c1.822,2.463,2.422,5.271,2.731,6.392c0,0-1.478,0.551-4.321-0.742c-2.842-1.293-9.652-2.674-13.737-4.29
		c-4.087-1.617-8.186-2.665-10.524-3.811c-2.339-1.146-4.653-1.626-4.653-1.626s-3.277-9.667-11.278-17.23
		c0,0,7.273,8.621,10.085,16.443c0,0-7.901-2.21-9.991-2.999c-2.092-0.789-9.714-2.54-12.276-3.379
		c-2.56-0.839-6.509-1.494-9.167-2.297c-2.663-0.801-8.311-1.491-10.639-2.305c0,0-1.193,0.109-3.53-1.037
		c-2.34-1.146-3.102-1.085-3.975-1.321c0,0,2.903,1.159,4.33,1.974c1.43,0.816,3.866,1.026,6.118,1.642
		c2.251,0.617,11.276,2.518,13.062,3.085c1.786,0.565,13.686,3.859,14.461,4.132c0,0-4.103,5.238-11.242,5.667
		c0,0,5.38,1.47,11.958-5.261c0,0,10.066,3.194,13.231,4.142c3.163,0.948,6.548,2.489,7.729,2.95c1.181,0.453,0.49,0.713,0.49,0.713
		s-9.989,7.22-22.459,8.407c0,0,9.701,0.411,23.248-7.806c0,0,0.491-0.185,1.464,0.014c0.972,0.198,12.605,4.266,14.721,4.82
		c2.116,0.558,4.038,1.186,5.614,1.498c1.577,0.304,2.818,0.626,3.729,0.958c0.911,0.333,5.934,2.943,7.853,3.575
		c1.919,0.63,0.246,0.356-0.307,0.678c-0.557,0.318-12.499,5.015-15.332,5.85c-2.831,0.838-15.389,4.19-20.046,6.158
		c-4.654,1.966-13.224,6.972-15.92,9.669c0,0,8.321-6.264,16.18-8.98c7.854-2.719,21.14-6.23,28.466-8.861
		c7.327-2.628,8.891-3.549,9.42-3.639c0.53-0.085,2.055,0.69,3.042,1.22c0.984,0.531,9.217,3.623,10.202,4.156
		c0,0,0.051,0.428-1.084,1.303c-1.131,0.87-5.958,7.172-17.555,5.001c0,0,8.689,3.71,18.114-4.423c0,0,0.773-0.629,1.266-0.813
		c0.49-0.183,4.27,1.211,5.736,2.12c1.461,0.913,7.518,4.485,8.81,5.239c1.295,0.751,3.57,2.03,4.552,2.563
		c0.986,0.528,0.998,0.858,0.716,1.305c-0.282,0.442-3.778,1.302-4.666,1.632c-0.89,0.335-8.659,4.481-11.429,6.076
		c-2.771,1.602-8.533,6.004-11.881,7.26c-3.347,1.253-6.503,3.332-8.298,4.23c-1.8,0.896-2.857,1.967-3.722,2.064
		c-0.861,0.095-8.809-6.136-19.655-2.41c0,0,11.95-2.566,18.254,3.162c0,0-0.864,0.994-2.527,1.955
		c-1.66,0.958-2.991,1.902-4.694,2.764c-1.698,0.863-5.07,2.354-6.19,2.658c0,0-6.546-4.289-17.726-0.549
		c0,0,12.838-2.902,16.482,1.127c0,0-4.827,1.811-6.698,2.506c-1.872,0.702-7.264,3.395-9.594,4.378
		c-2.326,0.984-8.866,4.217-9.715,4.65c-0.849,0.428-4.874,3.17-8.817,3.75c0,0,4.372-0.627,9.174-3.099
		c4.803-2.476,13.605-6.555,15.54-7.391s7.392-2.768,9.493-3.442c2.107-0.676,4.494-1.797,6.43-2.634c0,0-0.842,5.258-5.004,9.736
		c-4.165,4.479-3.745,4.1-4.831,5.404c0,0,2.934-2.668,4.634-4.432c1.699-1.759,5.17-6.878,6.11-10.372c0,0-0.281-0.458,0.923-1.134
		c1.208-0.676,4.298-2.619,6.121-3.75c1.822-1.129,5.739-3.271,8.217-4.76c2.473-1.491,5.771-3.172,5.771-3.172
		s0.111,4.787-1.456,8.404c-1.565,3.621-5.138,8.777-6.16,12.639c-1.025,3.867-3.873,9.762-5.154,12.937c0,0,1.91-3.294,3.044-5.966
		c1.137-2.674,2.824-7.458,3.808-9.628c0.987-2.165,3.489-6.581,4.475-8.749c0.985-2.164,1.839-5.294,2.316-7.607
		c0.484-2.316,0.409-2.513,1.613-3.185c1.21-0.677,3.415-2.29,5.533-3.533c2.116-1.24,6.107-3.184,8.324-4.465
		c2.216-1.279,3.893-2.805,6.354-3.726c2.464-0.925,4.434-1.661,5.159-1.819c0.727-0.16,0.418,0.517-0.199,1.873
		c-0.616,1.353-2.526,7.345-2.936,11.656c-0.406,4.309-2.787,10.255-3.266,12.567c-0.484,2.314-2.445,10.572-2.604,11.646
		c-0.161,1.07-1.815,6.853-2.048,7.728c-0.234,0.875-3.318,9.441-3.143,11.398"/>
</g>
</svg>
